ISO-10303-21;
HEADER;
FILE_DESCRIPTION (( 'STEP AP214' ),
    '1' );
FILE_NAME ('End Cap Left.STEP',
    '2026-10-03T16:33:27',
    ( '' ),
    ( '' ),
    'SwSTEP 2.0',
    'SolidWorks 2026',
    '' );
FILE_SCHEMA (( 'AUTOMOTIVE_DESIGN' ));
ENDSEC;

DATA;
#1 = CIRCLE ( 'NONE', #635, 1.250000000000001110 ) ;
#2 = CARTESIAN_POINT ( 'NONE',  ( 3.000000000000000000, 2.000000000000000000, -1.356450745682412862 ) ) ;
#3 = MANIFOLD_SOLID_BREP ( 'Cut-Extrude1', #389 ) ;
#4 = EDGE_CURVE ( 'NONE', #42, #149, #282, .T. ) ;
#5 = FACE_BOUND ( 'NONE', #537, .T. ) ;
#6 = DIRECTION ( 'NONE',  ( -0.000000000000000000, -0.000000000000000000, -1.000000000000000000 ) ) ;
#7 = DIRECTION ( 'NONE',  ( 0.000000000000000000, 0.000000000000000000, 1.000000000000000000 ) ) ;
#8 = DIRECTION ( 'NONE',  ( 0.000000000000000000, 2.738837401025377908E-17, -1.000000000000000000 ) ) ;
#9 = AXIS2_PLACEMENT_3D ( 'NONE', #614, #194, #415 ) ;
#10 = ADVANCED_FACE ( 'NONE', ( #474 ), #99, .T. ) ;
#11 = ADVANCED_FACE ( 'NONE', ( #547 ), #325, .F. ) ;
#12 = CARTESIAN_POINT ( 'NONE',  ( 3.000000000000000000, 3.294095225512654324, 2.223178385762914822 ) ) ;
#13 = APPLICATION_PROTOCOL_DEFINITION ( 'draft international standard', 'automotive_design', 1998, #315 ) ;
#14 = VECTOR ( 'NONE', #342, 1000.000000000000000 ) ;
#15 = FACE_OUTER_BOUND ( 'NONE', #476, .T. ) ;
#16 = CYLINDRICAL_SURFACE ( 'NONE', #580, 1.250000000000000222 ) ;
#17 = FACE_OUTER_BOUND ( 'NONE', #629, .T. ) ;
#18 = AXIS2_PLACEMENT_3D ( 'NONE', #498, #116, #119 ) ;
#19 = VERTEX_POINT ( 'NONE', #486 ) ;
#20 = PRODUCT_DEFINITION ( 'UNKNOWN', '', #336, #292 ) ;
#21 = CIRCLE ( 'NONE', #682, 3.000000000000002665 ) ;
#22 = DIRECTION ( 'NONE',  ( 1.000000000000000000, 0.000000000000000000, 0.000000000000000000 ) ) ;
#23 = ORIENTED_EDGE ( 'NONE', *, *, #608, .F. ) ;
#24 = CARTESIAN_POINT ( 'NONE',  ( 2.000000000000000000, 2.000000000000002665, -65.94440119602155903 ) ) ;
#25 = EDGE_CURVE ( 'NONE', #276, #84, #306, .T. ) ;
#26 = VERTEX_POINT ( 'NONE', #147 ) ;
#27 = LINE ( 'NONE', #269, #505 ) ;
#28 = EDGE_LOOP ( 'NONE', ( #319, #513, #684, #185 ) ) ;
#29 = DIRECTION ( 'NONE',  ( 0.000000000000000000, 0.000000000000000000, 1.000000000000000000 ) ) ;
#30 = ORIENTED_EDGE ( 'NONE', *, *, #455, .T. ) ;
#31 = CARTESIAN_POINT ( 'NONE',  ( 3.000000000000000000, 63.17976212419990389, -18.99951859999000803 ) ) ;
#32 = ORIENTED_EDGE ( 'NONE', *, *, #228, .F. ) ;
#33 = CYLINDRICAL_SURFACE ( 'NONE', #634, 5.000000000000000888 ) ;
#34 = EDGE_LOOP ( 'NONE', ( #698, #515, #157, #32 ) ) ;
#35 = AXIS2_PLACEMENT_3D ( 'NONE', #177, #227, #445 ) ;
#36 = DIRECTION ( 'NONE',  ( 0.000000000000000000, -0.7933533402912352761, -0.6087614290087204338 ) ) ;
#37 = ORIENTED_EDGE ( 'NONE', *, *, #579, .T. ) ;
#38 = EDGE_CURVE ( 'NONE', #95, #333, #396, .T. ) ;
#39 = CIRCLE ( 'NONE', #242, 1.250000000000001110 ) ;
#40 = EDGE_CURVE ( 'NONE', #211, #158, #693, .T. ) ;
#41 = FACE_OUTER_BOUND ( 'NONE', #517, .T. ) ;
#42 = VERTEX_POINT ( 'NONE', #544 ) ;
#43 = ORIENTED_EDGE ( 'NONE', *, *, #238, .F. ) ;
#44 = AXIS2_PLACEMENT_3D ( 'NONE', #94, #478, #616 ) ;
#45 = DIRECTION ( 'NONE',  ( 0.000000000000000000, 0.000000000000000000, -1.000000000000000000 ) ) ;
#46 = CARTESIAN_POINT ( 'NONE',  ( 0.000000000000000000, 2.000000000000002665, -65.94440119602155903 ) ) ;
#47 = CARTESIAN_POINT ( 'NONE',  ( 3.000000000000000000, 5.043807145043624374, -69.91116789747772486 ) ) ;
#48 = ORIENTED_EDGE ( 'NONE', *, *, #25, .T. ) ;
#49 = DIRECTION ( 'NONE',  ( 0.000000000000000000, -2.738837401025377908E-17, 1.000000000000000000 ) ) ;
#50 = ORIENTED_EDGE ( 'NONE', *, *, #545, .T. ) ;
#51 = LINE ( 'NONE', #588, #14 ) ;
#52 = EDGE_CURVE ( 'NONE', #428, #430, #701, .T. ) ;
#53 = ORIENTED_EDGE ( 'NONE', *, *, #686, .T. ) ;
#54 = VECTOR ( 'NONE', #658, 1000.000000000000000 ) ;
#55 = AXIS2_PLACEMENT_3D ( 'NONE', #199, #88, #251 ) ;
#56 = DIRECTION ( 'NONE',  ( 0.000000000000000000, 0.000000000000000000, -1.000000000000000000 ) ) ;
#57 = CARTESIAN_POINT ( 'NONE',  ( 3.000000000000000000, 63.17976212419990389, -17.74951859999000803 ) ) ;
#58 =( GEOMETRIC_REPRESENTATION_CONTEXT ( 3 ) GLOBAL_UNCERTAINTY_ASSIGNED_CONTEXT ( ( #449 ) ) GLOBAL_UNIT_ASSIGNED_CONTEXT ( ( #438, #275, #384 ) ) REPRESENTATION_CONTEXT ( 'NONE', 'WORKASPACE' ) );
#59 = CARTESIAN_POINT ( 'NONE',  ( 3.000000000000000000, -2.999999999999995559, -65.94440119602144534 ) ) ;
#60 = CYLINDRICAL_SURFACE ( 'NONE', #648, 4.999999999999999112 ) ;
#61 = DIRECTION ( 'NONE',  ( 0.000000000000000000, 0.000000000000000000, -1.000000000000000000 ) ) ;
#62 =( NAMED_UNIT ( * ) SI_UNIT ( $, .STERADIAN. ) SOLID_ANGLE_UNIT ( ) );
#63 = DIRECTION ( 'NONE',  ( 1.000000000000000000, 0.000000000000000000, 0.000000000000000000 ) ) ;
#64 = AXIS2_PLACEMENT_3D ( 'NONE', #318, #267, #219 ) ;
#65 = CARTESIAN_POINT ( 'NONE',  ( 2.000000000000000000, 3.826284287026175512, -68.32446121689525853 ) ) ;
#66 = CARTESIAN_POINT ( 'NONE',  ( 3.000000000000000000, 2.000000000000002665, -67.19440119602155903 ) ) ;
#67 = LINE ( 'NONE', #605, #468 ) ;
#68 = CARTESIAN_POINT ( 'NONE',  ( 0.000000000000000000, 63.17976212419990389, -18.99951859999000803 ) ) ;
#69 = ADVANCED_FACE ( 'NONE', ( #550 ), #395, .T. ) ;
#70 = AXIS2_PLACEMENT_3D ( 'NONE', #603, #8, #555 ) ;
#71 = STYLED_ITEM ( 'NONE', ( #166 ), #3 ) ;
#72 = CARTESIAN_POINT ( 'NONE',  ( 0.000000000000000000, 2.000000000000000000, -1.356450745682412862 ) ) ;
#73 = VECTOR ( 'NONE', #619, 1000.000000000000000 ) ;
#74 = DIRECTION ( 'NONE',  ( 0.000000000000000000, 0.000000000000000000, 1.000000000000000000 ) ) ;
#75 = CARTESIAN_POINT ( 'NONE',  ( 3.000000000000000000, 5.043807145043624374, -69.91116789747772486 ) ) ;
#76 = TOROIDAL_SURFACE ( 'NONE', #531, 3.000000000000000888, 2.000000000000000000 ) ;
#77 = CARTESIAN_POINT ( 'NONE',  ( 3.000000000000000000, 2.000000000000000000, -2.606450745682413306 ) ) ;
#78 = ORIENTED_EDGE ( 'NONE', *, *, #350, .T. ) ;
#79 = EDGE_CURVE ( 'NONE', #19, #373, #705, .T. ) ;
#80 = DIRECTION ( 'NONE',  ( 0.000000000000000000, 0.000000000000000000, 1.000000000000000000 ) ) ;
#81 = ORIENTED_EDGE ( 'NONE', *, *, #662, .T. ) ;
#82 = DIRECTION ( 'NONE',  ( 0.000000000000000000, 0.000000000000000000, -1.000000000000000000 ) ) ;
#83 = VECTOR ( 'NONE', #602, 1000.000000000000000 ) ;
#84 = VERTEX_POINT ( 'NONE', #283 ) ;
#85 = PLANE ( 'NONE',  #286 ) ;
#86 = ORIENTED_EDGE ( 'NONE', *, *, #175, .F. ) ;
#87 = VERTEX_POINT ( 'NONE', #229 ) ;
#88 = DIRECTION ( 'NONE',  ( 0.000000000000000000, 0.9659258262890683122, -0.2588190451025213501 ) ) ;
#89 = ORIENTED_EDGE ( 'NONE', *, *, #518, .F. ) ;
#90 = EDGE_CURVE ( 'NONE', #382, #138, #115, .T. ) ;
#91 = DIRECTION ( 'NONE',  ( -1.000000000000000000, -0.000000000000000000, -0.000000000000000000 ) ) ;
#92 = ORIENTED_EDGE ( 'NONE', *, *, #446, .T. ) ;
#93 = AXIS2_PLACEMENT_3D ( 'NONE', #293, #311, #29 ) ;
#94 = CARTESIAN_POINT ( 'NONE',  ( 3.000000000000000000, 2.000000000000002665, -65.94440119602155903 ) ) ;
#95 = VERTEX_POINT ( 'NONE', #176 ) ;
#96 = FACE_OUTER_BOUND ( 'NONE', #385, .T. ) ;
#97 = ORIENTED_EDGE ( 'NONE', *, *, #596, .F. ) ;
#98 = DIRECTION ( 'NONE',  ( 0.000000000000000000, 0.000000000000000000, 1.000000000000000000 ) ) ;
#99 = CYLINDRICAL_SURFACE ( 'NONE', #353, 2.000000000000001332 ) ;
#100 = CARTESIAN_POINT ( 'NONE',  ( 2.000000000000000000, 2.000000000000000000, -2.606450745682413306 ) ) ;
#101 = ORIENTED_EDGE ( 'NONE', *, *, #533, .T. ) ;
#102 = DIRECTION ( 'NONE',  ( -1.000000000000000000, -0.000000000000000000, -0.000000000000000000 ) ) ;
#103 = ORIENTED_EDGE ( 'NONE', *, *, #4, .T. ) ;
#104 = ORIENTED_EDGE ( 'NONE', *, *, #645, .F. ) ;
#105 = PRESENTATION_LAYER_ASSIGNMENT (  '', '', ( #71 ) ) ;
#106 = VECTOR ( 'NONE', #307, 1000.000000000000000 ) ;
#107 = CARTESIAN_POINT ( 'NONE',  ( 3.000000000000000000, 2.000000000000002665, -64.69440119602155903 ) ) ;
#108 = ORIENTED_EDGE ( 'NONE', *, *, #38, .F. ) ;
#109 = CARTESIAN_POINT ( 'NONE',  ( 0.000000000000000000, 0.000000000000000000, 0.000000000000000000 ) ) ;
#110 = VECTOR ( 'NONE', #249, 1000.000000000000000 ) ;
#111 = LINE ( 'NONE', #241, #492 ) ;
#112 = LINE ( 'NONE', #66, #597 ) ;
#113 = CARTESIAN_POINT ( 'NONE',  ( 3.000000000000000000, 2.000000000000000000, -2.606450745682413306 ) ) ;
#114 = DIRECTION ( 'NONE',  ( 0.000000000000000000, 0.000000000000000000, 1.000000000000000000 ) ) ;
#115 = LINE ( 'NONE', #2, #54 ) ;
#116 = DIRECTION ( 'NONE',  ( -1.000000000000000000, -0.000000000000000000, -0.000000000000000000 ) ) ;
#117 = EDGE_CURVE ( 'NONE', #572, #489, #67, .T. ) ;
#118 = CARTESIAN_POINT ( 'NONE',  ( 2.000000000000000000, 64.47385734971248894, -14.16988946854466036 ) ) ;
#119 = DIRECTION ( 'NONE',  ( 0.000000000000000000, 0.000000000000000000, 1.000000000000000000 ) ) ;
#120 = DIRECTION ( 'NONE',  ( 1.000000000000000000, 0.000000000000000000, 0.000000000000000000 ) ) ;
#121 = DIRECTION ( 'NONE',  ( 1.000000000000000000, 0.000000000000000000, 0.000000000000000000 ) ) ;
#122 = ORIENTED_EDGE ( 'NONE', *, *, #155, .T. ) ;
#123 = DIRECTION ( 'NONE',  ( 0.000000000000000000, 0.000000000000000000, -1.000000000000000000 ) ) ;
#124 = ORIENTED_EDGE ( 'NONE', *, *, #361, .F. ) ;
#125 = EDGE_CURVE ( 'NONE', #308, #671, #647, .T. ) ;
#126 = CIRCLE ( 'NONE', #546, 5.000000000000004441 ) ;
#127 = FACE_OUTER_BOUND ( 'NONE', #34, .T. ) ;
#128 = VERTEX_POINT ( 'NONE', #398 ) ;
#129 = DIRECTION ( 'NONE',  ( 0.000000000000000000, 0.6087614290087204338, -0.7933533402912352761 ) ) ;
#130 = ORIENTED_EDGE ( 'NONE', *, *, #38, .T. ) ;
#131 = LINE ( 'NONE', #47, #110 ) ;
#132 = CARTESIAN_POINT ( 'NONE',  ( 2.000000000000000000, 2.000000000000002665, -68.94440119602155903 ) ) ;
#133 = ORIENTED_EDGE ( 'NONE', *, *, #40, .T. ) ;
#134 = AXIS2_PLACEMENT_3D ( 'NONE', #208, #376, #429 ) ;
#135 = ORIENTED_EDGE ( 'NONE', *, *, #193, .F. ) ;
#136 = EDGE_CURVE ( 'NONE', #211, #671, #287, .T. ) ;
#137 = DIRECTION ( 'NONE',  ( 1.000000000000000000, 0.000000000000000000, 0.000000000000000000 ) ) ;
#138 = VERTEX_POINT ( 'NONE', #72 ) ;
#139 = EDGE_CURVE ( 'NONE', #328, #489, #351, .T. ) ;
#140 = FACE_OUTER_BOUND ( 'NONE', #200, .T. ) ;
#141 = EDGE_LOOP ( 'NONE', ( #314, #691 ) ) ;
#142 = CARTESIAN_POINT ( 'NONE',  ( 3.000000000000000000, 2.000000000000000000, -2.606450745682413306 ) ) ;
#143 = VERTEX_POINT ( 'NONE', #553 ) ;
#144 = DIRECTION ( 'NONE',  ( 0.000000000000000000, 0.000000000000000000, -1.000000000000000000 ) ) ;
#145 = VERTEX_POINT ( 'NONE', #652 ) ;
#146 = CARTESIAN_POINT ( 'NONE',  ( 2.000000000000000000, 2.000000000000000000, -2.606450745682413306 ) ) ;
#147 = CARTESIAN_POINT ( 'NONE',  ( 0.000000000000000000, -0.9999999999999983347, -65.94440119602144534 ) ) ;
#148 = VECTOR ( 'NONE', #237, 1000.000000000000000 ) ;
#149 = VERTEX_POINT ( 'NONE', #347 ) ;
#150 = ADVANCED_FACE ( 'NONE', ( #291 ), #224, .T. ) ;
#151 = DIRECTION ( 'NONE',  ( -1.000000000000000000, -0.000000000000000000, -0.000000000000000000 ) ) ;
#152 = DIRECTION ( 'NONE',  ( -1.000000000000000000, -0.000000000000000000, -0.000000000000000000 ) ) ;
#153 = CYLINDRICAL_SURFACE ( 'NONE', #417, 1.250000000000000222 ) ;
#154 = ORIENTED_EDGE ( 'NONE', *, *, #309, .F. ) ;
#155 = EDGE_CURVE ( 'NONE', #675, #405, #174, .T. ) ;
#156 = DIRECTION ( 'NONE',  ( 1.000000000000000000, 0.000000000000000000, 0.000000000000000000 ) ) ;
#157 = ORIENTED_EDGE ( 'NONE', *, *, #79, .F. ) ;
#158 = VERTEX_POINT ( 'NONE', #559 ) ;
#159 = CARTESIAN_POINT ( 'NONE',  ( 2.000000000000000000, 3.294095225512654324, 2.223178385762914822 ) ) ;
#160 = DIRECTION ( 'NONE',  ( -1.000000000000000000, 0.000000000000000000, 0.000000000000000000 ) ) ;
#161 = DIRECTION ( 'NONE',  ( 0.000000000000000000, 0.000000000000000000, -1.000000000000000000 ) ) ;
#162 = VECTOR ( 'NONE', #152, 1000.000000000000000 ) ;
#163 = TOROIDAL_SURFACE ( 'NONE', #607, 3.000000000000000000, 2.000000000000000000 ) ;
#164 = DIRECTION ( 'NONE',  ( 1.000000000000000000, 0.000000000000000000, 0.000000000000000000 ) ) ;
#165 = EDGE_CURVE ( 'NONE', #138, #509, #450, .T. ) ;
#166 = PRESENTATION_STYLE_ASSIGNMENT (( #535 ) ) ;
#167 = DIRECTION ( 'NONE',  ( 0.000000000000000000, 0.000000000000000000, -1.000000000000000000 ) ) ;
#168 = ADVANCED_FACE ( 'NONE', ( #170 ), #448, .T. ) ;
#169 = VECTOR ( 'NONE', #36, 1000.000000000000227 ) ;
#170 = FACE_OUTER_BOUND ( 'NONE', #532, .T. ) ;
#171 = FACE_OUTER_BOUND ( 'NONE', #371, .T. ) ;
#172 = PRODUCT ( 'End Cap Left', 'End Cap Left', '', ( #554 ) ) ;
#173 = DIRECTION ( 'NONE',  ( 0.000000000000000000, 0.000000000000000000, -1.000000000000000000 ) ) ;
#174 = CIRCLE ( 'NONE', #456, 1.250000000000001110 ) ;
#175 = EDGE_CURVE ( 'NONE', #145, #308, #195, .T. ) ;
#176 = CARTESIAN_POINT ( 'NONE',  ( 0.000000000000000000, 2.000000000000002665, -64.69440119602155903 ) ) ;
#177 = CARTESIAN_POINT ( 'NONE',  ( 0.000000000000000000, 2.000000000000000000, -2.606450745682413306 ) ) ;
#178 = CARTESIAN_POINT ( 'NONE',  ( 3.000000000000000000, 2.000000000000000000, -2.606450745682413306 ) ) ;
#179 = ORIENTED_EDGE ( 'NONE', *, *, #343, .T. ) ;
#180 = CIRCLE ( 'NONE', #578, 5.000000000000000888 ) ;
#181 = DIRECTION ( 'NONE',  ( 0.000000000000000000, 0.000000000000000000, 1.000000000000000000 ) ) ;
#182 = ORIENTED_EDGE ( 'NONE', *, *, #618, .T. ) ;
#183 = EDGE_CURVE ( 'NONE', #321, #149, #539, .T. ) ;
#184 = DIRECTION ( 'NONE',  ( 0.000000000000000000, 0.000000000000000000, 1.000000000000000000 ) ) ;
#185 = ORIENTED_EDGE ( 'NONE', *, *, #165, .T. ) ;
#186 = DIRECTION ( 'NONE',  ( 0.000000000000000000, 0.7933533402912352761, 0.6087614290087204338 ) ) ;
#187 = ORIENTED_EDGE ( 'NONE', *, *, #250, .T. ) ;
#188 = DIRECTION ( 'NONE',  ( 0.000000000000000000, 0.000000000000000000, 1.000000000000000000 ) ) ;
#189 = ORIENTED_EDGE ( 'NONE', *, *, #401, .T. ) ;
#190 = DIRECTION ( 'NONE',  ( -1.000000000000000000, 0.000000000000000000, 0.000000000000000000 ) ) ;
#191 = ORIENTED_EDGE ( 'NONE', *, *, #608, .T. ) ;
#192 = ORIENTED_EDGE ( 'NONE', *, *, #250, .F. ) ;
#193 = EDGE_CURVE ( 'NONE', #158, #26, #285, .T. ) ;
#194 = DIRECTION ( 'NONE',  ( -1.000000000000000000, -0.000000000000000000, -0.000000000000000000 ) ) ;
#195 = CIRCLE ( 'NONE', #440, 4.999999999999999112 ) ;
#196 = ORIENTED_EDGE ( 'NONE', *, *, #323, .T. ) ;
#197 = CIRCLE ( 'NONE', #134, 2.000000000000000000 ) ;
#198 = DIRECTION ( 'NONE',  ( 0.000000000000000000, 0.9659258262890680902, -0.2588190451025213501 ) ) ;
#199 = CARTESIAN_POINT ( 'NONE',  ( 2.000000000000000000, 2.776457135307611512, 0.2913267331847774200 ) ) ;
#200 = EDGE_LOOP ( 'NONE', ( #215, #317, #30, #130 ) ) ;
#201 = DIRECTION ( 'NONE',  ( 0.000000000000000000, 0.000000000000000000, -1.000000000000000000 ) ) ;
#202 = EDGE_LOOP ( 'NONE', ( #673, #257, #89, #678 ) ) ;
#203 = AXIS2_PLACEMENT_3D ( 'NONE', #483, #541, #61 ) ;
#204 = CARTESIAN_POINT ( 'NONE',  ( 0.000000000000000000, 2.000000000000002665, -65.94440119602155903 ) ) ;
#205 = DIRECTION ( 'NONE',  ( 0.000000000000000000, 0.000000000000000000, 1.000000000000000000 ) ) ;
#206 = ADVANCED_FACE ( 'NONE', ( #392 ), #598, .T. ) ;
#207 = ORIENTED_EDGE ( 'NONE', *, *, #399, .F. ) ;
#208 = CARTESIAN_POINT ( 'NONE',  ( 2.000000000000000000, -0.9999999999999974465, -2.606450745682422632 ) ) ;
#209 = EDGE_CURVE ( 'NONE', #270, #382, #273, .T. ) ;
#210 = PLANE ( 'NONE',  #300 ) ;
#211 = VERTEX_POINT ( 'NONE', #623 ) ;
#212 = CARTESIAN_POINT ( 'NONE',  ( 0.000000000000000000, 63.17976212419990389, -18.99951859999000803 ) ) ;
#213 = EDGE_LOOP ( 'NONE', ( #432, #566, #646, #472 ) ) ;
#214 = CARTESIAN_POINT ( 'NONE',  ( 3.000000000000000000, 2.000000000000002665, -67.19440119602155903 ) ) ;
#215 = ORIENTED_EDGE ( 'NONE', *, *, #662, .F. ) ;
#216 = DIRECTION ( 'NONE',  ( -1.000000000000000000, 0.000000000000000000, 0.000000000000000000 ) ) ;
#217 = EDGE_LOOP ( 'NONE', ( #577, #575 ) ) ;
#218 = ADVANCED_FACE ( 'NONE', ( #313 ), #33, .T. ) ;
#219 = DIRECTION ( 'NONE',  ( 0.000000000000000000, 0.000000000000000000, 1.000000000000000000 ) ) ;
#220 = EDGE_CURVE ( 'NONE', #84, #158, #111, .T. ) ;
#221 = FILL_AREA_STYLE ('',( #272 ) ) ;
#222 = AXIS2_PLACEMENT_3D ( 'NONE', #65, #400, #453 ) ;
#223 = AXIS2_PLACEMENT_3D ( 'NONE', #212, #436, #702 ) ;
#224 = CYLINDRICAL_SURFACE ( 'NONE', #18, 5.000000000000004441 ) ;
#225 = DIRECTION ( 'NONE',  ( 0.000000000000000000, 2.738837401025377908E-17, -1.000000000000000000 ) ) ;
#226 = CIRCLE ( 'NONE', #653, 2.000000000000000000 ) ;
#227 = DIRECTION ( 'NONE',  ( -1.000000000000000000, 0.000000000000000000, 0.000000000000000000 ) ) ;
#228 = EDGE_CURVE ( 'NONE', #460, #19, #590, .T. ) ;
#229 = CARTESIAN_POINT ( 'NONE',  ( 0.000000000000000000, 65.00604641122602345, -21.37957862086372174 ) ) ;
#230 = AXIS2_PLACEMENT_3D ( 'NONE', #68, #493, #447 ) ;
#231 = VECTOR ( 'NONE', #102, 1000.000000000000000 ) ;
#232 = DIRECTION ( 'NONE',  ( 0.000000000000000000, 0.9659258262890687563, -0.2588190451025191852 ) ) ;
#233 = CARTESIAN_POINT ( 'NONE',  ( 3.000000000000000000, 2.000000000000000000, -2.606450745682413306 ) ) ;
#234 = DIRECTION ( 'NONE',  ( -0.000000000000000000, 0.2588190451025213501, 0.9659258262890680902 ) ) ;
#235 = VECTOR ( 'NONE', #198, 1000.000000000000114 ) ;
#236 = EDGE_CURVE ( 'NONE', #430, #489, #180, .T. ) ;
#237 = DIRECTION ( 'NONE',  ( -0.000000000000000000, -0.9659258262890680902, 0.2588190451025213501 ) ) ;
#238 = EDGE_CURVE ( 'NONE', #489, #375, #419, .T. ) ;
#239 = DIRECTION ( 'NONE',  ( 0.000000000000000000, 0.000000000000000000, 1.000000000000000000 ) ) ;
#240 = AXIS2_PLACEMENT_3D ( 'NONE', #568, #683, #80 ) ;
#241 = CARTESIAN_POINT ( 'NONE',  ( 2.000000000000000000, -2.999999999999995559, -65.94440119602144534 ) ) ;
#242 = AXIS2_PLACEMENT_3D ( 'NONE', #677, #190, #565 ) ;
#243 = ORIENTED_EDGE ( 'NONE', *, *, #455, .F. ) ;
#244 = AXIS2_PLACEMENT_3D ( 'NONE', #109, #74, #120 ) ;
#245 = DIRECTION ( 'NONE',  ( 0.000000000000000000, 0.000000000000000000, -1.000000000000000000 ) ) ;
#246 = VERTEX_POINT ( 'NONE', #454 ) ;
#247 = DIRECTION ( 'NONE',  ( -0.000000000000000000, 2.738837401025377908E-17, -1.000000000000000000 ) ) ;
#248 = ORIENTED_EDGE ( 'NONE', *, *, #279, .F. ) ;
#249 = DIRECTION ( 'NONE',  ( -1.000000000000000000, -0.000000000000000000, -0.000000000000000000 ) ) ;
#250 = EDGE_CURVE ( 'NONE', #42, #128, #549, .T. ) ;
#251 = DIRECTION ( 'NONE',  ( 0.000000000000000000, 0.2588190451025211836, 0.9659258262890680902 ) ) ;
#252 = EDGE_LOOP ( 'NONE', ( #666, #643 ) ) ;
#253 = FACE_OUTER_BOUND ( 'NONE', #685, .T. ) ;
#254 = ORIENTED_EDGE ( 'NONE', *, *, #155, .F. ) ;
#255 = CARTESIAN_POINT ( 'NONE',  ( 2.000000000000000000, 2.000000000000002665, -65.94440119602155903 ) ) ;
#256 =( GEOMETRIC_REPRESENTATION_CONTEXT ( 3 ) GLOBAL_UNCERTAINTY_ASSIGNED_CONTEXT ( ( #497 ) ) GLOBAL_UNIT_ASSIGNED_CONTEXT ( ( #530, #482, #62 ) ) REPRESENTATION_CONTEXT ( 'NONE', 'WORKASPACE' ) );
#257 = ORIENTED_EDGE ( 'NONE', *, *, #618, .F. ) ;
#258 = AXIS2_PLACEMENT_3D ( 'NONE', #386, #216, #380 ) ;
#259 = CYLINDRICAL_SURFACE ( 'NONE', #44, 1.250000000000001110 ) ;
#260 = VERTEX_POINT ( 'NONE', #75 ) ;
#261 = CARTESIAN_POINT ( 'NONE',  ( 0.000000000000000000, 63.17976212419990389, -18.99951859999000803 ) ) ;
#262 = ORIENTED_EDGE ( 'NONE', *, *, #193, .T. ) ;
#263 = DIRECTION ( 'NONE',  ( -1.000000000000000000, -0.000000000000000000, -0.000000000000000000 ) ) ;
#264 = ORIENTED_EDGE ( 'NONE', *, *, #220, .F. ) ;
#265 = VECTOR ( 'NONE', #423, 1000.000000000000227 ) ;
#266 = EDGE_CURVE ( 'NONE', #424, #375, #345, .T. ) ;
#267 = DIRECTION ( 'NONE',  ( -1.000000000000000000, 0.000000000000000000, 0.000000000000000000 ) ) ;
#268 = CARTESIAN_POINT ( 'NONE',  ( 2.000000000000000000, 34.41616534912611769, -44.85201991887948481 ) ) ;
#269 = CARTESIAN_POINT ( 'NONE',  ( 3.000000000000000000, 66.22356926924346965, -22.96628530144620939 ) ) ;
#270 = VERTEX_POINT ( 'NONE', #462 ) ;
#271 = CARTESIAN_POINT ( 'NONE',  ( 0.000000000000000000, 63.95621925950744924, -16.10174112112279943 ) ) ;
#272 = FILL_AREA_STYLE_COLOUR ( '', #592 ) ;
#273 = CIRCLE ( 'NONE', #93, 1.250000000000000222 ) ;
#274 = AXIS2_PLACEMENT_3D ( 'NONE', #556, #301, #503 ) ;
#275 =( NAMED_UNIT ( * ) PLANE_ANGLE_UNIT ( ) SI_UNIT ( $, .RADIAN. ) );
#276 = VERTEX_POINT ( 'NONE', #302 ) ;
#277 = CARTESIAN_POINT ( 'NONE',  ( 3.000000000000000000, 2.000000000000000000, 2.393549254317586250 ) ) ;
#278 = ORIENTED_EDGE ( 'NONE', *, *, #444, .F. ) ;
#279 = EDGE_CURVE ( 'NONE', #333, #95, #39, .T. ) ;
#280 = EDGE_CURVE ( 'NONE', #145, #375, #508, .T. ) ;
#281 = CARTESIAN_POINT ( 'NONE',  ( 3.000000000000000000, 2.000000000000002665, -65.94440119602155903 ) ) ;
#282 = LINE ( 'NONE', #57, #606 ) ;
#283 = CARTESIAN_POINT ( 'NONE',  ( 2.000000000000000000, -2.999999999999997335, -2.606450745682428849 ) ) ;
#284 = FACE_BOUND ( 'NONE', #217, .T. ) ;
#285 = CIRCLE ( 'NONE', #621, 2.000000000000000000 ) ;
#286 = AXIS2_PLACEMENT_3D ( 'NONE', #142, #137, #82 ) ;
#287 = LINE ( 'NONE', #344, #83 ) ;
#288 = ADVANCED_FACE ( 'NONE', ( #408, #571, #626, #17 ), #85, .T. ) ;
#289 = APPLICATION_PROTOCOL_DEFINITION ( 'draft international standard', 'automotive_design', 1998, #397 ) ;
#290 = EDGE_CURVE ( 'NONE', #246, #460, #366, .T. ) ;
#291 = FACE_OUTER_BOUND ( 'NONE', #573, .T. ) ;
#292 = PRODUCT_DEFINITION_CONTEXT ( 'detailed design', #315, 'design' ) ;
#293 = CARTESIAN_POINT ( 'NONE',  ( 3.000000000000000000, 2.000000000000000000, -2.606450745682413306 ) ) ;
#294 = CYLINDRICAL_SURFACE ( 'NONE', #274, 1.999999999999999778 ) ;
#295 = CIRCLE ( 'NONE', #540, 5.000000000000004441 ) ;
#296 = DIRECTION ( 'NONE',  ( 1.000000000000000000, 0.000000000000000000, 0.000000000000000000 ) ) ;
#297 = ADVANCED_FACE ( 'NONE', ( #672 ), #465, .T. ) ;
#298 = DIRECTION ( 'NONE',  ( 5.280163710853099739E-15, 0.7933533402912333887, 0.6087614290087228763 ) ) ;
#299 = EDGE_CURVE ( 'NONE', #143, #424, #670, .T. ) ;
#300 = AXIS2_PLACEMENT_3D ( 'NONE', #59, #443, #225 ) ;
#301 = DIRECTION ( 'NONE',  ( 0.000000000000000000, -0.9659258262890680902, 0.2588190451025213501 ) ) ;
#302 = CARTESIAN_POINT ( 'NONE',  ( 2.000000000000000000, 2.000000000000000000, 2.393549254317586250 ) ) ;
#303 = ORIENTED_EDGE ( 'NONE', *, *, #299, .T. ) ;
#304 = CARTESIAN_POINT ( 'NONE',  ( 2.000000000000000000, 2.000000000000002665, -65.94440119602155903 ) ) ;
#305 = ORIENTED_EDGE ( 'NONE', *, *, #279, .T. ) ;
#306 = CIRCLE ( 'NONE', #657, 4.999999999999999112 ) ;
#307 = DIRECTION ( 'NONE',  ( 0.000000000000000000, 0.9659258262890680902, -0.2588190451025213501 ) ) ;
#308 = VERTEX_POINT ( 'NONE', #369 ) ;
#309 = EDGE_CURVE ( 'NONE', #424, #328, #372, .T. ) ;
#310 = CARTESIAN_POINT ( 'NONE',  ( 3.000000000000000000, 63.17976212419990389, -18.99951859999000803 ) ) ;
#311 = DIRECTION ( 'NONE',  ( -1.000000000000000000, 0.000000000000000000, 0.000000000000000000 ) ) ;
#312 = ORIENTED_EDGE ( 'NONE', *, *, #183, .T. ) ;
#313 = FACE_OUTER_BOUND ( 'NONE', #461, .T. ) ;
#314 = ORIENTED_EDGE ( 'NONE', *, *, #499, .T. ) ;
#315 = APPLICATION_CONTEXT ( 'automotive_design' ) ;
#316 = LINE ( 'NONE', #427, #265 ) ;
#317 = ORIENTED_EDGE ( 'NONE', *, *, #446, .F. ) ;
#318 = CARTESIAN_POINT ( 'NONE',  ( 0.000000000000000000, 2.000000000000000000, -2.606450745682413306 ) ) ;
#319 = ORIENTED_EDGE ( 'NONE', *, *, #393, .F. ) ;
#320 = VECTOR ( 'NONE', #383, 1000.000000000000000 ) ;
#321 = VERTEX_POINT ( 'NONE', #367 ) ;
#322 = ADVANCED_FACE ( 'NONE', ( #15 ), #622, .T. ) ;
#323 = EDGE_CURVE ( 'NONE', #26, #143, #511, .T. ) ;
#324 = DIRECTION ( 'NONE',  ( 0.000000000000000000, 4.625929269271486900E-15, -1.000000000000000000 ) ) ;
#325 = CYLINDRICAL_SURFACE ( 'NONE', #668, 1.250000000000001110 ) ;
#326 = ORIENTED_EDGE ( 'NONE', *, *, #334, .F. ) ;
#327 = CARTESIAN_POINT ( 'NONE',  ( 3.000000000000000000, 2.000000000000002665, -64.69440119602155903 ) ) ;
#328 = VERTEX_POINT ( 'NONE', #271 ) ;
#329 = PLANE ( 'NONE',  #552 ) ;
#330 = ORIENTED_EDGE ( 'NONE', *, *, #323, .F. ) ;
#331 = CARTESIAN_POINT ( 'NONE',  ( 2.000000000000000000, 2.000000000000002665, -70.94440119602155903 ) ) ;
#332 = AXIS2_PLACEMENT_3D ( 'NONE', #12, #234, #660 ) ;
#333 = VERTEX_POINT ( 'NONE', #543 ) ;
#334 = EDGE_CURVE ( 'NONE', #328, #87, #451, .T. ) ;
#335 = EDGE_LOOP ( 'NONE', ( #669, #86, #639, #189 ) ) ;
#336 = PRODUCT_DEFINITION_FORMATION_WITH_SPECIFIED_SOURCE ( 'ANY', '', #172, .NOT_KNOWN. ) ;
#337 = DIRECTION ( 'NONE',  ( -1.000000000000000000, -0.000000000000000000, -0.000000000000000000 ) ) ;
#338 = ORIENTED_EDGE ( 'NONE', *, *, #139, .F. ) ;
#339 = ADVANCED_BREP_SHAPE_REPRESENTATION ( 'End Cap Left', ( #3, #244 ), #58 ) ;
#340 = CIRCLE ( 'NONE', #203, 3.000000000000002665 ) ;
#341 = DIRECTION ( 'NONE',  ( 0.000000000000000000, -0.6087614290087197677, 0.7933533402912357202 ) ) ;
#342 = DIRECTION ( 'NONE',  ( -1.000000000000000000, -0.000000000000000000, -0.000000000000000000 ) ) ;
#343 = EDGE_CURVE ( 'NONE', #149, #321, #469, .T. ) ;
#344 = CARTESIAN_POINT ( 'NONE',  ( 3.000000000000000000, -2.999999999999995559, -65.94440119602144534 ) ) ;
#345 = CIRCLE ( 'NONE', #55, 2.000000000000000888 ) ;
#346 = CIRCLE ( 'NONE', #525, 4.999999999999999112 ) ;
#347 = CARTESIAN_POINT ( 'NONE',  ( 0.000000000000000000, 63.17976212419990389, -17.74951859999000803 ) ) ;
#348 = DIRECTION ( 'NONE',  ( -1.000000000000000000, 0.000000000000000000, 0.000000000000000000 ) ) ;
#349 = CARTESIAN_POINT ( 'NONE',  ( 3.000000000000000000, 2.000000000000000000, -2.606450745682413306 ) ) ;
#350 = EDGE_CURVE ( 'NONE', #373, #246, #21, .T. ) ;
#351 = CIRCLE ( 'NONE', #481, 2.000000000000000000 ) ;
#352 = CARTESIAN_POINT ( 'NONE',  ( 2.000000000000000000, 65.00604641122602345, -21.37957862086373950 ) ) ;
#353 = AXIS2_PLACEMENT_3D ( 'NONE', #268, #434, #341 ) ;
#354 = AXIS2_PLACEMENT_3D ( 'NONE', #24, #411, #480 ) ;
#355 = DIRECTION ( 'NONE',  ( -1.000000000000000000, 0.000000000000000000, 0.000000000000000000 ) ) ;
#356 = SHAPE_DEFINITION_REPRESENTATION ( #651, #339 ) ;
#357 = ORIENTED_EDGE ( 'NONE', *, *, #280, .F. ) ;
#358 = DIRECTION ( 'NONE',  ( 0.000000000000000000, 0.000000000000000000, -1.000000000000000000 ) ) ;
#359 = AXIS2_PLACEMENT_3D ( 'NONE', #310, #263, #188 ) ;
#360 = ORIENTED_EDGE ( 'NONE', *, *, #361, .T. ) ;
#361 = EDGE_CURVE ( 'NONE', #128, #42, #1, .T. ) ;
#362 = CARTESIAN_POINT ( 'NONE',  ( 0.000000000000000000, 63.95621925950743503, -16.10174112112279587 ) ) ;
#363 = ORIENTED_EDGE ( 'NONE', *, *, #117, .F. ) ;
#364 = EDGE_LOOP ( 'NONE', ( #53, #522, #406, #527 ) ) ;
#365 = VECTOR ( 'NONE', #504, 1000.000000000000000 ) ;
#366 = CIRCLE ( 'NONE', #442, 2.000000000000001776 ) ;
#367 = CARTESIAN_POINT ( 'NONE',  ( 0.000000000000000000, 63.17976212419990389, -20.24951859999001158 ) ) ;
#368 = ORIENTED_EDGE ( 'NONE', *, *, #25, .F. ) ;
#369 = CARTESIAN_POINT ( 'NONE',  ( 3.000000000000000000, 2.000000000000000000, 2.393549254317586250 ) ) ;
#370 = ORIENTED_EDGE ( 'NONE', *, *, #579, .F. ) ;
#371 = EDGE_LOOP ( 'NONE', ( #583, #368, #649, #463, #694 ) ) ;
#372 = LINE ( 'NONE', #362, #106 ) ;
#373 = VERTEX_POINT ( 'NONE', #695 ) ;
#374 = CARTESIAN_POINT ( 'NONE',  ( 3.000000000000000000, 64.47385734971248894, -14.16988946854466036 ) ) ;
#375 = VERTEX_POINT ( 'NONE', #159 ) ;
#376 = DIRECTION ( 'NONE',  ( 0.000000000000000000, -3.035766082959412415E-15, 1.000000000000000000 ) ) ;
#377 = DIRECTION ( 'NONE',  ( 0.000000000000000000, 0.000000000000000000, -1.000000000000000000 ) ) ;
#378 = CIRCLE ( 'NONE', #659, 1.250000000000000222 ) ;
#379 = ORIENTED_EDGE ( 'NONE', *, *, #52, .T. ) ;
#380 = DIRECTION ( 'NONE',  ( 0.000000000000000000, 0.000000000000000000, 1.000000000000000000 ) ) ;
#381 = CARTESIAN_POINT ( 'NONE',  ( 3.000000000000000000, 66.22356926924346965, -22.96628530144621294 ) ) ;
#382 = VERTEX_POINT ( 'NONE', #640 ) ;
#383 = DIRECTION ( 'NONE',  ( -1.000000000000000000, -0.000000000000000000, -0.000000000000000000 ) ) ;
#384 =( NAMED_UNIT ( * ) SI_UNIT ( $, .STERADIAN. ) SOLID_ANGLE_UNIT ( ) );
#385 = EDGE_LOOP ( 'NONE', ( #124, #479, #312, #585 ) ) ;
#386 = CARTESIAN_POINT ( 'NONE',  ( 3.000000000000000000, 2.000000000000002665, -65.94440119602155903 ) ) ;
#387 = AXIS2_PLACEMENT_3D ( 'NONE', #255, #404, #123 ) ;
#388 = ORIENTED_EDGE ( 'NONE', *, *, #52, .F. ) ;
#389 = CLOSED_SHELL ( 'NONE', ( #459, #699, #11, #322, #206, #407, #664, #150, #297, #218, #69, #288, #690, #168, #520, #676, #10, #491, #418, #633, #490, #593 ) ) ;
#390 = AXIS2_PLACEMENT_3D ( 'NONE', #679, #129, #186 ) ;
#391 = AXIS2_PLACEMENT_3D ( 'NONE', #100, #63, #161 ) ;
#392 = FACE_OUTER_BOUND ( 'NONE', #471, .T. ) ;
#393 = EDGE_CURVE ( 'NONE', #270, #509, #538, .T. ) ;
#394 = FACE_OUTER_BOUND ( 'NONE', #609, .T. ) ;
#395 = PLANE ( 'NONE',  #332 ) ;
#396 = CIRCLE ( 'NONE', #414, 1.250000000000001110 ) ;
#397 = APPLICATION_CONTEXT ( 'automotive_design' ) ;
#398 = CARTESIAN_POINT ( 'NONE',  ( 3.000000000000000000, 63.17976212419990389, -20.24951859999001158 ) ) ;
#399 = EDGE_CURVE ( 'NONE', #143, #84, #197, .T. ) ;
#400 = DIRECTION ( 'NONE',  ( 6.881243320739102285E-16, 0.7933533402912342769, 0.6087614290087220992 ) ) ;
#401 = EDGE_CURVE ( 'NONE', #375, #276, #346, .T. ) ;
#402 = CARTESIAN_POINT ( 'NONE',  ( 3.000000000000000000, 2.000000000000002665, -65.94440119602155903 ) ) ;
#403 = ORIENTED_EDGE ( 'NONE', *, *, #596, .T. ) ;
#404 = DIRECTION ( 'NONE',  ( 1.000000000000000000, 0.000000000000000000, 0.000000000000000000 ) ) ;
#405 = VERTEX_POINT ( 'NONE', #327 ) ;
#406 = ORIENTED_EDGE ( 'NONE', *, *, #40, .F. ) ;
#407 = ADVANCED_FACE ( 'NONE', ( #534 ), #60, .T. ) ;
#408 = FACE_BOUND ( 'NONE', #420, .T. ) ;
#409 = ORIENTED_EDGE ( 'NONE', *, *, #117, .T. ) ;
#410 = ORIENTED_EDGE ( 'NONE', *, *, #125, .T. ) ;
#411 = DIRECTION ( 'NONE',  ( 1.000000000000000000, 0.000000000000000000, 0.000000000000000000 ) ) ;
#412 = ORIENTED_EDGE ( 'NONE', *, *, #238, .T. ) ;
#413 = ORIENTED_EDGE ( 'NONE', *, *, #290, .T. ) ;
#414 = AXIS2_PLACEMENT_3D ( 'NONE', #46, #160, #595 ) ;
#415 = DIRECTION ( 'NONE',  ( 0.000000000000000000, 0.000000000000000000, -1.000000000000000000 ) ) ;
#416 = ORIENTED_EDGE ( 'NONE', *, *, #560, .T. ) ;
#417 = AXIS2_PLACEMENT_3D ( 'NONE', #599, #638, #114 ) ;
#418 = ADVANCED_FACE ( 'NONE', ( #41 ), #163, .T. ) ;
#419 = LINE ( 'NONE', #562, #148 ) ;
#420 = EDGE_LOOP ( 'NONE', ( #187, #360 ) ) ;
#421 = AXIS2_PLACEMENT_3D ( 'NONE', #31, #514, #201 ) ;
#422 = EDGE_CURVE ( 'NONE', #509, #138, #594, .T. ) ;
#423 = DIRECTION ( 'NONE',  ( -0.000000000000000000, 0.7933533402912352761, 0.6087614290087204338 ) ) ;
#424 = VERTEX_POINT ( 'NONE', #439 ) ;
#425 = CARTESIAN_POINT ( 'NONE',  ( 2.000000000000000000, 66.22356926924346965, -22.96628530144621294 ) ) ;
#426 = CARTESIAN_POINT ( 'NONE',  ( 3.000000000000000000, 2.000000000000002665, -65.94440119602155903 ) ) ;
#427 = CARTESIAN_POINT ( 'NONE',  ( 2.000000000000000000, 66.22356926924348386, -22.96628530144619873 ) ) ;
#428 = VERTEX_POINT ( 'NONE', #473 ) ;
#429 = DIRECTION ( 'NONE',  ( 0.000000000000000000, -1.000000000000000000, -3.035766082959412415E-15 ) ) ;
#430 = VERTEX_POINT ( 'NONE', #425 ) ;
#431 = CARTESIAN_POINT ( 'NONE',  ( 3.000000000000000000, -2.999999999999997335, -2.606450745682428849 ) ) ;
#432 = ORIENTED_EDGE ( 'NONE', *, *, #209, .F. ) ;
#433 = CARTESIAN_POINT ( 'NONE',  ( 3.000000000000000000, 2.000000000000000000, -2.606450745682413306 ) ) ;
#434 = DIRECTION ( 'NONE',  ( -0.000000000000000000, 0.7933533402912353871, 0.6087614290087205449 ) ) ;
#435 = ORIENTED_EDGE ( 'NONE', *, *, #444, .T. ) ;
#436 = DIRECTION ( 'NONE',  ( -1.000000000000000000, 0.000000000000000000, 0.000000000000000000 ) ) ;
#437 = SURFACE_SIDE_STYLE ('',( #703 ) ) ;
#438 =( LENGTH_UNIT ( ) NAMED_UNIT ( * ) SI_UNIT ( .MILLI., .METRE. ) );
#439 = CARTESIAN_POINT ( 'NONE',  ( 0.000000000000000000, 2.776457135307611512, 0.2913267331847774200 ) ) ;
#440 = AXIS2_PLACEMENT_3D ( 'NONE', #349, #121, #173 ) ;
#441 = EDGE_LOOP ( 'NONE', ( #254, #81, #305, #243 ) ) ;
#442 = AXIS2_PLACEMENT_3D ( 'NONE', #132, #458, #506 ) ;
#443 = DIRECTION ( 'NONE',  ( 0.000000000000000000, -1.000000000000000000, -2.738837401025377908E-17 ) ) ;
#444 = EDGE_CURVE ( 'NONE', #211, #260, #295, .T. ) ;
#445 = DIRECTION ( 'NONE',  ( 0.000000000000000000, 0.000000000000000000, 1.000000000000000000 ) ) ;
#446 = EDGE_CURVE ( 'NONE', #405, #675, #558, .T. ) ;
#447 = DIRECTION ( 'NONE',  ( 0.000000000000000000, 0.000000000000000000, 1.000000000000000000 ) ) ;
#448 = CYLINDRICAL_SURFACE ( 'NONE', #70, 2.000000000000000000 ) ;
#449 = UNCERTAINTY_MEASURE_WITH_UNIT (LENGTH_MEASURE( 1.000000000000000082E-05 ), #438, 'distance_accuracy_value', 'NONE');
#450 = CIRCLE ( 'NONE', #35, 1.250000000000000222 ) ;
#451 = CIRCLE ( 'NONE', #457, 2.999999999999999112 ) ;
#452 = DIRECTION ( 'NONE',  ( 0.000000000000000000, 0.000000000000000000, -1.000000000000000000 ) ) ;
#453 = DIRECTION ( 'NONE',  ( 0.000000000000000000, -0.6087614290087209890, 0.7933533402912350541 ) ) ;
#454 = CARTESIAN_POINT ( 'NONE',  ( 0.000000000000000000, 2.000000000000002665, -68.94440119602155903 ) ) ;
#455 = EDGE_CURVE ( 'NONE', #405, #95, #581, .T. ) ;
#456 = AXIS2_PLACEMENT_3D ( 'NONE', #402, #348, #7 ) ;
#457 = AXIS2_PLACEMENT_3D ( 'NONE', #261, #630, #324 ) ;
#458 = DIRECTION ( 'NONE',  ( 0.000000000000000000, -1.000000000000000000, 0.000000000000000000 ) ) ;
#459 = ADVANCED_FACE ( 'NONE', ( #96 ), #477, .F. ) ;
#460 = VERTEX_POINT ( 'NONE', #331 ) ;
#461 = EDGE_LOOP ( 'NONE', ( #379, #632, #363, #528 ) ) ;
#462 = CARTESIAN_POINT ( 'NONE',  ( 3.000000000000000000, 2.000000000000000000, -3.856450745682413306 ) ) ;
#463 = ORIENTED_EDGE ( 'NONE', *, *, #266, .F. ) ;
#464 = DIRECTION ( 'NONE',  ( 0.000000000000000000, -0.7933533402912352761, -0.6087614290087204338 ) ) ;
#465 = PLANE ( 'NONE',  #390 ) ;
#466 = ORIENTED_EDGE ( 'NONE', *, *, #175, .T. ) ;
#467 = EDGE_CURVE ( 'NONE', #308, #276, #587, .T. ) ;
#468 = VECTOR ( 'NONE', #663, 1000.000000000000000 ) ;
#469 = CIRCLE ( 'NONE', #223, 1.250000000000001110 ) ;
#470 = CARTESIAN_POINT ( 'NONE',  ( 2.000000000000000000, 63.17976212419990389, -18.99951859999000803 ) ) ;
#471 = EDGE_LOOP ( 'NONE', ( #617, #569, #48, #542 ) ) ;
#472 = ORIENTED_EDGE ( 'NONE', *, *, #90, .F. ) ;
#473 = CARTESIAN_POINT ( 'NONE',  ( 3.000000000000000000, 66.22356926924346965, -22.96628530144621294 ) ) ;
#474 = FACE_OUTER_BOUND ( 'NONE', #202, .T. ) ;
#475 = LINE ( 'NONE', #681, #235 ) ;
#476 = EDGE_LOOP ( 'NONE', ( #620, #413, #624, #262 ) ) ;
#477 = CYLINDRICAL_SURFACE ( 'NONE', #494, 1.250000000000001110 ) ;
#478 = DIRECTION ( 'NONE',  ( -1.000000000000000000, -0.000000000000000000, -0.000000000000000000 ) ) ;
#479 = ORIENTED_EDGE ( 'NONE', *, *, #645, .T. ) ;
#480 = DIRECTION ( 'NONE',  ( 0.000000000000000000, 0.000000000000000000, -1.000000000000000000 ) ) ;
#481 = AXIS2_PLACEMENT_3D ( 'NONE', #500, #232, #601 ) ;
#482 =( NAMED_UNIT ( * ) PLANE_ANGLE_UNIT ( ) SI_UNIT ( $, .RADIAN. ) );
#483 = CARTESIAN_POINT ( 'NONE',  ( 0.000000000000000000, 2.000000000000002665, -65.94440119602155903 ) ) ;
#484 = ORIENTED_EDGE ( 'NONE', *, *, #236, .F. ) ;
#485 = DIRECTION ( 'NONE',  ( 0.000000000000000000, 0.000000000000000000, 1.000000000000000000 ) ) ;
#486 = CARTESIAN_POINT ( 'NONE',  ( 2.000000000000000000, 5.043807145043624374, -69.91116789747772486 ) ) ;
#487 = DIRECTION ( 'NONE',  ( 1.000000000000000000, 0.000000000000000000, 0.000000000000000000 ) ) ;
#488 = CARTESIAN_POINT ( 'NONE',  ( 2.000000000000000000, 63.17976212419990389, -18.99951859999000803 ) ) ;
#489 = VERTEX_POINT ( 'NONE', #118 ) ;
#490 = ADVANCED_FACE ( 'NONE', ( #665 ), #16, .F. ) ;
#491 = ADVANCED_FACE ( 'NONE', ( #674 ), #294, .T. ) ;
#492 = VECTOR ( 'NONE', #247, 1000.000000000000000 ) ;
#493 = DIRECTION ( 'NONE',  ( -1.000000000000000000, 0.000000000000000000, 0.000000000000000000 ) ) ;
#494 = AXIS2_PLACEMENT_3D ( 'NONE', #584, #337, #98 ) ;
#495 = DIRECTION ( 'NONE',  ( -1.000000000000000000, -0.000000000000000000, -0.000000000000000000 ) ) ;
#496 = CARTESIAN_POINT ( 'NONE',  ( 2.000000000000000000, -0.9999999999999956701, -65.94440119602144534 ) ) ;
#497 = UNCERTAINTY_MEASURE_WITH_UNIT (LENGTH_MEASURE( 1.000000000000000082E-05 ), #530, 'distance_accuracy_value', 'NONE');
#498 = CARTESIAN_POINT ( 'NONE',  ( 3.000000000000000000, 2.000000000000002665, -65.94440119602155903 ) ) ;
#499 = EDGE_CURVE ( 'NONE', #382, #270, #378, .T. ) ;
#500 = CARTESIAN_POINT ( 'NONE',  ( 2.000000000000000000, 63.95621925950744924, -16.10174112112279943 ) ) ;
#501 = AXIS2_PLACEMENT_3D ( 'NONE', #178, #296, #452 ) ;
#502 = VECTOR ( 'NONE', #151, 1000.000000000000000 ) ;
#503 = DIRECTION ( 'NONE',  ( 0.000000000000000000, -0.2588190451025213501, -0.9659258262890682012 ) ) ;
#504 = DIRECTION ( 'NONE',  ( -1.000000000000000000, -0.000000000000000000, -0.000000000000000000 ) ) ;
#505 = VECTOR ( 'NONE', #464, 1000.000000000000000 ) ;
#506 = DIRECTION ( 'NONE',  ( 0.000000000000000000, 0.000000000000000000, -1.000000000000000000 ) ) ;
#507 = EDGE_LOOP ( 'NONE', ( #615, #43, #338, #154 ) ) ;
#508 = LINE ( 'NONE', #516, #73 ) ;
#509 = VERTEX_POINT ( 'NONE', #604 ) ;
#510 = CARTESIAN_POINT ( 'NONE',  ( 2.000000000000000000, 2.000000000000002665, -65.94440119602155903 ) ) ;
#511 = LINE ( 'NONE', #644, #551 ) ;
#512 = VECTOR ( 'NONE', #650, 1000.000000000000000 ) ;
#513 = ORIENTED_EDGE ( 'NONE', *, *, #499, .F. ) ;
#514 = DIRECTION ( 'NONE',  ( 1.000000000000000000, 0.000000000000000000, 0.000000000000000000 ) ) ;
#515 = ORIENTED_EDGE ( 'NONE', *, *, #350, .F. ) ;
#516 = CARTESIAN_POINT ( 'NONE',  ( 3.000000000000000000, 3.294095225512654324, 2.223178385762914822 ) ) ;
#517 = EDGE_LOOP ( 'NONE', ( #611, #326, #589, #484 ) ) ;
#518 = EDGE_CURVE ( 'NONE', #430, #87, #226, .T. ) ;
#519 = ORIENTED_EDGE ( 'NONE', *, *, #136, .F. ) ;
#520 = ADVANCED_FACE ( 'NONE', ( #127 ), #76, .T. ) ;
#521 = CARTESIAN_POINT ( 'NONE',  ( 3.000000000000000000, 63.17976212419990389, -18.99951859999000803 ) ) ;
#522 = ORIENTED_EDGE ( 'NONE', *, *, #220, .T. ) ;
#523 = CARTESIAN_POINT ( 'NONE',  ( 0.000000000000000000, 3.826284287026179953, -68.32446121689525853 ) ) ;
#524 = MECHANICAL_DESIGN_GEOMETRIC_PRESENTATION_REPRESENTATION (  '', ( #71 ), #256 ) ;
#525 = AXIS2_PLACEMENT_3D ( 'NONE', #146, #164, #45 ) ;
#526 = DIRECTION ( 'NONE',  ( 0.000000000000000000, 0.000000000000000000, 1.000000000000000000 ) ) ;
#527 = ORIENTED_EDGE ( 'NONE', *, *, #136, .T. ) ;
#528 = ORIENTED_EDGE ( 'NONE', *, *, #545, .F. ) ;
#529 = CARTESIAN_POINT ( 'NONE',  ( 3.000000000000000000, 63.17976212419990389, -18.99951859999000803 ) ) ;
#530 =( LENGTH_UNIT ( ) NAMED_UNIT ( * ) SI_UNIT ( .MILLI., .METRE. ) );
#531 = AXIS2_PLACEMENT_3D ( 'NONE', #510, #22, #245 ) ;
#532 = EDGE_LOOP ( 'NONE', ( #207, #330, #135, #264 ) ) ;
#533 = EDGE_CURVE ( 'NONE', #158, #460, #126, .T. ) ;
#534 = FACE_OUTER_BOUND ( 'NONE', #335, .T. ) ;
#535 = SURFACE_STYLE_USAGE ( .BOTH. , #437 ) ;
#536 = CARTESIAN_POINT ( 'NONE',  ( 0.000000000000000000, 2.000000000000000000, -2.606450745682413306 ) ) ;
#537 = EDGE_LOOP ( 'NONE', ( #108, #248 ) ) ;
#538 = LINE ( 'NONE', #636, #502 ) ;
#539 = CIRCLE ( 'NONE', #230, 1.250000000000001110 ) ;
#540 = AXIS2_PLACEMENT_3D ( 'NONE', #281, #591, #56 ) ;
#541 = DIRECTION ( 'NONE',  ( -1.000000000000000000, -0.000000000000000000, -0.000000000000000000 ) ) ;
#542 = ORIENTED_EDGE ( 'NONE', *, *, #686, .F. ) ;
#543 = CARTESIAN_POINT ( 'NONE',  ( 0.000000000000000000, 2.000000000000002665, -67.19440119602155903 ) ) ;
#544 = CARTESIAN_POINT ( 'NONE',  ( 3.000000000000000000, 63.17976212419990389, -17.74951859999000803 ) ) ;
#545 = EDGE_CURVE ( 'NONE', #428, #572, #561, .T. ) ;
#546 = AXIS2_PLACEMENT_3D ( 'NONE', #304, #570, #144 ) ;
#547 = FACE_OUTER_BOUND ( 'NONE', #441, .T. ) ;
#548 = CARTESIAN_POINT ( 'NONE',  ( 3.000000000000000000, -2.999999999999997335, -2.606450745682428849 ) ) ;
#549 = CIRCLE ( 'NONE', #240, 1.250000000000001110 ) ;
#550 = FACE_OUTER_BOUND ( 'NONE', #586, .T. ) ;
#551 = VECTOR ( 'NONE', #49, 1000.000000000000000 ) ;
#552 = AXIS2_PLACEMENT_3D ( 'NONE', #536, #487, #167 ) ;
#553 = CARTESIAN_POINT ( 'NONE',  ( 0.000000000000000000, -0.9999999999999974465, -2.606450745682422632 ) ) ;
#554 = PRODUCT_CONTEXT ( 'NONE', #397, 'mechanical' ) ;
#555 = DIRECTION ( 'NONE',  ( 0.000000000000000000, 1.000000000000000000, 0.000000000000000000 ) ) ;
#556 = CARTESIAN_POINT ( 'NONE',  ( 2.000000000000000000, 2.776457135307563995, 0.2913267331847912422 ) ) ;
#557 = DIRECTION ( 'NONE',  ( -1.000000000000000000, -0.000000000000000000, -0.000000000000000000 ) ) ;
#558 = CIRCLE ( 'NONE', #258, 1.250000000000001110 ) ;
#559 = CARTESIAN_POINT ( 'NONE',  ( 2.000000000000000000, -2.999999999999998224, -65.94440119602144534 ) ) ;
#560 = EDGE_CURVE ( 'NONE', #19, #430, #316, .T. ) ;
#561 = CIRCLE ( 'NONE', #421, 5.000000000000000888 ) ;
#562 = CARTESIAN_POINT ( 'NONE',  ( 2.000000000000000000, 3.294095225512654324, 2.223178385762914822 ) ) ;
#563 = ORIENTED_EDGE ( 'NONE', *, *, #334, .T. ) ;
#564 = DIRECTION ( 'NONE',  ( -1.000000000000000000, -0.000000000000000000, -0.000000000000000000 ) ) ;
#565 = DIRECTION ( 'NONE',  ( 0.000000000000000000, 0.000000000000000000, 1.000000000000000000 ) ) ;
#566 = ORIENTED_EDGE ( 'NONE', *, *, #393, .T. ) ;
#567 = AXIS2_PLACEMENT_3D ( 'NONE', #113, #557, #656 ) ;
#568 = CARTESIAN_POINT ( 'NONE',  ( 3.000000000000000000, 63.17976212419990389, -18.99951859999000803 ) ) ;
#569 = ORIENTED_EDGE ( 'NONE', *, *, #467, .T. ) ;
#570 = DIRECTION ( 'NONE',  ( 1.000000000000000000, 0.000000000000000000, 0.000000000000000000 ) ) ;
#571 = FACE_BOUND ( 'NONE', #141, .T. ) ;
#572 = VERTEX_POINT ( 'NONE', #374 ) ;
#573 = EDGE_LOOP ( 'NONE', ( #133, #101, #625, #370, #278 ) ) ;
#574 = DIRECTION ( 'NONE',  ( 0.000000000000000000, 0.000000000000000000, -1.000000000000000000 ) ) ;
#575 = ORIENTED_EDGE ( 'NONE', *, *, #183, .F. ) ;
#576 = CYLINDRICAL_SURFACE ( 'NONE', #359, 1.250000000000001110 ) ;
#577 = ORIENTED_EDGE ( 'NONE', *, *, #343, .F. ) ;
#578 = AXIS2_PLACEMENT_3D ( 'NONE', #470, #610, #358 ) ;
#579 = EDGE_CURVE ( 'NONE', #260, #19, #131, .T. ) ;
#580 = AXIS2_PLACEMENT_3D ( 'NONE', #77, #564, #184 ) ;
#581 = LINE ( 'NONE', #107, #320 ) ;
#582 = EDGE_LOOP ( 'NONE', ( #37, #416, #388, #403 ) ) ;
#583 = ORIENTED_EDGE ( 'NONE', *, *, #399, .T. ) ;
#584 = CARTESIAN_POINT ( 'NONE',  ( 3.000000000000000000, 63.17976212419990389, -18.99951859999000803 ) ) ;
#585 = ORIENTED_EDGE ( 'NONE', *, *, #4, .F. ) ;
#586 = EDGE_LOOP ( 'NONE', ( #409, #412, #357, #191 ) ) ;
#587 = LINE ( 'NONE', #277, #231 ) ;
#588 = CARTESIAN_POINT ( 'NONE',  ( 3.000000000000000000, 63.17976212419990389, -20.24951859999001158 ) ) ;
#589 = ORIENTED_EDGE ( 'NONE', *, *, #139, .T. ) ;
#590 = CIRCLE ( 'NONE', #387, 5.000000000000004441 ) ;
#591 = DIRECTION ( 'NONE',  ( 1.000000000000000000, 0.000000000000000000, 0.000000000000000000 ) ) ;
#592 = COLOUR_RGB ( '',0.7921568627450980005, 0.8196078431372548767, 0.9333333333333333481 ) ;
#593 = ADVANCED_FACE ( 'NONE', ( #253 ), #576, .F. ) ;
#594 = CIRCLE ( 'NONE', #64, 1.250000000000000222 ) ;
#595 = DIRECTION ( 'NONE',  ( 0.000000000000000000, 0.000000000000000000, 1.000000000000000000 ) ) ;
#596 = EDGE_CURVE ( 'NONE', #428, #260, #27, .T. ) ;
#597 = VECTOR ( 'NONE', #495, 1000.000000000000000 ) ;
#598 = CYLINDRICAL_SURFACE ( 'NONE', #567, 4.999999999999999112 ) ;
#599 = CARTESIAN_POINT ( 'NONE',  ( 3.000000000000000000, 2.000000000000000000, -2.606450745682413306 ) ) ;
#600 = PRODUCT_RELATED_PRODUCT_CATEGORY ( 'part', '', ( #172 ) ) ;
#601 = DIRECTION ( 'NONE',  ( 0.000000000000000000, 0.2588190451025193517, 0.9659258262890687563 ) ) ;
#602 = DIRECTION ( 'NONE',  ( 0.000000000000000000, -2.738837401025378216E-17, 1.000000000000000000 ) ) ;
#603 = CARTESIAN_POINT ( 'NONE',  ( 2.000000000000000000, -0.9999999999999974465, -2.606450745682413306 ) ) ;
#604 = CARTESIAN_POINT ( 'NONE',  ( 0.000000000000000000, 2.000000000000000000, -3.856450745682413306 ) ) ;
#605 = CARTESIAN_POINT ( 'NONE',  ( 3.000000000000000000, 64.47385734971248894, -14.16988946854466036 ) ) ;
#606 = VECTOR ( 'NONE', #696, 1000.000000000000000 ) ;
#607 = AXIS2_PLACEMENT_3D ( 'NONE', #488, #156, #574 ) ;
#608 = EDGE_CURVE ( 'NONE', #145, #572, #475, .T. ) ;
#609 = EDGE_LOOP ( 'NONE', ( #627, #563, #182, #78, #680, #196, #303 ) ) ;
#610 = DIRECTION ( 'NONE',  ( 1.000000000000000000, 0.000000000000000000, 0.000000000000000000 ) ) ;
#611 = ORIENTED_EDGE ( 'NONE', *, *, #518, .T. ) ;
#612 = DIRECTION ( 'NONE',  ( 0.000000000000000000, -0.6087614290087237645, 0.7933533402912328336 ) ) ;
#613 = EDGE_LOOP ( 'NONE', ( #92, #122 ) ) ;
#614 = CARTESIAN_POINT ( 'NONE',  ( 0.000000000000000000, 2.000000000000000000, -2.606450745682413306 ) ) ;
#615 = ORIENTED_EDGE ( 'NONE', *, *, #266, .T. ) ;
#616 = DIRECTION ( 'NONE',  ( 0.000000000000000000, 0.000000000000000000, 1.000000000000000000 ) ) ;
#617 = ORIENTED_EDGE ( 'NONE', *, *, #125, .F. ) ;
#618 = EDGE_CURVE ( 'NONE', #87, #373, #628, .T. ) ;
#619 = DIRECTION ( 'NONE',  ( -1.000000000000000000, -0.000000000000000000, -0.000000000000000000 ) ) ;
#620 = ORIENTED_EDGE ( 'NONE', *, *, #655, .F. ) ;
#621 = AXIS2_PLACEMENT_3D ( 'NONE', #496, #6, #355 ) ;
#622 = TOROIDAL_SURFACE ( 'NONE', #354, 3.000000000000000888, 2.000000000000000000 ) ;
#623 = CARTESIAN_POINT ( 'NONE',  ( 3.000000000000000000, -2.999999999999998224, -65.94440119602144534 ) ) ;
#624 = ORIENTED_EDGE ( 'NONE', *, *, #533, .F. ) ;
#625 = ORIENTED_EDGE ( 'NONE', *, *, #228, .T. ) ;
#626 = FACE_BOUND ( 'NONE', #613, .T. ) ;
#627 = ORIENTED_EDGE ( 'NONE', *, *, #309, .T. ) ;
#628 = LINE ( 'NONE', #523, #169 ) ;
#629 = EDGE_LOOP ( 'NONE', ( #466, #410, #519, #435, #97, #50, #23 ) ) ;
#630 = DIRECTION ( 'NONE',  ( -1.000000000000000000, -0.000000000000000000, -0.000000000000000000 ) ) ;
#631 = DIRECTION ( 'NONE',  ( 1.000000000000000000, 0.000000000000000000, 0.000000000000000000 ) ) ;
#632 = ORIENTED_EDGE ( 'NONE', *, *, #236, .T. ) ;
#633 = ADVANCED_FACE ( 'NONE', ( #140 ), #259, .F. ) ;
#634 = AXIS2_PLACEMENT_3D ( 'NONE', #521, #667, #181 ) ;
#635 = AXIS2_PLACEMENT_3D ( 'NONE', #529, #692, #485 ) ;
#636 = CARTESIAN_POINT ( 'NONE',  ( 3.000000000000000000, 2.000000000000000000, -3.856450745682413306 ) ) ;
#637 = CARTESIAN_POINT ( 'NONE',  ( 3.000000000000000000, -2.999999999999998224, -65.94440119602144534 ) ) ;
#638 = DIRECTION ( 'NONE',  ( -1.000000000000000000, -0.000000000000000000, -0.000000000000000000 ) ) ;
#639 = ORIENTED_EDGE ( 'NONE', *, *, #280, .T. ) ;
#640 = CARTESIAN_POINT ( 'NONE',  ( 3.000000000000000000, 2.000000000000000000, -1.356450745682412862 ) ) ;
#641 = DIRECTION ( 'NONE',  ( -1.000000000000000000, -0.000000000000000000, -0.000000000000000000 ) ) ;
#642 = FACE_OUTER_BOUND ( 'NONE', #213, .T. ) ;
#643 = ORIENTED_EDGE ( 'NONE', *, *, #422, .F. ) ;
#644 = CARTESIAN_POINT ( 'NONE',  ( 0.000000000000000000, -0.9999999999999974465, -2.606450745682428849 ) ) ;
#645 = EDGE_CURVE ( 'NONE', #128, #321, #51, .T. ) ;
#646 = ORIENTED_EDGE ( 'NONE', *, *, #422, .T. ) ;
#647 = CIRCLE ( 'NONE', #501, 4.999999999999999112 ) ;
#648 = AXIS2_PLACEMENT_3D ( 'NONE', #433, #688, #526 ) ;
#649 = ORIENTED_EDGE ( 'NONE', *, *, #401, .F. ) ;
#650 = DIRECTION ( 'NONE',  ( -1.000000000000000000, -0.000000000000000000, -0.000000000000000000 ) ) ;
#651 = PRODUCT_DEFINITION_SHAPE ( 'NONE', 'NONE',  #20 ) ;
#652 = CARTESIAN_POINT ( 'NONE',  ( 3.000000000000000000, 3.294095225512654324, 2.223178385762914822 ) ) ;
#653 = AXIS2_PLACEMENT_3D ( 'NONE', #352, #298, #612 ) ;
#654 = FACE_BOUND ( 'NONE', #252, .T. ) ;
#655 = EDGE_CURVE ( 'NONE', #246, #26, #340, .T. ) ;
#656 = DIRECTION ( 'NONE',  ( 0.000000000000000000, 0.000000000000000000, 1.000000000000000000 ) ) ;
#657 = AXIS2_PLACEMENT_3D ( 'NONE', #689, #631, #377 ) ;
#658 = DIRECTION ( 'NONE',  ( -1.000000000000000000, -0.000000000000000000, -0.000000000000000000 ) ) ;
#659 = AXIS2_PLACEMENT_3D ( 'NONE', #233, #661, #239 ) ;
#660 = DIRECTION ( 'NONE',  ( 0.000000000000000000, -0.9659258262890680902, 0.2588190451025213501 ) ) ;
#661 = DIRECTION ( 'NONE',  ( -1.000000000000000000, 0.000000000000000000, 0.000000000000000000 ) ) ;
#662 = EDGE_CURVE ( 'NONE', #675, #333, #112, .T. ) ;
#663 = DIRECTION ( 'NONE',  ( -1.000000000000000000, -0.000000000000000000, -0.000000000000000000 ) ) ;
#664 = ADVANCED_FACE ( 'NONE', ( #697 ), #210, .T. ) ;
#665 = FACE_OUTER_BOUND ( 'NONE', #28, .T. ) ;
#666 = ORIENTED_EDGE ( 'NONE', *, *, #165, .F. ) ;
#667 = DIRECTION ( 'NONE',  ( -1.000000000000000000, -0.000000000000000000, -0.000000000000000000 ) ) ;
#668 = AXIS2_PLACEMENT_3D ( 'NONE', #426, #641, #205 ) ;
#669 = ORIENTED_EDGE ( 'NONE', *, *, #467, .F. ) ;
#670 = CIRCLE ( 'NONE', #9, 2.999999999999999112 ) ;
#671 = VERTEX_POINT ( 'NONE', #548 ) ;
#672 = FACE_OUTER_BOUND ( 'NONE', #582, .T. ) ;
#673 = ORIENTED_EDGE ( 'NONE', *, *, #79, .T. ) ;
#674 = FACE_OUTER_BOUND ( 'NONE', #507, .T. ) ;
#675 = VERTEX_POINT ( 'NONE', #214 ) ;
#676 = ADVANCED_FACE ( 'NONE', ( #171 ), #687, .T. ) ;
#677 = CARTESIAN_POINT ( 'NONE',  ( 0.000000000000000000, 2.000000000000002665, -65.94440119602155903 ) ) ;
#678 = ORIENTED_EDGE ( 'NONE', *, *, #560, .F. ) ;
#679 = CARTESIAN_POINT ( 'NONE',  ( 3.000000000000000000, 66.22356926924346965, -22.96628530144620939 ) ) ;
#680 = ORIENTED_EDGE ( 'NONE', *, *, #655, .T. ) ;
#681 = CARTESIAN_POINT ( 'NONE',  ( 3.000000000000000000, 3.294095225512654324, 2.223178385762914822 ) ) ;
#682 = AXIS2_PLACEMENT_3D ( 'NONE', #204, #91, #700 ) ;
#683 = DIRECTION ( 'NONE',  ( -1.000000000000000000, 0.000000000000000000, 0.000000000000000000 ) ) ;
#684 = ORIENTED_EDGE ( 'NONE', *, *, #90, .T. ) ;
#685 = EDGE_LOOP ( 'NONE', ( #104, #192, #103, #179 ) ) ;
#686 = EDGE_CURVE ( 'NONE', #671, #84, #704, .T. ) ;
#687 = TOROIDAL_SURFACE ( 'NONE', #391, 2.999999999999999112, 2.000000000000000000 ) ;
#688 = DIRECTION ( 'NONE',  ( -1.000000000000000000, -0.000000000000000000, -0.000000000000000000 ) ) ;
#689 = CARTESIAN_POINT ( 'NONE',  ( 2.000000000000000000, 2.000000000000000000, -2.606450745682413306 ) ) ;
#690 = ADVANCED_FACE ( 'NONE', ( #284, #654, #5, #394 ), #329, .F. ) ;
#691 = ORIENTED_EDGE ( 'NONE', *, *, #209, .T. ) ;
#692 = DIRECTION ( 'NONE',  ( -1.000000000000000000, 0.000000000000000000, 0.000000000000000000 ) ) ;
#693 = LINE ( 'NONE', #637, #162 ) ;
#694 = ORIENTED_EDGE ( 'NONE', *, *, #299, .F. ) ;
#695 = CARTESIAN_POINT ( 'NONE',  ( 0.000000000000000000, 3.826284287026178177, -68.32446121689525853 ) ) ;
#696 = DIRECTION ( 'NONE',  ( -1.000000000000000000, -0.000000000000000000, -0.000000000000000000 ) ) ;
#697 = FACE_OUTER_BOUND ( 'NONE', #364, .T. ) ;
#698 = ORIENTED_EDGE ( 'NONE', *, *, #290, .F. ) ;
#699 = ADVANCED_FACE ( 'NONE', ( #642 ), #153, .F. ) ;
#700 = DIRECTION ( 'NONE',  ( 0.000000000000000000, 1.734723475976805517E-15, -1.000000000000000000 ) ) ;
#701 = LINE ( 'NONE', #381, #365 ) ;
#702 = DIRECTION ( 'NONE',  ( 0.000000000000000000, 0.000000000000000000, 1.000000000000000000 ) ) ;
#703 = SURFACE_STYLE_FILL_AREA ( #221 ) ;
#704 = LINE ( 'NONE', #431, #512 ) ;
#705 = CIRCLE ( 'NONE', #222, 2.000000000000003109 ) ;
ENDSEC;
END-ISO-10303-21;
