ISO-10303-21;
HEADER;
FILE_DESCRIPTION (( 'STEP AP214' ),
    '1' );
FILE_NAME ('End Cap Right.STEP',
    '2026-10-03T16:34:01',
    ( '' ),
    ( '' ),
    'SwSTEP 2.0',
    'SolidWorks 2026',
    '' );
FILE_SCHEMA (( 'AUTOMOTIVE_DESIGN' ));
ENDSEC;

DATA;
#1 = ORIENTED_EDGE ( 'NONE', *, *, #87, .T. ) ;
#2 = AXIS2_PLACEMENT_3D ( 'NONE', #318, #258, #414 ) ;
#3 = CARTESIAN_POINT ( 'NONE',  ( 1.000000000000000000, 66.22356926924346965, -22.96628530144620939 ) ) ;
#4 = DIRECTION ( 'NONE',  ( -9.882332044117026626E-15, 0.9659258262890657587, -0.2588190451025308980 ) ) ;
#5 = ORIENTED_EDGE ( 'NONE', *, *, #614, .F. ) ;
#6 = DIRECTION ( 'NONE',  ( -1.000000000000000000, -0.000000000000000000, -0.000000000000000000 ) ) ;
#7 = CARTESIAN_POINT ( 'NONE',  ( 0.000000000000000000, 2.000000000000002665, -65.94440119602155903 ) ) ;
#8 = EDGE_CURVE ( 'NONE', #280, #646, #510, .T. ) ;
#9 = VERTEX_POINT ( 'NONE', #677 ) ;
#10 = DIRECTION ( 'NONE',  ( 1.000000000000000000, 0.000000000000000000, 0.000000000000000000 ) ) ;
#11 = CARTESIAN_POINT ( 'NONE',  ( 3.000000000000000000, 2.000000000000002665, -68.94440119602155903 ) ) ;
#12 = CIRCLE ( 'NONE', #643, 5.000000000000000888 ) ;
#13 = TOROIDAL_SURFACE ( 'NONE', #477, 3.000000000000000888, 2.000000000000000000 ) ;
#14 = VERTEX_POINT ( 'NONE', #527 ) ;
#15 =( NAMED_UNIT ( * ) PLANE_ANGLE_UNIT ( ) SI_UNIT ( $, .RADIAN. ) );
#16 = DIRECTION ( 'NONE',  ( -1.000000000000000000, -0.000000000000000000, -0.000000000000000000 ) ) ;
#17 = VERTEX_POINT ( 'NONE', #463 ) ;
#18 = EDGE_CURVE ( 'NONE', #586, #365, #276, .T. ) ;
#19 = FACE_BOUND ( 'NONE', #380, .T. ) ;
#20 = CIRCLE ( 'NONE', #197, 1.250000000000001110 ) ;
#21 = CARTESIAN_POINT ( 'NONE',  ( 3.000000000000000000, 63.17976212419990389, -18.99951859999000803 ) ) ;
#22 = ORIENTED_EDGE ( 'NONE', *, *, #396, .F. ) ;
#23 = DIRECTION ( 'NONE',  ( 0.000000000000000000, 0.000000000000000000, -1.000000000000000000 ) ) ;
#24 = AXIS2_PLACEMENT_3D ( 'NONE', #201, #353, #249 ) ;
#25 = CIRCLE ( 'NONE', #659, 1.250000000000001110 ) ;
#26 = EDGE_LOOP ( 'NONE', ( #159, #117 ) ) ;
#27 = DIRECTION ( 'NONE',  ( 0.000000000000000000, 0.000000000000000000, -1.000000000000000000 ) ) ;
#28 = CARTESIAN_POINT ( 'NONE',  ( 0.000000000000000000, 5.043807145043624374, -69.91116789747772486 ) ) ;
#29 = ORIENTED_EDGE ( 'NONE', *, *, #522, .T. ) ;
#30 = CARTESIAN_POINT ( 'NONE',  ( 3.000000000000000000, 63.17976212419990389, -17.74951859999000803 ) ) ;
#31 = ADVANCED_FACE ( 'NONE', ( #141 ), #256, .T. ) ;
#32 = AXIS2_PLACEMENT_3D ( 'NONE', #254, #680, #203 ) ;
#33 = EDGE_CURVE ( 'NONE', #374, #17, #516, .T. ) ;
#34 = VERTEX_POINT ( 'NONE', #145 ) ;
#35 = DIRECTION ( 'NONE',  ( 0.000000000000000000, -1.000000000000000000, 0.000000000000000000 ) ) ;
#36 = ORIENTED_EDGE ( 'NONE', *, *, #243, .T. ) ;
#37 = AXIS2_PLACEMENT_3D ( 'NONE', #94, #409, #314 ) ;
#38 = PRODUCT_CONTEXT ( 'NONE', #488, 'mechanical' ) ;
#39 = CIRCLE ( 'NONE', #432, 1.250000000000001110 ) ;
#40 = CARTESIAN_POINT ( 'NONE',  ( 0.000000000000000000, 63.17976212419990389, -18.99951859999000803 ) ) ;
#41 = CARTESIAN_POINT ( 'NONE',  ( 1.000000000000000000, -0.9999999999999956701, -65.94440119602144534 ) ) ;
#42 = ADVANCED_FACE ( 'NONE', ( #358 ), #571, .F. ) ;
#43 = CARTESIAN_POINT ( 'NONE',  ( 1.000000000000000000, -0.9999999999999974465, -2.606450745682428849 ) ) ;
#44 = ORIENTED_EDGE ( 'NONE', *, *, #199, .T. ) ;
#45 = DIRECTION ( 'NONE',  ( 1.000000000000000000, 0.000000000000000000, 0.000000000000000000 ) ) ;
#46 = CIRCLE ( 'NONE', #454, 1.250000000000000222 ) ;
#47 = ORIENTED_EDGE ( 'NONE', *, *, #18, .F. ) ;
#48 = CARTESIAN_POINT ( 'NONE',  ( 1.000000000000000000, 66.22356926924346965, -22.96628530144621294 ) ) ;
#49 = EDGE_LOOP ( 'NONE', ( #529, #391 ) ) ;
#50 = DIRECTION ( 'NONE',  ( 1.000000000000000000, 0.000000000000000000, 0.000000000000000000 ) ) ;
#51 = LINE ( 'NONE', #291, #151 ) ;
#52 = UNCERTAINTY_MEASURE_WITH_UNIT (LENGTH_MEASURE( 1.000000000000000082E-05 ), #505, 'distance_accuracy_value', 'NONE');
#53 = ADVANCED_FACE ( 'NONE', ( #442 ), #595, .T. ) ;
#54 = VECTOR ( 'NONE', #302, 1000.000000000000000 ) ;
#55 = EDGE_CURVE ( 'NONE', #668, #120, #51, .T. ) ;
#56 = ORIENTED_EDGE ( 'NONE', *, *, #189, .T. ) ;
#57 = VECTOR ( 'NONE', #252, 1000.000000000000000 ) ;
#58 = CARTESIAN_POINT ( 'NONE',  ( 3.000000000000000000, 64.47385734971248894, -14.16988946854466036 ) ) ;
#59 = FACE_OUTER_BOUND ( 'NONE', #222, .T. ) ;
#60 = VERTEX_POINT ( 'NONE', #273 ) ;
#61 = DIRECTION ( 'NONE',  ( 0.000000000000000000, 0.000000000000000000, -1.000000000000000000 ) ) ;
#62 = DIRECTION ( 'NONE',  ( 0.000000000000000000, 0.000000000000000000, 1.000000000000000000 ) ) ;
#63 = ORIENTED_EDGE ( 'NONE', *, *, #415, .F. ) ;
#64 = CIRCLE ( 'NONE', #613, 1.999999999999999778 ) ;
#65 = ADVANCED_FACE ( 'NONE', ( #438 ), #284, .T. ) ;
#66 = FACE_BOUND ( 'NONE', #161, .T. ) ;
#67 = DIRECTION ( 'NONE',  ( 0.000000000000000000, 0.2588190451025308425, 0.9659258262890656477 ) ) ;
#68 = ORIENTED_EDGE ( 'NONE', *, *, #122, .T. ) ;
#69 = DIRECTION ( 'NONE',  ( 1.000000000000000000, 0.000000000000000000, 0.000000000000000000 ) ) ;
#70 = DIRECTION ( 'NONE',  ( -0.000000000000000000, 0.7933533402912347210, 0.6087614290087213220 ) ) ;
#71 = ORIENTED_EDGE ( 'NONE', *, *, #396, .T. ) ;
#72 = DIRECTION ( 'NONE',  ( 0.000000000000000000, 0.000000000000000000, -1.000000000000000000 ) ) ;
#73 = EDGE_CURVE ( 'NONE', #277, #304, #700, .T. ) ;
#74 = AXIS2_PLACEMENT_3D ( 'NONE', #669, #602, #507 ) ;
#75 = VERTEX_POINT ( 'NONE', #11 ) ;
#76 =( NAMED_UNIT ( * ) SI_UNIT ( $, .STERADIAN. ) SOLID_ANGLE_UNIT ( ) );
#77 = DIRECTION ( 'NONE',  ( 0.000000000000000000, 0.000000000000000000, -1.000000000000000000 ) ) ;
#78 = VERTEX_POINT ( 'NONE', #119 ) ;
#79 = FACE_OUTER_BOUND ( 'NONE', #192, .T. ) ;
#80 = DIRECTION ( 'NONE',  ( 0.000000000000000000, 0.9659258262890680902, -0.2588190451025213501 ) ) ;
#81 = VERTEX_POINT ( 'NONE', #588 ) ;
#82 = MECHANICAL_DESIGN_GEOMETRIC_PRESENTATION_REPRESENTATION (  '', ( #690 ), #150 ) ;
#83 = CARTESIAN_POINT ( 'NONE',  ( 1.000000000000000000, 2.000000000000000000, -2.606450745682413306 ) ) ;
#84 = DIRECTION ( 'NONE',  ( -0.000000000000000000, 2.738837401025377908E-17, -1.000000000000000000 ) ) ;
#85 =( GEOMETRIC_REPRESENTATION_CONTEXT ( 3 ) GLOBAL_UNCERTAINTY_ASSIGNED_CONTEXT ( ( #225 ) ) GLOBAL_UNIT_ASSIGNED_CONTEXT ( ( #460, #15, #76 ) ) REPRESENTATION_CONTEXT ( 'NONE', 'WORKASPACE' ) );
#86 = EDGE_LOOP ( 'NONE', ( #466, #71, #696, #333 ) ) ;
#87 = EDGE_CURVE ( 'NONE', #646, #628, #92, .T. ) ;
#88 = LINE ( 'NONE', #194, #627 ) ;
#89 = CARTESIAN_POINT ( 'NONE',  ( 0.000000000000000000, 63.17976212419990389, -18.99951859999000803 ) ) ;
#90 = DIRECTION ( 'NONE',  ( 0.000000000000000000, -1.000000000000000000, -2.738837401025377908E-17 ) ) ;
#91 = APPLICATION_CONTEXT ( 'automotive_design' ) ;
#92 = CIRCLE ( 'NONE', #485, 1.250000000000001110 ) ;
#93 = ORIENTED_EDGE ( 'NONE', *, *, #207, .F. ) ;
#94 = CARTESIAN_POINT ( 'NONE',  ( 3.000000000000000000, 2.000000000000002665, -65.94440119602155903 ) ) ;
#95 = EDGE_CURVE ( 'NONE', #9, #34, #542, .T. ) ;
#96 = ORIENTED_EDGE ( 'NONE', *, *, #162, .T. ) ;
#97 = APPLICATION_PROTOCOL_DEFINITION ( 'draft international standard', 'automotive_design', 1998, #488 ) ;
#98 = DIRECTION ( 'NONE',  ( 1.000000000000000000, 0.000000000000000000, 0.000000000000000000 ) ) ;
#99 = SHAPE_DEFINITION_REPRESENTATION ( #443, #517 ) ;
#100 = EDGE_CURVE ( 'NONE', #369, #14, #341, .T. ) ;
#101 = DIRECTION ( 'NONE',  ( 0.000000000000000000, -2.738837401025377908E-17, 1.000000000000000000 ) ) ;
#102 = ORIENTED_EDGE ( 'NONE', *, *, #492, .F. ) ;
#103 = CYLINDRICAL_SURFACE ( 'NONE', #158, 2.000000000000000000 ) ;
#104 = EDGE_LOOP ( 'NONE', ( #590, #413, #138, #640 ) ) ;
#105 = FACE_OUTER_BOUND ( 'NONE', #574, .T. ) ;
#106 = ADVANCED_FACE ( 'NONE', ( #288 ), #631, .T. ) ;
#107 = AXIS2_PLACEMENT_3D ( 'NONE', #536, #50, #118 ) ;
#108 = CARTESIAN_POINT ( 'NONE',  ( 0.000000000000000000, 2.000000000000000000, 2.393549254317586250 ) ) ;
#109 = ORIENTED_EDGE ( 'NONE', *, *, #250, .F. ) ;
#110 = CARTESIAN_POINT ( 'NONE',  ( 0.000000000000000000, 2.000000000000000000, -2.606450745682413306 ) ) ;
#111 = CARTESIAN_POINT ( 'NONE',  ( 0.000000000000000000, 2.000000000000002665, -65.94440119602155903 ) ) ;
#112 = ORIENTED_EDGE ( 'NONE', *, *, #87, .F. ) ;
#113 = FACE_OUTER_BOUND ( 'NONE', #397, .T. ) ;
#114 = AXIS2_PLACEMENT_3D ( 'NONE', #165, #648, #172 ) ;
#115 = FACE_OUTER_BOUND ( 'NONE', #491, .T. ) ;
#116 = EDGE_CURVE ( 'NONE', #304, #557, #565, .T. ) ;
#117 = ORIENTED_EDGE ( 'NONE', *, *, #260, .F. ) ;
#118 = DIRECTION ( 'NONE',  ( 0.000000000000000000, 0.000000000000000000, -1.000000000000000000 ) ) ;
#119 = CARTESIAN_POINT ( 'NONE',  ( 0.000000000000000000, 2.000000000000000000, -3.856450745682413306 ) ) ;
#120 = VERTEX_POINT ( 'NONE', #108 ) ;
#121 = CARTESIAN_POINT ( 'NONE',  ( 0.000000000000000000, 2.000000000000002665, -65.94440119602155903 ) ) ;
#122 = EDGE_CURVE ( 'NONE', #374, #686, #153, .T. ) ;
#123 = CARTESIAN_POINT ( 'NONE',  ( 3.000000000000000000, 2.000000000000002665, -65.94440119602155903 ) ) ;
#124 = ORIENTED_EDGE ( 'NONE', *, *, #243, .F. ) ;
#125 = DIRECTION ( 'NONE',  ( 1.000000000000000000, 0.000000000000000000, 0.000000000000000000 ) ) ;
#126 = AXIS2_PLACEMENT_3D ( 'NONE', #584, #279, #62 ) ;
#127 = SURFACE_STYLE_USAGE ( .BOTH. , #679 ) ;
#128 = ORIENTED_EDGE ( 'NONE', *, *, #359, .F. ) ;
#129 = DIRECTION ( 'NONE',  ( 0.000000000000000000, 0.000000000000000000, -1.000000000000000000 ) ) ;
#130 = CARTESIAN_POINT ( 'NONE',  ( 3.000000000000000000, 63.95621925950744924, -16.10174112112279943 ) ) ;
#131 = VECTOR ( 'NONE', #362, 1000.000000000000000 ) ;
#132 = EDGE_CURVE ( 'NONE', #280, #615, #630, .T. ) ;
#133 = AXIS2_PLACEMENT_3D ( 'NONE', #532, #389, #483 ) ;
#134 = VERTEX_POINT ( 'NONE', #541 ) ;
#135 = DIRECTION ( 'NONE',  ( 1.000000000000000000, 0.000000000000000000, 0.000000000000000000 ) ) ;
#136 = AXIS2_PLACEMENT_3D ( 'NONE', #309, #685, #476 ) ;
#137 = LINE ( 'NONE', #509, #245 ) ;
#138 = ORIENTED_EDGE ( 'NONE', *, *, #641, .F. ) ;
#139 = FACE_BOUND ( 'NONE', #205, .T. ) ;
#140 = LINE ( 'NONE', #608, #539 ) ;
#141 = FACE_OUTER_BOUND ( 'NONE', #299, .T. ) ;
#142 = ADVANCED_FACE ( 'NONE', ( #59 ), #233, .F. ) ;
#143 = CARTESIAN_POINT ( 'NONE',  ( 0.000000000000000000, 2.000000000000002665, -64.69440119602155903 ) ) ;
#144 = AXIS2_PLACEMENT_3D ( 'NONE', #398, #135, #23 ) ;
#145 = CARTESIAN_POINT ( 'NONE',  ( 3.000000000000000000, 2.000000000000000000, -1.356450745682412862 ) ) ;
#146 = PLANE ( 'NONE',  #495 ) ;
#147 = ORIENTED_EDGE ( 'NONE', *, *, #218, .T. ) ;
#148 = CARTESIAN_POINT ( 'NONE',  ( 0.000000000000000000, 63.17976212419990389, -18.99951859999000803 ) ) ;
#149 = ADVANCED_FACE ( 'NONE', ( #236 ), #434, .T. ) ;
#150 =( GEOMETRIC_REPRESENTATION_CONTEXT ( 3 ) GLOBAL_UNCERTAINTY_ASSIGNED_CONTEXT ( ( #52 ) ) GLOBAL_UNIT_ASSIGNED_CONTEXT ( ( #505, #461, #455 ) ) REPRESENTATION_CONTEXT ( 'NONE', 'WORKASPACE' ) );
#151 = VECTOR ( 'NONE', #494, 1000.000000000000000 ) ;
#152 = ORIENTED_EDGE ( 'NONE', *, *, #660, .T. ) ;
#153 = CIRCLE ( 'NONE', #355, 2.000000000000002665 ) ;
#154 = CARTESIAN_POINT ( 'NONE',  ( 0.000000000000000000, 0.000000000000000000, 0.000000000000000000 ) ) ;
#155 = CARTESIAN_POINT ( 'NONE',  ( 0.000000000000000000, 2.000000000000002665, -65.94440119602155903 ) ) ;
#156 = CIRCLE ( 'NONE', #445, 4.999999999999999112 ) ;
#157 = CARTESIAN_POINT ( 'NONE',  ( 1.000000000000000000, -2.999999999999998224, -65.94440119602144534 ) ) ;
#158 = AXIS2_PLACEMENT_3D ( 'NONE', #581, #101, #35 ) ;
#159 = ORIENTED_EDGE ( 'NONE', *, *, #670, .F. ) ;
#160 = CARTESIAN_POINT ( 'NONE',  ( 0.000000000000000000, -2.999999999999998224, -65.94440119602144534 ) ) ;
#161 = EDGE_LOOP ( 'NONE', ( #682, #96 ) ) ;
#162 = EDGE_CURVE ( 'NONE', #60, #78, #46, .T. ) ;
#163 = FACE_BOUND ( 'NONE', #465, .T. ) ;
#164 = ADVANCED_FACE ( 'NONE', ( #115 ), #332, .T. ) ;
#165 = CARTESIAN_POINT ( 'NONE',  ( 1.000000000000000000, 65.00604641122602345, -21.37957862086373950 ) ) ;
#166 = ORIENTED_EDGE ( 'NONE', *, *, #533, .F. ) ;
#167 = LINE ( 'NONE', #272, #526 ) ;
#168 = VECTOR ( 'NONE', #656, 1000.000000000000000 ) ;
#169 = CARTESIAN_POINT ( 'NONE',  ( 3.000000000000000000, 66.22356926924346965, -22.96628530144620939 ) ) ;
#170 = ORIENTED_EDGE ( 'NONE', *, *, #492, .T. ) ;
#171 = CARTESIAN_POINT ( 'NONE',  ( 0.000000000000000000, 2.000000000000002665, -65.94440119602155903 ) ) ;
#172 = DIRECTION ( 'NONE',  ( 0.000000000000000000, 0.6087614290087220992, -0.7933533402912341659 ) ) ;
#173 = EDGE_CURVE ( 'NONE', #365, #369, #450, .T. ) ;
#174 = ORIENTED_EDGE ( 'NONE', *, *, #122, .F. ) ;
#175 = DIRECTION ( 'NONE',  ( 0.000000000000000000, -0.7933533402912352761, -0.6087614290087204338 ) ) ;
#176 = VECTOR ( 'NONE', #644, 1000.000000000000000 ) ;
#177 = DIRECTION ( 'NONE',  ( 0.000000000000000000, 0.000000000000000000, -1.000000000000000000 ) ) ;
#178 = ORIENTED_EDGE ( 'NONE', *, *, #691, .T. ) ;
#179 = DIRECTION ( 'NONE',  ( 1.000000000000000000, -0.000000000000000000, -0.000000000000000000 ) ) ;
#180 = VECTOR ( 'NONE', #193, 1000.000000000000000 ) ;
#181 = AXIS2_PLACEMENT_3D ( 'NONE', #681, #577, #694 ) ;
#182 = MANIFOLD_SOLID_BREP ( 'Cut-Extrude1', #638 ) ;
#183 = CARTESIAN_POINT ( 'NONE',  ( 3.000000000000000000, 2.000000000000000000, -2.606450745682413306 ) ) ;
#184 = ORIENTED_EDGE ( 'NONE', *, *, #241, .F. ) ;
#185 = FACE_OUTER_BOUND ( 'NONE', #393, .T. ) ;
#186 = DIRECTION ( 'NONE',  ( 0.000000000000000000, 0.000000000000000000, -1.000000000000000000 ) ) ;
#187 = ORIENTED_EDGE ( 'NONE', *, *, #387, .F. ) ;
#188 = VECTOR ( 'NONE', #559, 1000.000000000000000 ) ;
#189 = EDGE_CURVE ( 'NONE', #538, #231, #458, .T. ) ;
#190 = CARTESIAN_POINT ( 'NONE',  ( 3.000000000000000000, 2.000000000000002665, -64.69440119602155903 ) ) ;
#191 = DIRECTION ( 'NONE',  ( 1.000000000000000000, 0.000000000000000000, 0.000000000000000000 ) ) ;
#192 = EDGE_LOOP ( 'NONE', ( #219, #178, #211, #692 ) ) ;
#193 = DIRECTION ( 'NONE',  ( 1.000000000000000000, -0.000000000000000000, -0.000000000000000000 ) ) ;
#194 = CARTESIAN_POINT ( 'NONE',  ( 0.000000000000000000, 63.17976212419990389, -20.24951859999001158 ) ) ;
#195 = ORIENTED_EDGE ( 'NONE', *, *, #132, .F. ) ;
#196 = CARTESIAN_POINT ( 'NONE',  ( 0.000000000000000000, 2.000000000000000000, -1.356450745682412862 ) ) ;
#197 = AXIS2_PLACEMENT_3D ( 'NONE', #518, #447, #555 ) ;
#198 = CARTESIAN_POINT ( 'NONE',  ( 0.000000000000000000, 66.22356926924346965, -22.96628530144620939 ) ) ;
#199 = EDGE_CURVE ( 'NONE', #120, #14, #451, .T. ) ;
#200 = DIRECTION ( 'NONE',  ( -1.000000000000000000, 0.000000000000000000, 0.000000000000000000 ) ) ;
#201 = CARTESIAN_POINT ( 'NONE',  ( 3.000000000000000000, 2.000000000000000000, -2.606450745682413306 ) ) ;
#202 = CARTESIAN_POINT ( 'NONE',  ( 1.000000000000000000, 3.294095225512654324, 2.223178385762914822 ) ) ;
#203 = DIRECTION ( 'NONE',  ( 0.000000000000000000, 0.000000000000000000, -1.000000000000000000 ) ) ;
#204 = CYLINDRICAL_SURFACE ( 'NONE', #181, 5.000000000000004441 ) ;
#205 = EDGE_LOOP ( 'NONE', ( #567, #112 ) ) ;
#206 = AXIS2_PLACEMENT_3D ( 'NONE', #110, #327, #540 ) ;
#207 = EDGE_CURVE ( 'NONE', #277, #401, #140, .T. ) ;
#208 = DIRECTION ( 'NONE',  ( 1.000000000000000000, 0.000000000000000000, 0.000000000000000000 ) ) ;
#209 = ORIENTED_EDGE ( 'NONE', *, *, #691, .F. ) ;
#210 = LINE ( 'NONE', #636, #131 ) ;
#211 = ORIENTED_EDGE ( 'NONE', *, *, #400, .T. ) ;
#212 = AXIS2_PLACEMENT_3D ( 'NONE', #169, #705, #229 ) ;
#213 = DIRECTION ( 'NONE',  ( 0.000000000000000000, 0.000000000000000000, -1.000000000000000000 ) ) ;
#214 = VECTOR ( 'NONE', #449, 1000.000000000000000 ) ;
#215 = CIRCLE ( 'NONE', #346, 1.250000000000000222 ) ;
#216 = ORIENTED_EDGE ( 'NONE', *, *, #352, .F. ) ;
#217 = DIRECTION ( 'NONE',  ( 0.000000000000000000, 0.000000000000000000, -1.000000000000000000 ) ) ;
#218 = EDGE_CURVE ( 'NONE', #401, #81, #671, .T. ) ;
#219 = ORIENTED_EDGE ( 'NONE', *, *, #162, .F. ) ;
#220 = CYLINDRICAL_SURFACE ( 'NONE', #645, 1.250000000000001110 ) ;
#221 = VECTOR ( 'NONE', #80, 1000.000000000000000 ) ;
#222 = EDGE_LOOP ( 'NONE', ( #470, #166, #248, #560 ) ) ;
#223 = DIRECTION ( 'NONE',  ( -1.000000000000000000, -0.000000000000000000, -0.000000000000000000 ) ) ;
#224 = DIRECTION ( 'NONE',  ( 1.000000000000000000, 0.000000000000000000, 0.000000000000000000 ) ) ;
#225 = UNCERTAINTY_MEASURE_WITH_UNIT (LENGTH_MEASURE( 1.000000000000000082E-05 ), #460, 'distance_accuracy_value', 'NONE');
#226 = ORIENTED_EDGE ( 'NONE', *, *, #471, .F. ) ;
#227 = CYLINDRICAL_SURFACE ( 'NONE', #322, 1.250000000000001110 ) ;
#228 = AXIS2_PLACEMENT_3D ( 'NONE', #549, #232, #425 ) ;
#229 = DIRECTION ( 'NONE',  ( 0.000000000000000000, 0.7933533402912352761, 0.6087614290087204338 ) ) ;
#230 = AXIS2_PLACEMENT_3D ( 'NONE', #155, #412, #472 ) ;
#231 = VERTEX_POINT ( 'NONE', #28 ) ;
#232 = DIRECTION ( 'NONE',  ( -1.000000000000000000, -0.000000000000000000, -0.000000000000000000 ) ) ;
#233 = CYLINDRICAL_SURFACE ( 'NONE', #364, 1.250000000000001110 ) ;
#234 = ORIENTED_EDGE ( 'NONE', *, *, #55, .F. ) ;
#235 = DIRECTION ( 'NONE',  ( 1.000000000000000000, 0.000000000000000000, 0.000000000000000000 ) ) ;
#236 = FACE_OUTER_BOUND ( 'NONE', #548, .T. ) ;
#237 = EDGE_LOOP ( 'NONE', ( #209, #688, #635, #597 ) ) ;
#238 = DIRECTION ( 'NONE',  ( 1.000000000000000000, -0.000000000000000000, -0.000000000000000000 ) ) ;
#239 = DIRECTION ( 'NONE',  ( 0.000000000000000000, 0.9659258262890680902, -0.2588190451025213501 ) ) ;
#240 = VECTOR ( 'NONE', #278, 1000.000000000000000 ) ;
#241 = EDGE_CURVE ( 'NONE', #242, #304, #663, .T. ) ;
#242 = VERTEX_POINT ( 'NONE', #130 ) ;
#243 = EDGE_CURVE ( 'NONE', #277, #371, #566, .T. ) ;
#244 = ORIENTED_EDGE ( 'NONE', *, *, #634, .F. ) ;
#245 = VECTOR ( 'NONE', #84, 1000.000000000000000 ) ;
#246 = CARTESIAN_POINT ( 'NONE',  ( 1.000000000000000000, 2.000000000000002665, -65.94440119602155903 ) ) ;
#247 = AXIS2_PLACEMENT_3D ( 'NONE', #336, #599, #430 ) ;
#248 = ORIENTED_EDGE ( 'NONE', *, *, #625, .T. ) ;
#249 = DIRECTION ( 'NONE',  ( 0.000000000000000000, 0.000000000000000000, -1.000000000000000000 ) ) ;
#250 = EDGE_CURVE ( 'NONE', #557, #586, #137, .T. ) ;
#251 = FILL_AREA_STYLE ('',( #612 ) ) ;
#252 = DIRECTION ( 'NONE',  ( 1.000000000000000000, -0.000000000000000000, -0.000000000000000000 ) ) ;
#253 = DIRECTION ( 'NONE',  ( 1.000000000000000000, -0.000000000000000000, -0.000000000000000000 ) ) ;
#254 = CARTESIAN_POINT ( 'NONE',  ( 1.000000000000000000, 2.000000000000000000, -2.606450745682413306 ) ) ;
#255 = DIRECTION ( 'NONE',  ( 0.000000000000000000, -0.6087614290087168811, 0.7933533402912381627 ) ) ;
#256 = TOROIDAL_SURFACE ( 'NONE', #32, 2.999999999999999112, 2.000000000000000000 ) ;
#257 = ORIENTED_EDGE ( 'NONE', *, *, #100, .F. ) ;
#258 = DIRECTION ( 'NONE',  ( 1.000000000000000000, 0.000000000000000000, 0.000000000000000000 ) ) ;
#259 = ORIENTED_EDGE ( 'NONE', *, *, #73, .T. ) ;
#260 = EDGE_CURVE ( 'NONE', #343, #520, #573, .T. ) ;
#261 = AXIS2_PLACEMENT_3D ( 'NONE', #433, #235, #428 ) ;
#262 = PRODUCT_RELATED_PRODUCT_CATEGORY ( 'part', '', ( #655 ) ) ;
#263 = FACE_OUTER_BOUND ( 'NONE', #593, .T. ) ;
#264 = DIRECTION ( 'NONE',  ( 0.000000000000000000, 0.000000000000000000, -1.000000000000000000 ) ) ;
#265 = DIRECTION ( 'NONE',  ( 1.000000000000000000, 0.000000000000000000, 3.035766082959412415E-15 ) ) ;
#266 = AXIS2_PLACEMENT_3D ( 'NONE', #183, #553, #390 ) ;
#267 = ORIENTED_EDGE ( 'NONE', *, *, #173, .T. ) ;
#268 = CARTESIAN_POINT ( 'NONE',  ( 3.000000000000000000, -2.999999999999995559, -65.94440119602144534 ) ) ;
#269 = EDGE_CURVE ( 'NONE', #134, #520, #88, .T. ) ;
#270 = PRODUCT_DEFINITION_FORMATION_WITH_SPECIFIED_SOURCE ( 'ANY', '', #655, .NOT_KNOWN. ) ;
#271 = DIRECTION ( 'NONE',  ( 1.000000000000000000, 0.000000000000000000, 0.000000000000000000 ) ) ;
#272 = CARTESIAN_POINT ( 'NONE',  ( 3.000000000000000000, 5.043807145043624374, -69.91116789747772486 ) ) ;
#273 = CARTESIAN_POINT ( 'NONE',  ( 0.000000000000000000, 2.000000000000000000, -1.356450745682412862 ) ) ;
#274 = CIRCLE ( 'NONE', #329, 5.000000000000004441 ) ;
#275 = ADVANCED_FACE ( 'NONE', ( #295 ), #424, .T. ) ;
#276 = CIRCLE ( 'NONE', #363, 2.000000000000000000 ) ;
#277 = VERTEX_POINT ( 'NONE', #202 ) ;
#278 = DIRECTION ( 'NONE',  ( -1.000000000000000000, -0.000000000000000000, -0.000000000000000000 ) ) ;
#279 = DIRECTION ( 'NONE',  ( -1.000000000000000000, -0.000000000000000000, -0.000000000000000000 ) ) ;
#280 = VERTEX_POINT ( 'NONE', #143 ) ;
#281 = CIRCLE ( 'NONE', #37, 1.250000000000001110 ) ;
#282 = EDGE_CURVE ( 'NONE', #686, #531, #274, .T. ) ;
#283 = CARTESIAN_POINT ( 'NONE',  ( 1.000000000000000000, -2.999999999999995559, -65.94440119602144534 ) ) ;
#284 = CYLINDRICAL_SURFACE ( 'NONE', #310, 1.999999999999999778 ) ;
#285 = CIRCLE ( 'NONE', #676, 1.250000000000000222 ) ;
#286 = ORIENTED_EDGE ( 'NONE', *, *, #580, .T. ) ;
#287 = CARTESIAN_POINT ( 'NONE',  ( 1.000000000000000000, 2.000000000000002665, -70.94440119602155903 ) ) ;
#288 = FACE_OUTER_BOUND ( 'NONE', #475, .T. ) ;
#289 = ORIENTED_EDGE ( 'NONE', *, *, #311, .F. ) ;
#290 = CARTESIAN_POINT ( 'NONE',  ( 0.000000000000000000, 2.000000000000000000, -2.606450745682413306 ) ) ;
#291 = CARTESIAN_POINT ( 'NONE',  ( 3.000000000000000000, 2.000000000000000000, 2.393549254317586250 ) ) ;
#292 = EDGE_CURVE ( 'NONE', #134, #610, #20, .T. ) ;
#293 = ORIENTED_EDGE ( 'NONE', *, *, #348, .T. ) ;
#294 = LINE ( 'NONE', #453, #180 ) ;
#295 = FACE_OUTER_BOUND ( 'NONE', #554, .T. ) ;
#296 = AXIS2_PLACEMENT_3D ( 'NONE', #489, #385, #331 ) ;
#297 = ORIENTED_EDGE ( 'NONE', *, *, #100, .T. ) ;
#298 = DIRECTION ( 'NONE',  ( -1.000000000000000000, -0.000000000000000000, -0.000000000000000000 ) ) ;
#299 = EDGE_LOOP ( 'NONE', ( #293, #487, #405, #452, #5 ) ) ;
#300 = ADVANCED_FACE ( 'NONE', ( #263 ), #103, .T. ) ;
#301 = DIRECTION ( 'NONE',  ( -1.000000000000000000, -0.000000000000000000, -0.000000000000000000 ) ) ;
#302 = DIRECTION ( 'NONE',  ( 0.000000000000000000, -0.7933533402912352761, -0.6087614290087204338 ) ) ;
#303 = VECTOR ( 'NONE', #298, 1000.000000000000000 ) ;
#304 = VERTEX_POINT ( 'NONE', #521 ) ;
#305 = DIRECTION ( 'NONE',  ( 1.000000000000000000, -0.000000000000000000, -0.000000000000000000 ) ) ;
#306 = CARTESIAN_POINT ( 'NONE',  ( 3.000000000000000000, 2.776457135307563995, 0.2913267331847912422 ) ) ;
#307 = DIRECTION ( 'NONE',  ( 0.000000000000000000, 1.153591111524575771E-14, -1.000000000000000000 ) ) ;
#308 = VERTEX_POINT ( 'NONE', #421 ) ;
#309 = CARTESIAN_POINT ( 'NONE',  ( 1.000000000000000000, 2.000000000000002665, -68.94440119602155903 ) ) ;
#310 = AXIS2_PLACEMENT_3D ( 'NONE', #484, #657, #324 ) ;
#311 = EDGE_CURVE ( 'NONE', #17, #242, #422, .T. ) ;
#312 = DIRECTION ( 'NONE',  ( -1.000000000000000000, -0.000000000000000000, -0.000000000000000000 ) ) ;
#313 = CARTESIAN_POINT ( 'NONE',  ( 0.000000000000000000, 2.000000000000002665, -64.69440119602155903 ) ) ;
#314 = DIRECTION ( 'NONE',  ( 0.000000000000000000, 0.000000000000000000, -1.000000000000000000 ) ) ;
#315 = ORIENTED_EDGE ( 'NONE', *, *, #556, .T. ) ;
#316 = APPLICATION_PROTOCOL_DEFINITION ( 'draft international standard', 'automotive_design', 1998, #91 ) ;
#317 = ADVANCED_FACE ( 'NONE', ( #464 ), #146, .T. ) ;
#318 = CARTESIAN_POINT ( 'NONE',  ( 3.000000000000000000, 63.17976212419990389, -18.99951859999000803 ) ) ;
#319 = ORIENTED_EDGE ( 'NONE', *, *, #33, .F. ) ;
#320 = CARTESIAN_POINT ( 'NONE',  ( 0.000000000000000000, 3.294095225512654324, 2.223178385762914822 ) ) ;
#321 = ORIENTED_EDGE ( 'NONE', *, *, #462, .F. ) ;
#322 = AXIS2_PLACEMENT_3D ( 'NONE', #647, #545, #61 ) ;
#323 = FACE_OUTER_BOUND ( 'NONE', #388, .T. ) ;
#324 = DIRECTION ( 'NONE',  ( 0.000000000000000000, 0.2588190451025213501, 0.9659258262890682012 ) ) ;
#325 = EDGE_CURVE ( 'NONE', #531, #75, #435, .T. ) ;
#326 = ORIENTED_EDGE ( 'NONE', *, *, #55, .T. ) ;
#327 = DIRECTION ( 'NONE',  ( 1.000000000000000000, -0.000000000000000000, -0.000000000000000000 ) ) ;
#328 = DIRECTION ( 'NONE',  ( 0.000000000000000000, 0.000000000000000000, -1.000000000000000000 ) ) ;
#329 = AXIS2_PLACEMENT_3D ( 'NONE', #357, #570, #307 ) ;
#330 = ORIENTED_EDGE ( 'NONE', *, *, #614, .T. ) ;
#331 = DIRECTION ( 'NONE',  ( 0.000000000000000000, 0.000000000000000000, -1.000000000000000000 ) ) ;
#332 = CYLINDRICAL_SURFACE ( 'NONE', #508, 4.999999999999999112 ) ;
#333 = ORIENTED_EDGE ( 'NONE', *, *, #269, .F. ) ;
#334 = CIRCLE ( 'NONE', #534, 4.999999999999999112 ) ;
#335 = DIRECTION ( 'NONE',  ( 0.000000000000000000, 0.000000000000000000, -1.000000000000000000 ) ) ;
#336 = CARTESIAN_POINT ( 'NONE',  ( 3.000000000000000000, 2.000000000000000000, -2.606450745682413306 ) ) ;
#337 = CIRCLE ( 'NONE', #402, 2.000000000000000000 ) ;
#338 = ORIENTED_EDGE ( 'NONE', *, *, #569, .F. ) ;
#339 = EDGE_CURVE ( 'NONE', #78, #60, #285, .T. ) ;
#340 = FACE_OUTER_BOUND ( 'NONE', #444, .T. ) ;
#341 = LINE ( 'NONE', #550, #176 ) ;
#342 = AXIS2_PLACEMENT_3D ( 'NONE', #406, #620, #186 ) ;
#343 = VERTEX_POINT ( 'NONE', #30 ) ;
#344 = LINE ( 'NONE', #196, #214 ) ;
#345 = ORIENTED_EDGE ( 'NONE', *, *, #556, .F. ) ;
#346 = AXIS2_PLACEMENT_3D ( 'NONE', #418, #633, #575 ) ;
#347 = CARTESIAN_POINT ( 'NONE',  ( 0.000000000000000000, 2.000000000000000000, -2.606450745682413306 ) ) ;
#348 = EDGE_CURVE ( 'NONE', #308, #557, #337, .T. ) ;
#349 = EDGE_LOOP ( 'NONE', ( #338, #170, #29, #351 ) ) ;
#350 = CARTESIAN_POINT ( 'NONE',  ( 3.000000000000000000, 63.17976212419990389, -18.99951859999000803 ) ) ;
#351 = ORIENTED_EDGE ( 'NONE', *, *, #387, .T. ) ;
#352 = EDGE_CURVE ( 'NONE', #369, #231, #578, .T. ) ;
#353 = DIRECTION ( 'NONE',  ( 1.000000000000000000, 0.000000000000000000, 0.000000000000000000 ) ) ;
#354 = CARTESIAN_POINT ( 'NONE',  ( 3.000000000000000000, -2.999999999999998224, -65.94440119602144534 ) ) ;
#355 = AXIS2_PLACEMENT_3D ( 'NONE', #378, #70, #498 ) ;
#356 = ORIENTED_EDGE ( 'NONE', *, *, #462, .T. ) ;
#357 = CARTESIAN_POINT ( 'NONE',  ( 1.000000000000000000, 2.000000000000002665, -65.94440119602155903 ) ) ;
#358 = FACE_OUTER_BOUND ( 'NONE', #86, .T. ) ;
#359 = EDGE_CURVE ( 'NONE', #17, #440, #64, .T. ) ;
#360 = DIRECTION ( 'NONE',  ( 0.000000000000000000, 0.000000000000000000, -1.000000000000000000 ) ) ;
#361 = ORIENTED_EDGE ( 'NONE', *, *, #8, .T. ) ;
#362 = DIRECTION ( 'NONE',  ( 1.000000000000000000, -0.000000000000000000, -0.000000000000000000 ) ) ;
#363 = AXIS2_PLACEMENT_3D ( 'NONE', #41, #264, #200 ) ;
#364 = AXIS2_PLACEMENT_3D ( 'NONE', #7, #386, #490 ) ;
#365 = VERTEX_POINT ( 'NONE', #157 ) ;
#366 = CARTESIAN_POINT ( 'NONE',  ( 3.000000000000000000, 3.826284287026177733, -68.32446121689525853 ) ) ;
#367 = EDGE_CURVE ( 'NONE', #371, #242, #512, .T. ) ;
#368 = FACE_OUTER_BOUND ( 'NONE', #104, .T. ) ;
#369 = VERTEX_POINT ( 'NONE', #160 ) ;
#370 = FACE_OUTER_BOUND ( 'NONE', #654, .T. ) ;
#371 = VERTEX_POINT ( 'NONE', #530 ) ;
#372 = CARTESIAN_POINT ( 'NONE',  ( 1.000000000000000000, 63.17976212419990389, -18.99951859999000803 ) ) ;
#373 = CARTESIAN_POINT ( 'NONE',  ( 0.000000000000000000, 2.000000000000000000, -2.606450745682413306 ) ) ;
#374 = VERTEX_POINT ( 'NONE', #366 ) ;
#375 = AXIS2_PLACEMENT_3D ( 'NONE', #372, #6, #697 ) ;
#376 = CYLINDRICAL_SURFACE ( 'NONE', #206, 1.250000000000000222 ) ;
#377 = ADVANCED_FACE ( 'NONE', ( #370 ), #204, .T. ) ;
#378 = CARTESIAN_POINT ( 'NONE',  ( 1.000000000000000000, 3.826284287026177733, -68.32446121689525853 ) ) ;
#379 = EDGE_CURVE ( 'NONE', #610, #134, #25, .T. ) ;
#380 = EDGE_LOOP ( 'NONE', ( #673, #579 ) ) ;
#381 = FACE_BOUND ( 'NONE', #49, .T. ) ;
#382 = DIRECTION ( 'NONE',  ( 1.000000000000000000, 0.000000000000000000, 0.000000000000000000 ) ) ;
#383 = ORIENTED_EDGE ( 'NONE', *, *, #33, .T. ) ;
#384 = PRESENTATION_LAYER_ASSIGNMENT (  '', '', ( #690 ) ) ;
#385 = DIRECTION ( 'NONE',  ( -1.000000000000000000, -0.000000000000000000, -0.000000000000000000 ) ) ;
#386 = DIRECTION ( 'NONE',  ( 1.000000000000000000, -0.000000000000000000, -0.000000000000000000 ) ) ;
#387 = EDGE_CURVE ( 'NONE', #538, #81, #12, .T. ) ;
#388 = EDGE_LOOP ( 'NONE', ( #195, #361, #1, #684 ) ) ;
#389 = DIRECTION ( 'NONE',  ( 1.000000000000000000, 0.000000000000000000, 0.000000000000000000 ) ) ;
#390 = DIRECTION ( 'NONE',  ( 0.000000000000000000, 0.000000000000000000, -1.000000000000000000 ) ) ;
#391 = ORIENTED_EDGE ( 'NONE', *, *, #379, .T. ) ;
#392 = CARTESIAN_POINT ( 'NONE',  ( 1.000000000000000000, 3.294095225512654324, 2.223178385762914822 ) ) ;
#393 = EDGE_LOOP ( 'NONE', ( #93, #36, #661, #420 ) ) ;
#394 = AXIS2_PLACEMENT_3D ( 'NONE', #501, #4, #67 ) ;
#395 = CARTESIAN_POINT ( 'NONE',  ( 3.000000000000000000, 2.000000000000002665, -67.19440119602155903 ) ) ;
#396 = EDGE_CURVE ( 'NONE', #610, #343, #210, .T. ) ;
#397 = EDGE_LOOP ( 'NONE', ( #22, #436, #562, #431 ) ) ;
#398 = CARTESIAN_POINT ( 'NONE',  ( 3.000000000000000000, 2.000000000000002665, -65.94440119602155903 ) ) ;
#399 = CARTESIAN_POINT ( 'NONE',  ( 0.000000000000000000, 3.294095225512654324, 2.223178385762914822 ) ) ;
#400 = EDGE_CURVE ( 'NONE', #34, #9, #215, .T. ) ;
#401 = VERTEX_POINT ( 'NONE', #320 ) ;
#402 = AXIS2_PLACEMENT_3D ( 'NONE', #43, #572, #265 ) ;
#403 = FACE_OUTER_BOUND ( 'NONE', #535, .T. ) ;
#404 = CARTESIAN_POINT ( 'NONE',  ( 0.000000000000000000, 2.000000000000000000, -2.606450745682413306 ) ) ;
#405 = ORIENTED_EDGE ( 'NONE', *, *, #73, .F. ) ;
#406 = CARTESIAN_POINT ( 'NONE',  ( 1.000000000000000000, 63.17976212419990389, -18.99951859999000803 ) ) ;
#407 = CARTESIAN_POINT ( 'NONE',  ( 3.000000000000000000, 34.41616534912611769, -44.85201991887948481 ) ) ;
#408 = EDGE_CURVE ( 'NONE', #628, #646, #281, .T. ) ;
#409 = DIRECTION ( 'NONE',  ( 1.000000000000000000, 0.000000000000000000, 0.000000000000000000 ) ) ;
#410 = VECTOR ( 'NONE', #594, 1000.000000000000000 ) ;
#411 = ORIENTED_EDGE ( 'NONE', *, *, #189, .F. ) ;
#412 = DIRECTION ( 'NONE',  ( 1.000000000000000000, 0.000000000000000000, 0.000000000000000000 ) ) ;
#413 = ORIENTED_EDGE ( 'NONE', *, *, #325, .T. ) ;
#414 = DIRECTION ( 'NONE',  ( 0.000000000000000000, 0.000000000000000000, -1.000000000000000000 ) ) ;
#415 = EDGE_CURVE ( 'NONE', #308, #14, #623, .T. ) ;
#416 = COLOUR_RGB ( '',0.7921568627450980005, 0.8196078431372548767, 0.9333333333333333481 ) ;
#417 = DIRECTION ( 'NONE',  ( 1.000000000000000000, 0.000000000000000000, 0.000000000000000000 ) ) ;
#418 = CARTESIAN_POINT ( 'NONE',  ( 3.000000000000000000, 2.000000000000000000, -2.606450745682413306 ) ) ;
#419 = AXIS2_PLACEMENT_3D ( 'NONE', #350, #125, #564 ) ;
#420 = ORIENTED_EDGE ( 'NONE', *, *, #218, .F. ) ;
#421 = CARTESIAN_POINT ( 'NONE',  ( 1.000000000000000000, -2.999999999999997335, -2.606450745682428849 ) ) ;
#422 = CIRCLE ( 'NONE', #2, 2.999999999999999112 ) ;
#423 = ORIENTED_EDGE ( 'NONE', *, *, #367, .F. ) ;
#424 = TOROIDAL_SURFACE ( 'NONE', #342, 3.000000000000000000, 2.000000000000000000 ) ;
#425 = DIRECTION ( 'NONE',  ( 0.000000000000000000, 0.000000000000000000, 1.000000000000000000 ) ) ;
#426 = VECTOR ( 'NONE', #621, 1000.000000000000227 ) ;
#427 = EDGE_LOOP ( 'NONE', ( #330, #326, #44, #63 ) ) ;
#428 = DIRECTION ( 'NONE',  ( 0.000000000000000000, 0.000000000000000000, -1.000000000000000000 ) ) ;
#429 = ADVANCED_FACE ( 'NONE', ( #368 ), #672, .T. ) ;
#430 = DIRECTION ( 'NONE',  ( 0.000000000000000000, 0.000000000000000000, -1.000000000000000000 ) ) ;
#431 = ORIENTED_EDGE ( 'NONE', *, *, #670, .T. ) ;
#432 = AXIS2_PLACEMENT_3D ( 'NONE', #121, #271, #480 ) ;
#433 = CARTESIAN_POINT ( 'NONE',  ( 1.000000000000000000, 2.000000000000002665, -65.94440119602155903 ) ) ;
#434 = CYLINDRICAL_SURFACE ( 'NONE', #114, 2.000000000000005329 ) ;
#435 = CIRCLE ( 'NONE', #136, 2.000000000000001776 ) ;
#436 = ORIENTED_EDGE ( 'NONE', *, *, #292, .F. ) ;
#437 = FACE_OUTER_BOUND ( 'NONE', #237, .T. ) ;
#438 = FACE_OUTER_BOUND ( 'NONE', #479, .T. ) ;
#439 = EDGE_CURVE ( 'NONE', #75, #374, #558, .T. ) ;
#440 = VERTEX_POINT ( 'NONE', #48 ) ;
#441 = CARTESIAN_POINT ( 'NONE',  ( 3.000000000000000000, 63.17976212419990389, -20.24951859999001158 ) ) ;
#442 = FACE_OUTER_BOUND ( 'NONE', #349, .T. ) ;
#443 = PRODUCT_DEFINITION_SHAPE ( 'NONE', 'NONE',  #481 ) ;
#444 = EDGE_LOOP ( 'NONE', ( #383, #448, #600, #624, #482, #459, #496 ) ) ;
#445 = AXIS2_PLACEMENT_3D ( 'NONE', #290, #10, #665 ) ;
#446 = CARTESIAN_POINT ( 'NONE',  ( 1.000000000000000000, 5.043807145043624374, -69.91116789747772486 ) ) ;
#447 = DIRECTION ( 'NONE',  ( 1.000000000000000000, 0.000000000000000000, 0.000000000000000000 ) ) ;
#448 = ORIENTED_EDGE ( 'NONE', *, *, #311, .T. ) ;
#449 = DIRECTION ( 'NONE',  ( 1.000000000000000000, -0.000000000000000000, -0.000000000000000000 ) ) ;
#450 = LINE ( 'NONE', #354, #303 ) ;
#451 = CIRCLE ( 'NONE', #603, 4.999999999999999112 ) ;
#452 = ORIENTED_EDGE ( 'NONE', *, *, #660, .F. ) ;
#453 = CARTESIAN_POINT ( 'NONE',  ( 0.000000000000000000, 2.000000000000002665, -67.19440119602155903 ) ) ;
#454 = AXIS2_PLACEMENT_3D ( 'NONE', #373, #382, #592 ) ;
#455 =( NAMED_UNIT ( * ) SI_UNIT ( $, .STERADIAN. ) SOLID_ANGLE_UNIT ( ) );
#456 = ORIENTED_EDGE ( 'NONE', *, *, #325, .F. ) ;
#457 = CARTESIAN_POINT ( 'NONE',  ( 0.000000000000000000, 63.17976212419990389, -17.74951859999000803 ) ) ;
#458 = LINE ( 'NONE', #198, #54 ) ;
#459 = ORIENTED_EDGE ( 'NONE', *, *, #641, .T. ) ;
#460 =( LENGTH_UNIT ( ) NAMED_UNIT ( * ) SI_UNIT ( .MILLI., .METRE. ) );
#461 =( NAMED_UNIT ( * ) PLANE_ANGLE_UNIT ( ) SI_UNIT ( $, .RADIAN. ) );
#462 = EDGE_CURVE ( 'NONE', #365, #308, #598, .T. ) ;
#463 = CARTESIAN_POINT ( 'NONE',  ( 3.000000000000000000, 65.00604641122603766, -21.37957862086372884 ) ) ;
#464 = FACE_OUTER_BOUND ( 'NONE', #551, .T. ) ;
#465 = EDGE_LOOP ( 'NONE', ( #699, #637 ) ) ;
#466 = ORIENTED_EDGE ( 'NONE', *, *, #379, .F. ) ;
#467 = DIRECTION ( 'NONE',  ( 1.000000000000000000, 0.000000000000000000, 0.000000000000000000 ) ) ;
#468 = CARTESIAN_POINT ( 'NONE',  ( 0.000000000000000000, 2.000000000000000000, -2.606450745682413306 ) ) ;
#469 = VECTOR ( 'NONE', #175, 1000.000000000000227 ) ;
#470 = ORIENTED_EDGE ( 'NONE', *, *, #8, .F. ) ;
#471 = EDGE_CURVE ( 'NONE', #440, #686, #497, .T. ) ;
#472 = DIRECTION ( 'NONE',  ( 0.000000000000000000, 0.000000000000000000, -1.000000000000000000 ) ) ;
#473 = ORIENTED_EDGE ( 'NONE', *, *, #348, .F. ) ;
#474 = DIRECTION ( 'NONE',  ( -4.489794735692407541E-16, 0.9659258262890687563, -0.2588190451025196293 ) ) ;
#475 = EDGE_LOOP ( 'NONE', ( #576, #582, #315, #411 ) ) ;
#476 = DIRECTION ( 'NONE',  ( 0.000000000000000000, 0.000000000000000000, -1.000000000000000000 ) ) ;
#477 = AXIS2_PLACEMENT_3D ( 'NONE', #246, #69, #72 ) ;
#478 = AXIS2_PLACEMENT_3D ( 'NONE', #689, #474, #626 ) ;
#479 = EDGE_LOOP ( 'NONE', ( #259, #184, #423, #124 ) ) ;
#480 = DIRECTION ( 'NONE',  ( 0.000000000000000000, 0.000000000000000000, -1.000000000000000000 ) ) ;
#481 = PRODUCT_DEFINITION ( 'UNKNOWN', '', #270, #486 ) ;
#482 = ORIENTED_EDGE ( 'NONE', *, *, #250, .T. ) ;
#483 = DIRECTION ( 'NONE',  ( 0.000000000000000000, 0.000000000000000000, -1.000000000000000000 ) ) ;
#484 = CARTESIAN_POINT ( 'NONE',  ( 1.000000000000000000, 2.776457135307611956, 0.2913267331847786967 ) ) ;
#485 = AXIS2_PLACEMENT_3D ( 'NONE', #123, #224, #177 ) ;
#486 = PRODUCT_DEFINITION_CONTEXT ( 'detailed design', #91, 'design' ) ;
#487 = ORIENTED_EDGE ( 'NONE', *, *, #116, .F. ) ;
#488 = APPLICATION_CONTEXT ( 'automotive_design' ) ;
#489 = CARTESIAN_POINT ( 'NONE',  ( 1.000000000000000000, 2.000000000000002665, -65.94440119602155903 ) ) ;
#490 = DIRECTION ( 'NONE',  ( 0.000000000000000000, 0.000000000000000000, -1.000000000000000000 ) ) ;
#491 = EDGE_LOOP ( 'NONE', ( #234, #152, #606, #664 ) ) ;
#492 = EDGE_CURVE ( 'NONE', #371, #440, #585, .T. ) ;
#493 = PLANE ( 'NONE',  #107 ) ;
#494 = DIRECTION ( 'NONE',  ( -1.000000000000000000, -0.000000000000000000, -0.000000000000000000 ) ) ;
#495 = AXIS2_PLACEMENT_3D ( 'NONE', #268, #90, #525 ) ;
#496 = ORIENTED_EDGE ( 'NONE', *, *, #439, .T. ) ;
#497 = LINE ( 'NONE', #3, #469 ) ;
#498 = DIRECTION ( 'NONE',  ( 0.000000000000000000, -0.6087614290087205449, 0.7933533402912351651 ) ) ;
#499 = ORIENTED_EDGE ( 'NONE', *, *, #282, .F. ) ;
#500 = DIRECTION ( 'NONE',  ( 0.000000000000000000, 0.000000000000000000, -1.000000000000000000 ) ) ;
#501 = CARTESIAN_POINT ( 'NONE',  ( 1.000000000000000000, 2.776457135307592416, 0.2913267331847825825 ) ) ;
#502 = ORIENTED_EDGE ( 'NONE', *, *, #439, .F. ) ;
#503 = ADVANCED_FACE ( 'NONE', ( #323 ), #220, .F. ) ;
#504 = ORIENTED_EDGE ( 'NONE', *, *, #352, .T. ) ;
#505 =( LENGTH_UNIT ( ) NAMED_UNIT ( * ) SI_UNIT ( .MILLI., .METRE. ) );
#506 = ORIENTED_EDGE ( 'NONE', *, *, #282, .T. ) ;
#507 = DIRECTION ( 'NONE',  ( 0.000000000000000000, -0.9659258262890680902, 0.2588190451025213501 ) ) ;
#508 = AXIS2_PLACEMENT_3D ( 'NONE', #546, #652, #675 ) ;
#509 = CARTESIAN_POINT ( 'NONE',  ( 3.000000000000000000, -0.9999999999999974465, -2.606450745682413306 ) ) ;
#510 = LINE ( 'NONE', #313, #57 ) ;
#511 = AXIS2_PLACEMENT_3D ( 'NONE', #154, #524, #467 ) ;
#512 = CIRCLE ( 'NONE', #478, 2.000000000000000000 ) ;
#513 = CARTESIAN_POINT ( 'NONE',  ( 1.000000000000000000, 2.000000000000000000, -2.606450745682413306 ) ) ;
#514 = ADVANCED_FACE ( 'NONE', ( #583 ), #642, .T. ) ;
#515 = DIRECTION ( 'NONE',  ( 1.000000000000000000, 0.000000000000000000, 0.000000000000000000 ) ) ;
#516 = LINE ( 'NONE', #407, #426 ) ;
#517 = ADVANCED_BREP_SHAPE_REPRESENTATION ( 'End Cap Right', ( #182, #511 ), #85 ) ;
#518 = CARTESIAN_POINT ( 'NONE',  ( 0.000000000000000000, 63.17976212419990389, -18.99951859999000803 ) ) ;
#519 = VECTOR ( 'NONE', #239, 1000.000000000000114 ) ;
#520 = VERTEX_POINT ( 'NONE', #441 ) ;
#521 = CARTESIAN_POINT ( 'NONE',  ( 3.000000000000000000, 2.776457135307611512, 0.2913267331847774200 ) ) ;
#522 = EDGE_CURVE ( 'NONE', #440, #538, #587, .T. ) ;
#523 = ORIENTED_EDGE ( 'NONE', *, *, #173, .F. ) ;
#524 = DIRECTION ( 'NONE',  ( 0.000000000000000000, 0.000000000000000000, 1.000000000000000000 ) ) ;
#525 = DIRECTION ( 'NONE',  ( 0.000000000000000000, 2.738837401025377908E-17, -1.000000000000000000 ) ) ;
#526 = VECTOR ( 'NONE', #223, 1000.000000000000000 ) ;
#527 = CARTESIAN_POINT ( 'NONE',  ( 0.000000000000000000, -2.999999999999997335, -2.606450745682428849 ) ) ;
#528 = CARTESIAN_POINT ( 'NONE',  ( 3.000000000000000000, -2.999999999999997335, -2.606450745682428849 ) ) ;
#529 = ORIENTED_EDGE ( 'NONE', *, *, #292, .T. ) ;
#530 = CARTESIAN_POINT ( 'NONE',  ( 1.000000000000000000, 64.47385734971248894, -14.16988946854466036 ) ) ;
#531 = VERTEX_POINT ( 'NONE', #287 ) ;
#532 = CARTESIAN_POINT ( 'NONE',  ( 3.000000000000000000, 2.000000000000002665, -65.94440119602155903 ) ) ;
#533 = EDGE_CURVE ( 'NONE', #615, #280, #39, .T. ) ;
#534 = AXIS2_PLACEMENT_3D ( 'NONE', #513, #616, #129 ) ;
#535 = EDGE_LOOP ( 'NONE', ( #456, #499, #174, #502 ) ) ;
#536 = CARTESIAN_POINT ( 'NONE',  ( 0.000000000000000000, 2.000000000000000000, -2.606450745682413306 ) ) ;
#537 = DIRECTION ( 'NONE',  ( 0.000000000000000000, 0.000000000000000000, -1.000000000000000000 ) ) ;
#538 = VERTEX_POINT ( 'NONE', #639 ) ;
#539 = VECTOR ( 'NONE', #16, 1000.000000000000000 ) ;
#540 = DIRECTION ( 'NONE',  ( 0.000000000000000000, 0.000000000000000000, -1.000000000000000000 ) ) ;
#541 = CARTESIAN_POINT ( 'NONE',  ( 0.000000000000000000, 63.17976212419990389, -20.24951859999001158 ) ) ;
#542 = CIRCLE ( 'NONE', #247, 1.250000000000000222 ) ;
#543 = ADVANCED_FACE ( 'NONE', ( #381, #163, #66, #105 ), #493, .F. ) ;
#544 = ORIENTED_EDGE ( 'NONE', *, *, #199, .F. ) ;
#545 = DIRECTION ( 'NONE',  ( 1.000000000000000000, -0.000000000000000000, -0.000000000000000000 ) ) ;
#546 = CARTESIAN_POINT ( 'NONE',  ( 3.000000000000000000, 2.000000000000000000, -2.606450745682413306 ) ) ;
#547 = CIRCLE ( 'NONE', #419, 1.250000000000001110 ) ;
#548 = EDGE_LOOP ( 'NONE', ( #68, #226, #128, #319 ) ) ;
#549 = CARTESIAN_POINT ( 'NONE',  ( 3.000000000000000000, 2.000000000000000000, -2.606450745682413306 ) ) ;
#550 = CARTESIAN_POINT ( 'NONE',  ( 0.000000000000000000, -2.999999999999995559, -65.94440119602144534 ) ) ;
#551 = EDGE_LOOP ( 'NONE', ( #523, #356, #703, #257 ) ) ;
#552 = CARTESIAN_POINT ( 'NONE',  ( 1.000000000000000000, 2.000000000000000000, 2.393549254317586250 ) ) ;
#553 = DIRECTION ( 'NONE',  ( 1.000000000000000000, 0.000000000000000000, 0.000000000000000000 ) ) ;
#554 = EDGE_LOOP ( 'NONE', ( #618, #102, #650, #289 ) ) ;
#555 = DIRECTION ( 'NONE',  ( 0.000000000000000000, 0.000000000000000000, -1.000000000000000000 ) ) ;
#556 = EDGE_CURVE ( 'NONE', #686, #231, #167, .T. ) ;
#557 = VERTEX_POINT ( 'NONE', #701 ) ;
#558 = CIRCLE ( 'NONE', #133, 3.000000000000002665 ) ;
#559 = DIRECTION ( 'NONE',  ( -0.000000000000000000, -0.9659258262890680902, 0.2588190451025213501 ) ) ;
#560 = ORIENTED_EDGE ( 'NONE', *, *, #408, .T. ) ;
#561 = LINE ( 'NONE', #674, #632 ) ;
#562 = ORIENTED_EDGE ( 'NONE', *, *, #269, .T. ) ;
#563 = ADVANCED_FACE ( 'NONE', ( #437 ), #376, .F. ) ;
#564 = DIRECTION ( 'NONE',  ( 0.000000000000000000, 0.000000000000000000, -1.000000000000000000 ) ) ;
#565 = CIRCLE ( 'NONE', #266, 2.999999999999999112 ) ;
#566 = LINE ( 'NONE', #392, #221 ) ;
#567 = ORIENTED_EDGE ( 'NONE', *, *, #408, .F. ) ;
#568 = AXIS2_PLACEMENT_3D ( 'NONE', #83, #301, #500 ) ;
#569 = EDGE_CURVE ( 'NONE', #371, #81, #651, .T. ) ;
#570 = DIRECTION ( 'NONE',  ( -1.000000000000000000, -0.000000000000000000, -0.000000000000000000 ) ) ;
#571 = CYLINDRICAL_SURFACE ( 'NONE', #667, 1.250000000000001110 ) ;
#572 = DIRECTION ( 'NONE',  ( -3.035766082959412415E-15, 0.000000000000000000, 1.000000000000000000 ) ) ;
#573 = CIRCLE ( 'NONE', #698, 1.250000000000001110 ) ;
#574 = EDGE_LOOP ( 'NONE', ( #244, #147, #187, #56, #216, #297, #544 ) ) ;
#575 = DIRECTION ( 'NONE',  ( 0.000000000000000000, 0.000000000000000000, -1.000000000000000000 ) ) ;
#576 = ORIENTED_EDGE ( 'NONE', *, *, #522, .F. ) ;
#577 = DIRECTION ( 'NONE',  ( -1.000000000000000000, -0.000000000000000000, -0.000000000000000000 ) ) ;
#578 = CIRCLE ( 'NONE', #230, 5.000000000000004441 ) ;
#579 = ORIENTED_EDGE ( 'NONE', *, *, #400, .F. ) ;
#580 = EDGE_CURVE ( 'NONE', #531, #365, #622, .T. ) ;
#581 = CARTESIAN_POINT ( 'NONE',  ( 1.000000000000000000, -0.9999999999999956701, -65.94440119602144534 ) ) ;
#582 = ORIENTED_EDGE ( 'NONE', *, *, #471, .T. ) ;
#583 = FACE_OUTER_BOUND ( 'NONE', #427, .T. ) ;
#584 = CARTESIAN_POINT ( 'NONE',  ( 3.000000000000000000, 63.17976212419990389, -18.99951859999000803 ) ) ;
#585 = CIRCLE ( 'NONE', #375, 5.000000000000000888 ) ;
#586 = VERTEX_POINT ( 'NONE', #704 ) ;
#587 = LINE ( 'NONE', #591, #168 ) ;
#588 = CARTESIAN_POINT ( 'NONE',  ( 0.000000000000000000, 64.47385734971248894, -14.16988946854466036 ) ) ;
#589 = ADVANCED_FACE ( 'NONE', ( #113 ), #227, .F. ) ;
#590 = ORIENTED_EDGE ( 'NONE', *, *, #580, .F. ) ;
#591 = CARTESIAN_POINT ( 'NONE',  ( 3.000000000000000000, 66.22356926924346965, -22.96628530144621294 ) ) ;
#592 = DIRECTION ( 'NONE',  ( 0.000000000000000000, 0.000000000000000000, -1.000000000000000000 ) ) ;
#593 = EDGE_LOOP ( 'NONE', ( #473, #321, #47, #109 ) ) ;
#594 = DIRECTION ( 'NONE',  ( 0.000000000000000000, -2.738837401025377908E-17, 1.000000000000000000 ) ) ;
#595 = CYLINDRICAL_SURFACE ( 'NONE', #126, 5.000000000000000888 ) ;
#596 = CIRCLE ( 'NONE', #144, 3.000000000000002665 ) ;
#597 = ORIENTED_EDGE ( 'NONE', *, *, #95, .T. ) ;
#598 = LINE ( 'NONE', #283, #410 ) ;
#599 = DIRECTION ( 'NONE',  ( 1.000000000000000000, 0.000000000000000000, 0.000000000000000000 ) ) ;
#600 = ORIENTED_EDGE ( 'NONE', *, *, #241, .T. ) ;
#601 = ADVANCED_FACE ( 'NONE', ( #185 ), #619, .T. ) ;
#602 = DIRECTION ( 'NONE',  ( -0.000000000000000000, 0.2588190451025213501, 0.9659258262890680902 ) ) ;
#603 = AXIS2_PLACEMENT_3D ( 'NONE', #404, #191, #617 ) ;
#604 = ADVANCED_FACE ( 'NONE', ( #403 ), #13, .T. ) ;
#605 = SURFACE_STYLE_FILL_AREA ( #251 ) ;
#606 = ORIENTED_EDGE ( 'NONE', *, *, #207, .T. ) ;
#607 = FACE_BOUND ( 'NONE', #26, .T. ) ;
#608 = CARTESIAN_POINT ( 'NONE',  ( 3.000000000000000000, 3.294095225512654324, 2.223178385762914822 ) ) ;
#609 = VECTOR ( 'NONE', #312, 1000.000000000000000 ) ;
#610 = VERTEX_POINT ( 'NONE', #457 ) ;
#611 = PLANE ( 'NONE',  #24 ) ;
#612 = FILL_AREA_STYLE_COLOUR ( '', #416 ) ;
#613 = AXIS2_PLACEMENT_3D ( 'NONE', #629, #687, #255 ) ;
#614 = EDGE_CURVE ( 'NONE', #308, #668, #334, .T. ) ;
#615 = VERTEX_POINT ( 'NONE', #678 ) ;
#616 = DIRECTION ( 'NONE',  ( -1.000000000000000000, -0.000000000000000000, -0.000000000000000000 ) ) ;
#617 = DIRECTION ( 'NONE',  ( 0.000000000000000000, 0.000000000000000000, -1.000000000000000000 ) ) ;
#618 = ORIENTED_EDGE ( 'NONE', *, *, #359, .T. ) ;
#619 = PLANE ( 'NONE',  #74 ) ;
#620 = DIRECTION ( 'NONE',  ( 1.000000000000000000, 0.000000000000000000, 0.000000000000000000 ) ) ;
#621 = DIRECTION ( 'NONE',  ( -0.000000000000000000, 0.7933533402912352761, 0.6087614290087204338 ) ) ;
#622 = CIRCLE ( 'NONE', #296, 5.000000000000004441 ) ;
#623 = LINE ( 'NONE', #528, #609 ) ;
#624 = ORIENTED_EDGE ( 'NONE', *, *, #116, .T. ) ;
#625 = EDGE_CURVE ( 'NONE', #615, #628, #294, .T. ) ;
#626 = DIRECTION ( 'NONE',  ( 0.000000000000000000, 0.2588190451025193517, 0.9659258262890687563 ) ) ;
#627 = VECTOR ( 'NONE', #253, 1000.000000000000000 ) ;
#628 = VERTEX_POINT ( 'NONE', #395 ) ;
#629 = CARTESIAN_POINT ( 'NONE',  ( 1.000000000000000000, 65.00604641122603766, -21.37957862086372884 ) ) ;
#630 = CIRCLE ( 'NONE', #653, 1.250000000000001110 ) ;
#631 = PLANE ( 'NONE',  #212 ) ;
#632 = VECTOR ( 'NONE', #238, 1000.000000000000000 ) ;
#633 = DIRECTION ( 'NONE',  ( 1.000000000000000000, 0.000000000000000000, 0.000000000000000000 ) ) ;
#634 = EDGE_CURVE ( 'NONE', #401, #120, #156, .T. ) ;
#635 = ORIENTED_EDGE ( 'NONE', *, *, #683, .T. ) ;
#636 = CARTESIAN_POINT ( 'NONE',  ( 0.000000000000000000, 63.17976212419990389, -17.74951859999000803 ) ) ;
#637 = ORIENTED_EDGE ( 'NONE', *, *, #132, .T. ) ;
#638 = CLOSED_SHELL ( 'NONE', ( #42, #503, #695, #429, #514, #164, #317, #377, #106, #53, #601, #649, #543, #300, #604, #31, #149, #65, #275, #563, #142, #589 ) ) ;
#639 = CARTESIAN_POINT ( 'NONE',  ( 0.000000000000000000, 66.22356926924346965, -22.96628530144621294 ) ) ;
#640 = ORIENTED_EDGE ( 'NONE', *, *, #18, .T. ) ;
#641 = EDGE_CURVE ( 'NONE', #586, #75, #596, .T. ) ;
#642 = CYLINDRICAL_SURFACE ( 'NONE', #228, 4.999999999999999112 ) ;
#643 = AXIS2_PLACEMENT_3D ( 'NONE', #40, #98, #213 ) ;
#644 = DIRECTION ( 'NONE',  ( 0.000000000000000000, -2.738837401025378216E-17, 1.000000000000000000 ) ) ;
#645 = AXIS2_PLACEMENT_3D ( 'NONE', #171, #179, #335 ) ;
#646 = VERTEX_POINT ( 'NONE', #190 ) ;
#647 = CARTESIAN_POINT ( 'NONE',  ( 0.000000000000000000, 63.17976212419990389, -18.99951859999000803 ) ) ;
#648 = DIRECTION ( 'NONE',  ( 0.000000000000000000, -0.7933533402912353871, -0.6087614290087205449 ) ) ;
#649 = ADVANCED_FACE ( 'NONE', ( #607, #139, #19, #340 ), #611, .T. ) ;
#650 = ORIENTED_EDGE ( 'NONE', *, *, #367, .T. ) ;
#651 = LINE ( 'NONE', #58, #240 ) ;
#652 = DIRECTION ( 'NONE',  ( -1.000000000000000000, -0.000000000000000000, -0.000000000000000000 ) ) ;
#653 = AXIS2_PLACEMENT_3D ( 'NONE', #111, #417, #328 ) ;
#654 = EDGE_LOOP ( 'NONE', ( #345, #506, #286, #267, #504 ) ) ;
#655 = PRODUCT ( 'End Cap Right', 'End Cap Right', '', ( #38 ) ) ;
#656 = DIRECTION ( 'NONE',  ( -1.000000000000000000, -0.000000000000000000, -0.000000000000000000 ) ) ;
#657 = DIRECTION ( 'NONE',  ( 0.000000000000000000, 0.9659258262890680902, -0.2588190451025213501 ) ) ;
#658 = CIRCLE ( 'NONE', #568, 4.999999999999999112 ) ;
#659 = AXIS2_PLACEMENT_3D ( 'NONE', #148, #45, #217 ) ;
#660 = EDGE_CURVE ( 'NONE', #668, #277, #658, .T. ) ;
#661 = ORIENTED_EDGE ( 'NONE', *, *, #569, .T. ) ;
#662 = CYLINDRICAL_SURFACE ( 'NONE', #693, 1.250000000000000222 ) ;
#663 = LINE ( 'NONE', #306, #188 ) ;
#664 = ORIENTED_EDGE ( 'NONE', *, *, #634, .T. ) ;
#665 = DIRECTION ( 'NONE',  ( 0.000000000000000000, 0.000000000000000000, -1.000000000000000000 ) ) ;
#666 = PRESENTATION_STYLE_ASSIGNMENT (( #127 ) ) ;
#667 = AXIS2_PLACEMENT_3D ( 'NONE', #89, #702, #537 ) ;
#668 = VERTEX_POINT ( 'NONE', #552 ) ;
#669 = CARTESIAN_POINT ( 'NONE',  ( 3.000000000000000000, 3.294095225512654324, 2.223178385762914822 ) ) ;
#670 = EDGE_CURVE ( 'NONE', #520, #343, #547, .T. ) ;
#671 = LINE ( 'NONE', #399, #519 ) ;
#672 = TOROIDAL_SURFACE ( 'NONE', #261, 3.000000000000000888, 2.000000000000000000 ) ;
#673 = ORIENTED_EDGE ( 'NONE', *, *, #95, .F. ) ;
#674 = CARTESIAN_POINT ( 'NONE',  ( 0.000000000000000000, 2.000000000000000000, -3.856450745682413306 ) ) ;
#675 = DIRECTION ( 'NONE',  ( 0.000000000000000000, 0.000000000000000000, 1.000000000000000000 ) ) ;
#676 = AXIS2_PLACEMENT_3D ( 'NONE', #468, #208, #360 ) ;
#677 = CARTESIAN_POINT ( 'NONE',  ( 3.000000000000000000, 2.000000000000000000, -3.856450745682413306 ) ) ;
#678 = CARTESIAN_POINT ( 'NONE',  ( 0.000000000000000000, 2.000000000000002665, -67.19440119602155903 ) ) ;
#679 = SURFACE_SIDE_STYLE ('',( #605 ) ) ;
#680 = DIRECTION ( 'NONE',  ( 1.000000000000000000, 0.000000000000000000, 0.000000000000000000 ) ) ;
#681 = CARTESIAN_POINT ( 'NONE',  ( 3.000000000000000000, 2.000000000000002665, -65.94440119602155903 ) ) ;
#682 = ORIENTED_EDGE ( 'NONE', *, *, #339, .T. ) ;
#683 = EDGE_CURVE ( 'NONE', #78, #9, #561, .T. ) ;
#684 = ORIENTED_EDGE ( 'NONE', *, *, #625, .F. ) ;
#685 = DIRECTION ( 'NONE',  ( 0.000000000000000000, -1.000000000000000000, 0.000000000000000000 ) ) ;
#686 = VERTEX_POINT ( 'NONE', #446 ) ;
#687 = DIRECTION ( 'NONE',  ( -0.000000000000000000, 0.7933533402912387178, 0.6087614290087159929 ) ) ;
#688 = ORIENTED_EDGE ( 'NONE', *, *, #339, .F. ) ;
#689 = CARTESIAN_POINT ( 'NONE',  ( 1.000000000000000000, 63.95621925950744924, -16.10174112112279587 ) ) ;
#690 = STYLED_ITEM ( 'NONE', ( #666 ), #182 ) ;
#691 = EDGE_CURVE ( 'NONE', #60, #34, #344, .T. ) ;
#692 = ORIENTED_EDGE ( 'NONE', *, *, #683, .F. ) ;
#693 = AXIS2_PLACEMENT_3D ( 'NONE', #347, #305, #27 ) ;
#694 = DIRECTION ( 'NONE',  ( 0.000000000000000000, 0.000000000000000000, 1.000000000000000000 ) ) ;
#695 = ADVANCED_FACE ( 'NONE', ( #79 ), #662, .F. ) ;
#696 = ORIENTED_EDGE ( 'NONE', *, *, #260, .T. ) ;
#697 = DIRECTION ( 'NONE',  ( 0.000000000000000000, 0.000000000000000000, -1.000000000000000000 ) ) ;
#698 = AXIS2_PLACEMENT_3D ( 'NONE', #21, #515, #77 ) ;
#699 = ORIENTED_EDGE ( 'NONE', *, *, #533, .T. ) ;
#700 = CIRCLE ( 'NONE', #394, 2.000000000000000000 ) ;
#701 = CARTESIAN_POINT ( 'NONE',  ( 3.000000000000000000, -0.9999999999999974465, -2.606450745682422632 ) ) ;
#702 = DIRECTION ( 'NONE',  ( 1.000000000000000000, -0.000000000000000000, -0.000000000000000000 ) ) ;
#703 = ORIENTED_EDGE ( 'NONE', *, *, #415, .T. ) ;
#704 = CARTESIAN_POINT ( 'NONE',  ( 3.000000000000000000, -0.9999999999999983347, -65.94440119602144534 ) ) ;
#705 = DIRECTION ( 'NONE',  ( 0.000000000000000000, 0.6087614290087204338, -0.7933533402912352761 ) ) ;
ENDSEC;
END-ISO-10303-21;
