ISO-10303-21;
HEADER;
FILE_DESCRIPTION (( 'STEP AP214' ),
    '1' );
FILE_NAME ('Main Body.STEP',
    '2026-10-03T16:34:28',
    ( '' ),
    ( '' ),
    'SwSTEP 2.0',
    'SolidWorks 2026',
    '' );
FILE_SCHEMA (( 'AUTOMOTIVE_DESIGN' ));
ENDSEC;

DATA;
#1 = AXIS2_PLACEMENT_3D ( 'NONE', #695, #383, #221 ) ;
#2 = ORIENTED_EDGE ( 'NONE', *, *, #167, .F. ) ;
#3 = DIRECTION ( 'NONE',  ( 0.000000000000000000, 0.000000000000000000, -1.000000000000000000 ) ) ;
#4 = CARTESIAN_POINT ( 'NONE',  ( 120.0000000000000000, 5.043807145043620821, -69.91116789747769644 ) ) ;
#5 = ORIENTED_EDGE ( 'NONE', *, *, #268, .F. ) ;
#6 = DIRECTION ( 'NONE',  ( 0.000000000000000000, -0.9659258262890699775, 0.2588190451025145777 ) ) ;
#7 = EDGE_CURVE ( 'NONE', #328, #201, #613, .T. ) ;
#8 = EDGE_LOOP ( 'NONE', ( #86, #720, #475, #443 ) ) ;
#9 = CARTESIAN_POINT ( 'NONE',  ( 23.00000000000000000, 27.31196419457060642, -7.318218749642741550 ) ) ;
#10 = ORIENTED_EDGE ( 'NONE', *, *, #268, .T. ) ;
#11 = CARTESIAN_POINT ( 'NONE',  ( 120.0000000000000000, 2.000000000000000000, -2.606450745682394654 ) ) ;
#12 = LINE ( 'NONE', #409, #245 ) ;
#13 = ORIENTED_EDGE ( 'NONE', *, *, #517, .T. ) ;
#14 = PLANE ( 'NONE',  #76 ) ;
#15 = VECTOR ( 'NONE', #610, 999.9999999999998863 ) ;
#16 = EDGE_LOOP ( 'NONE', ( #220, #390, #130, #509 ) ) ;
#17 = DIRECTION ( 'NONE',  ( 0.000000000000000000, 0.000000000000000000, -1.000000000000000000 ) ) ;
#18 = ADVANCED_FACE ( 'NONE', ( #442 ), #317, .T. ) ;
#19 = CYLINDRICAL_SURFACE ( 'NONE', #148, 5.999999999999997335 ) ;
#20 = ORIENTED_EDGE ( 'NONE', *, *, #135, .T. ) ;
#21 = CIRCLE ( 'NONE', #405, 5.999999999999997335 ) ;
#22 = CARTESIAN_POINT ( 'NONE',  ( 120.0000000000000000, 2.000000000000000000, 2.393549254317606678 ) ) ;
#23 = CIRCLE ( 'NONE', #285, 1.999999999999994893 ) ;
#24 = CARTESIAN_POINT ( 'NONE',  ( 109.5499999999999972, 14.36855812229708285, -3.850043545269050682 ) ) ;
#25 = ORIENTED_EDGE ( 'NONE', *, *, #27, .T. ) ;
#26 = DIRECTION ( 'NONE',  ( 1.000000000000000000, 0.000000000000000000, 0.000000000000000000 ) ) ;
#27 = EDGE_CURVE ( 'NONE', #91, #410, #492, .T. ) ;
#28 = DIRECTION ( 'NONE',  ( 0.000000000000000000, 0.000000000000000000, -1.000000000000000000 ) ) ;
#29 = DIRECTION ( 'NONE',  ( 0.000000000000000000, 0.000000000000000000, 1.000000000000000000 ) ) ;
#30 = ORIENTED_EDGE ( 'NONE', *, *, #293, .T. ) ;
#31 = APPLICATION_PROTOCOL_DEFINITION ( 'draft international standard', 'automotive_design', 1998, #644 ) ;
#32 = AXIS2_PLACEMENT_3D ( 'NONE', #387, #689, #276 ) ;
#33 = CIRCLE ( 'NONE', #357, 1.999999999999999556 ) ;
#34 = DIRECTION ( 'NONE',  ( 1.000000000000000000, 0.000000000000000000, 0.000000000000000000 ) ) ;
#35 = ORIENTED_EDGE ( 'NONE', *, *, #210, .T. ) ;
#36 = LINE ( 'NONE', #212, #692 ) ;
#37 = ADVANCED_FACE ( 'NONE', ( #597, #438, #487 ), #723, .T. ) ;
#38 = CARTESIAN_POINT ( 'NONE',  ( 109.5499999999999972, 14.36855812229708285, -3.850043545269050682 ) ) ;
#39 = ORIENTED_EDGE ( 'NONE', *, *, #234, .T. ) ;
#40 = CIRCLE ( 'NONE', #498, 5.000000000000000888 ) ;
#41 = CARTESIAN_POINT ( 'NONE',  ( 47.44999999999998863, 51.84648018231299460, -13.89222249524661201 ) ) ;
#42 = EDGE_CURVE ( 'NONE', #57, #133, #378, .T. ) ;
#43 = CARTESIAN_POINT ( 'NONE',  ( 120.0000000000000000, -3.000000000000000000, -65.94440119602153061 ) ) ;
#44 = PLANE ( 'NONE',  #621 ) ;
#45 = ORIENTED_EDGE ( 'NONE', *, *, #325, .F. ) ;
#46 =( LENGTH_UNIT ( ) NAMED_UNIT ( * ) SI_UNIT ( .MILLI., .METRE. ) );
#47 = AXIS2_PLACEMENT_3D ( 'NONE', #4, #223, #99 ) ;
#48 = FACE_OUTER_BOUND ( 'NONE', #604, .T. ) ;
#49 = ORIENTED_EDGE ( 'NONE', *, *, #449, .F. ) ;
#50 = PLANE ( 'NONE',  #157 ) ;
#51 = EDGE_CURVE ( 'NONE', #201, #340, #731, .T. ) ;
#52 = EDGE_LOOP ( 'NONE', ( #156, #141, #183, #35 ) ) ;
#53 = DIRECTION ( 'NONE',  ( 1.000000000000000000, 0.000000000000000000, 0.000000000000000000 ) ) ;
#54 = ORIENTED_EDGE ( 'NONE', *, *, #640, .F. ) ;
#55 = DIRECTION ( 'NONE',  ( 1.000000000000000000, 0.000000000000000000, 0.000000000000000000 ) ) ;
#56 = AXIS2_PLACEMENT_3D ( 'NONE', #420, #239, #365 ) ;
#57 = VERTEX_POINT ( 'NONE', #738 ) ;
#58 = CARTESIAN_POINT ( 'NONE',  ( 47.44999999999998863, 14.36855812229708285, -3.850043545269050682 ) ) ;
#59 = EDGE_CURVE ( 'NONE', #340, #471, #747, .T. ) ;
#60 = LINE ( 'NONE', #702, #514 ) ;
#61 = VERTEX_POINT ( 'NONE', #384 ) ;
#62 = CARTESIAN_POINT ( 'NONE',  ( 120.0000000000000000, -3.000000000000000000, -65.94440119602153061 ) ) ;
#63 = CARTESIAN_POINT ( 'NONE',  ( 23.00000000000000000, 33.10751915230502362, -8.871133020257827795 ) ) ;
#64 = ORIENTED_EDGE ( 'NONE', *, *, #682, .T. ) ;
#65 = FACE_OUTER_BOUND ( 'NONE', #102, .T. ) ;
#66 = CARTESIAN_POINT ( 'NONE',  ( 120.0000000000000000, 66.22356926924361176, -22.96628530144570846 ) ) ;
#67 = VECTOR ( 'NONE', #591, 1000.000000000000000 ) ;
#68 = EDGE_LOOP ( 'NONE', ( #277, #742, #211, #422 ) ) ;
#69 = VECTOR ( 'NONE', #669, 1000.000000000000227 ) ;
#70 = VECTOR ( 'NONE', #152, 1000.000000000000000 ) ;
#71 = DIRECTION ( 'NONE',  ( 0.000000000000000000, 0.000000000000000000, -1.000000000000000000 ) ) ;
#72 = DIRECTION ( 'NONE',  ( 0.000000000000000000, -0.000000000000000000, 1.000000000000000000 ) ) ;
#73 = EDGE_LOOP ( 'NONE', ( #2, #615, #537, #188 ) ) ;
#74 = ADVANCED_FACE ( 'NONE', ( #567 ), #50, .T. ) ;
#75 = CYLINDRICAL_SURFACE ( 'NONE', #224, 5.999999999999997335 ) ;
#76 = AXIS2_PLACEMENT_3D ( 'NONE', #128, #545, #712 ) ;
#77 = CARTESIAN_POINT ( 'NONE',  ( 0.000000000000000000, 64.47385734971255999, -14.16988946854418607 ) ) ;
#78 = EDGE_LOOP ( 'NONE', ( #620, #540, #250, #716 ) ) ;
#79 = CYLINDRICAL_SURFACE ( 'NONE', #343, 2.000000000000000000 ) ;
#80 = SURFACE_STYLE_FILL_AREA ( #186 ) ;
#81 = VERTEX_POINT ( 'NONE', #279 ) ;
#82 = VECTOR ( 'NONE', #122, 999.9999999999998863 ) ;
#83 = DIRECTION ( 'NONE',  ( 1.000000000000000000, 0.000000000000000000, 0.000000000000000000 ) ) ;
#84 = EDGE_CURVE ( 'NONE', #451, #214, #333, .T. ) ;
#85 = DIRECTION ( 'NONE',  ( 0.000000000000000000, 0.000000000000000000, -1.000000000000000000 ) ) ;
#86 = ORIENTED_EDGE ( 'NONE', *, *, #675, .F. ) ;
#87 = DIRECTION ( 'NONE',  ( 1.000000000000000000, 0.000000000000000000, 0.000000000000000000 ) ) ;
#88 = DIRECTION ( 'NONE',  ( 0.000000000000000000, 0.9659258262890699775, -0.2588190451025144112 ) ) ;
#89 = DIRECTION ( 'NONE',  ( 1.000000000000000000, 0.000000000000000000, 0.000000000000000000 ) ) ;
#90 = DIRECTION ( 'NONE',  ( 0.000000000000000000, 0.9659258262890699775, -0.2588190451025145222 ) ) ;
#91 = VERTEX_POINT ( 'NONE', #503 ) ;
#92 = EDGE_CURVE ( 'NONE', #168, #241, #685, .T. ) ;
#93 = CIRCLE ( 'NONE', #331, 5.999999999999997335 ) ;
#94 = LINE ( 'NONE', #548, #230 ) ;
#95 = DIRECTION ( 'NONE',  ( 0.000000000000000000, 0.000000000000000000, -1.000000000000000000 ) ) ;
#96 = CARTESIAN_POINT ( 'NONE',  ( 23.00000000000000000, 38.90307411003944793, -10.42404729087291493 ) ) ;
#97 = EDGE_CURVE ( 'NONE', #323, #501, #219, .T. ) ;
#98 = DIRECTION ( 'NONE',  ( 1.000000000000000000, 0.000000000000000000, 0.000000000000000000 ) ) ;
#99 = DIRECTION ( 'NONE',  ( 0.000000000000000000, -0.7933533402912330557, -0.6087614290087233204 ) ) ;
#100 = DIRECTION ( 'NONE',  ( 1.000000000000000000, 0.000000000000000000, 0.000000000000000000 ) ) ;
#101 = DIRECTION ( 'NONE',  ( 0.000000000000000000, -0.9659258262890700886, 0.2588190451025144667 ) ) ;
#102 = EDGE_LOOP ( 'NONE', ( #624, #117, #609, #246 ) ) ;
#103 = AXIS2_PLACEMENT_3D ( 'NONE', #674, #150, #28 ) ;
#104 = EDGE_CURVE ( 'NONE', #214, #719, #215, .T. ) ;
#105 = AXIS2_PLACEMENT_3D ( 'NONE', #515, #639, #346 ) ;
#106 = DIRECTION ( 'NONE',  ( 1.000000000000000000, -1.117374219630793651E-16, 2.793435549076984128E-17 ) ) ;
#107 = ORIENTED_EDGE ( 'NONE', *, *, #84, .T. ) ;
#108 = CARTESIAN_POINT ( 'NONE',  ( 0.000000000000000000, 66.22356926924361176, -22.96628530144570846 ) ) ;
#109 = AXIS2_PLACEMENT_3D ( 'NONE', #302, #83, #299 ) ;
#110 = VERTEX_POINT ( 'NONE', #112 ) ;
#111 = DIRECTION ( 'NONE',  ( 1.000000000000000000, 0.000000000000000000, 0.000000000000000000 ) ) ;
#112 = CARTESIAN_POINT ( 'NONE',  ( 120.0000000000000000, 2.000000000000000000, -0.6064507456823944320 ) ) ;
#113 = EDGE_LOOP ( 'NONE', ( #706, #435, #25, #635, #290, #484, #547 ) ) ;
#114 = APPLICATION_CONTEXT ( 'automotive_design' ) ;
#115 = EDGE_CURVE ( 'NONE', #523, #580, #283, .T. ) ;
#116 = DIRECTION ( 'NONE',  ( 0.000000000000000000, 0.000000000000000000, -1.000000000000000000 ) ) ;
#117 = ORIENTED_EDGE ( 'NONE', *, *, #458, .F. ) ;
#118 = EDGE_CURVE ( 'NONE', #744, #306, #698, .T. ) ;
#119 = CARTESIAN_POINT ( 'NONE',  ( 120.0000000000000000, 64.39728498221744246, -20.58622528057199474 ) ) ;
#120 = ORIENTED_EDGE ( 'NONE', *, *, #218, .F. ) ;
#121 = FACE_OUTER_BOUND ( 'NONE', #396, .T. ) ;
#122 = DIRECTION ( 'NONE',  ( 0.000000000000000000, 0.9659258262890700886, -0.2588190451025144667 ) ) ;
#123 = ORIENTED_EDGE ( 'NONE', *, *, #595, .F. ) ;
#124 = FACE_OUTER_BOUND ( 'NONE', #52, .T. ) ;
#125 = DIRECTION ( 'NONE',  ( -1.000000000000000000, -0.000000000000000000, -0.000000000000000000 ) ) ;
#126 = EDGE_CURVE ( 'NONE', #241, #127, #507, .T. ) ;
#127 = VERTEX_POINT ( 'NONE', #339 ) ;
#128 = CARTESIAN_POINT ( 'NONE',  ( 47.44999999999998863, 14.36855812229708285, -3.850043545269050682 ) ) ;
#129 = DIRECTION ( 'NONE',  ( 0.000000000000000000, -0.000000000000000000, 1.000000000000000000 ) ) ;
#130 = ORIENTED_EDGE ( 'NONE', *, *, #51, .T. ) ;
#131 = FACE_BOUND ( 'NONE', #179, .T. ) ;
#132 = DIRECTION ( 'NONE',  ( -1.000000000000000000, -0.000000000000000000, -0.000000000000000000 ) ) ;
#133 = VERTEX_POINT ( 'NONE', #161 ) ;
#134 = CARTESIAN_POINT ( 'NONE',  ( 23.00000000000000000, 33.10751915230502362, -8.871133020257827795 ) ) ;
#135 = EDGE_CURVE ( 'NONE', #280, #168, #329, .T. ) ;
#136 = FACE_OUTER_BOUND ( 'NONE', #8, .T. ) ;
#137 = VERTEX_POINT ( 'NONE', #565 ) ;
#138 = AXIS2_PLACEMENT_3D ( 'NONE', #543, #87, #309 ) ;
#139 = DIRECTION ( 'NONE',  ( 0.000000000000000000, 0.000000000000000000, -1.000000000000000000 ) ) ;
#140 = LINE ( 'NONE', #199, #332 ) ;
#141 = ORIENTED_EDGE ( 'NONE', *, *, #542, .F. ) ;
#142 = VERTEX_POINT ( 'NONE', #269 ) ;
#143 = CARTESIAN_POINT ( 'NONE',  ( 120.0000000000000000, 2.000000000000000000, -2.606450745682394654 ) ) ;
#144 = DIRECTION ( 'NONE',  ( 0.000000000000000000, -0.2588190451025144112, -0.9659258262890699775 ) ) ;
#145 = DIRECTION ( 'NONE',  ( 0.000000000000000000, 0.7933533402912329446, 0.6087614290087234314 ) ) ;
#146 = EDGE_CURVE ( 'NONE', #306, #744, #93, .T. ) ;
#147 = ORIENTED_EDGE ( 'NONE', *, *, #417, .T. ) ;
#148 = AXIS2_PLACEMENT_3D ( 'NONE', #63, #522, #171 ) ;
#149 = CARTESIAN_POINT ( 'NONE',  ( 0.000000000000000000, 5.043807145043620821, -69.91116789747769644 ) ) ;
#150 = DIRECTION ( 'NONE',  ( 1.000000000000000000, 0.000000000000000000, 0.000000000000000000 ) ) ;
#151 = ORIENTED_EDGE ( 'NONE', *, *, #595, .T. ) ;
#152 = DIRECTION ( 'NONE',  ( 0.000000000000000000, 0.7933533402912330557, 0.6087614290087233204 ) ) ;
#153 = CARTESIAN_POINT ( 'NONE',  ( 0.000000000000000000, 64.47385734971255999, -14.16988946854418963 ) ) ;
#154 = ORIENTED_EDGE ( 'NONE', *, *, #210, .F. ) ;
#155 = CARTESIAN_POINT ( 'NONE',  ( 120.0000000000000000, 2.000000000000000000, -65.94440119602153061 ) ) ;
#156 = ORIENTED_EDGE ( 'NONE', *, *, #126, .T. ) ;
#157 = AXIS2_PLACEMENT_3D ( 'NONE', #616, #510, #213 ) ;
#158 = AXIS2_PLACEMENT_3D ( 'NONE', #226, #111, #691 ) ;
#159 = DIRECTION ( 'NONE',  ( -1.000000000000000000, -0.000000000000000000, -0.000000000000000000 ) ) ;
#160 = VERTEX_POINT ( 'NONE', #571 ) ;
#161 = CARTESIAN_POINT ( 'NONE',  ( 120.0000000000000000, 2.517638090205046808, -0.6745990931042588068 ) ) ;
#162 = ADVANCED_FACE ( 'NONE', ( #48, #741 ), #44, .F. ) ;
#163 = VECTOR ( 'NONE', #17, 1000.000000000000000 ) ;
#164 = ORIENTED_EDGE ( 'NONE', *, *, #243, .T. ) ;
#165 = LINE ( 'NONE', #440, #529 ) ;
#166 = DIRECTION ( 'NONE',  ( -0.000000000000000000, 0.2588190451025144667, 0.9659258262890700886 ) ) ;
#167 = EDGE_CURVE ( 'NONE', #744, #142, #622, .T. ) ;
#168 = VERTEX_POINT ( 'NONE', #108 ) ;
#169 = CARTESIAN_POINT ( 'NONE',  ( 0.000000000000000000, 2.000000000000000000, -2.606450745682394654 ) ) ;
#170 = CIRCLE ( 'NONE', #138, 4.999999999999997335 ) ;
#171 = DIRECTION ( 'NONE',  ( 0.000000000000000000, -0.9659258262890699775, 0.2588190451025145777 ) ) ;
#172 = VERTEX_POINT ( 'NONE', #286 ) ;
#173 = CARTESIAN_POINT ( 'NONE',  ( 120.0000000000000000, -3.469446951953614189E-15, -65.94440119602153061 ) ) ;
#174 = LINE ( 'NONE', #292, #342 ) ;
#175 = ORIENTED_EDGE ( 'NONE', *, *, #381, .T. ) ;
#176 = FACE_OUTER_BOUND ( 'NONE', #73, .T. ) ;
#177 = ADVANCED_FACE ( 'NONE', ( #335 ), #518, .F. ) ;
#178 = CARTESIAN_POINT ( 'NONE',  ( 23.00000000000000000, 33.88397628761256897, -5.973355541390617418 ) ) ;
#179 = EDGE_LOOP ( 'NONE', ( #366, #419 ) ) ;
#180 = CARTESIAN_POINT ( 'NONE',  ( 0.000000000000000000, -3.000000000000000000, -2.606450745682437731 ) ) ;
#181 = CARTESIAN_POINT ( 'NONE',  ( 120.0000000000000000, 3.217522858017451082, -67.53110787660401115 ) ) ;
#182 = AXIS2_PLACEMENT_3D ( 'NONE', #467, #634, #129 ) ;
#183 = ORIENTED_EDGE ( 'NONE', *, *, #97, .F. ) ;
#184 = CIRCLE ( 'NONE', #1, 1.999999999999999556 ) ;
#185 = DIRECTION ( 'NONE',  ( 0.000000000000000000, 0.000000000000000000, 1.000000000000000000 ) ) ;
#186 = FILL_AREA_STYLE ('',( #190 ) ) ;
#187 = EDGE_CURVE ( 'NONE', #294, #451, #327, .T. ) ;
#188 = ORIENTED_EDGE ( 'NONE', *, *, #222, .T. ) ;
#189 = DIRECTION ( 'NONE',  ( 0.000000000000000000, 0.000000000000000000, 1.000000000000000000 ) ) ;
#190 = FILL_AREA_STYLE_COLOUR ( '', #551 ) ;
#191 = ORIENTED_EDGE ( 'NONE', *, *, #234, .F. ) ;
#192 = EDGE_LOOP ( 'NONE', ( #646, #225, #253, #30 ) ) ;
#193 = CARTESIAN_POINT ( 'NONE',  ( 109.5499999999999972, 14.36855812229708285, -3.850043545269050682 ) ) ;
#194 = DIRECTION ( 'NONE',  ( -1.000000000000000000, -0.000000000000000000, -0.000000000000000000 ) ) ;
#195 = CARTESIAN_POINT ( 'NONE',  ( 120.0000000000000000, 63.69740021440502176, -17.06766694741140000 ) ) ;
#196 = AXIS2_PLACEMENT_3D ( 'NONE', #348, #413, #72 ) ;
#197 = CLOSED_SHELL ( 'NONE', ( #316, #631, #532, #618, #37, #561, #162, #583, #177, #574, #358, #281, #437, #308, #473, #607, #427, #74, #626, #688, #18, #651 ) ) ;
#198 = VECTOR ( 'NONE', #404, 1000.000000000000000 ) ;
#199 = CARTESIAN_POINT ( 'NONE',  ( 47.44999999999998863, 15.14501525760462641, -0.9522660664018408605 ) ) ;
#200 = ORIENTED_EDGE ( 'NONE', *, *, #745, .F. ) ;
#201 = VERTEX_POINT ( 'NONE', #181 ) ;
#202 = EDGE_CURVE ( 'NONE', #580, #280, #174, .T. ) ;
#203 = AXIS2_PLACEMENT_3D ( 'NONE', #266, #560, #100 ) ;
#204 = DIRECTION ( 'NONE',  ( 0.000000000000000000, 0.2588190451025144667, 0.9659258262890699775 ) ) ;
#205 = CARTESIAN_POINT ( 'NONE',  ( 120.0000000000000000, 3.217522858017451082, -67.53110787660401115 ) ) ;
#206 = CARTESIAN_POINT ( 'NONE',  ( 120.0000000000000000, 5.043807145043620821, -69.91116789747769644 ) ) ;
#207 = ORIENTED_EDGE ( 'NONE', *, *, #118, .T. ) ;
#208 = CYLINDRICAL_SURFACE ( 'NONE', #614, 4.999999999999997335 ) ;
#209 = CARTESIAN_POINT ( 'NONE',  ( 47.44999999999998863, 51.84648018231299460, -13.89222249524661201 ) ) ;
#210 = EDGE_CURVE ( 'NONE', #323, #241, #305, .T. ) ;
#211 = ORIENTED_EDGE ( 'NONE', *, *, #494, .F. ) ;
#212 = CARTESIAN_POINT ( 'NONE',  ( 120.0000000000000000, 3.217522858017451082, -67.53110787660401115 ) ) ;
#213 = DIRECTION ( 'NONE',  ( 0.000000000000000000, -0.2588190451025144667, -0.9659258262890700886 ) ) ;
#214 = VERTEX_POINT ( 'NONE', #645 ) ;
#215 = LINE ( 'NONE', #678, #217 ) ;
#216 = EDGE_LOOP ( 'NONE', ( #564, #257, #287, #690, #513, #407, #735 ) ) ;
#217 = VECTOR ( 'NONE', #445, 999.9999999999998863 ) ;
#218 = EDGE_CURVE ( 'NONE', #414, #719, #416, .T. ) ;
#219 = LINE ( 'NONE', #619, #504 ) ;
#220 = ORIENTED_EDGE ( 'NONE', *, *, #403, .F. ) ;
#221 = DIRECTION ( 'NONE',  ( 0.000000000000000000, 0.000000000000000000, -1.000000000000000000 ) ) ;
#222 = EDGE_CURVE ( 'NONE', #694, #142, #465, .T. ) ;
#223 = DIRECTION ( 'NONE',  ( 0.000000000000000000, -0.6087614290087233204, 0.7933533402912330557 ) ) ;
#224 = AXIS2_PLACEMENT_3D ( 'NONE', #134, #469, #481 ) ;
#225 = ORIENTED_EDGE ( 'NONE', *, *, #243, .F. ) ;
#226 = CARTESIAN_POINT ( 'NONE',  ( 120.0000000000000000, 2.000000000000000000, -65.94440119602153061 ) ) ;
#227 = CARTESIAN_POINT ( 'NONE',  ( 0.000000000000000000, 2.000000000000000000, 2.393549254317606678 ) ) ;
#228 = ORIENTED_EDGE ( 'NONE', *, *, #682, .F. ) ;
#229 = LINE ( 'NONE', #173, #198 ) ;
#230 = VECTOR ( 'NONE', #664, 1000.000000000000114 ) ;
#231 = LINE ( 'NONE', #361, #527 ) ;
#232 = PRESENTATION_LAYER_ASSIGNMENT (  '', '', ( #393 ) ) ;
#233 = ORIENTED_EDGE ( 'NONE', *, *, #373, .T. ) ;
#234 = EDGE_CURVE ( 'NONE', #61, #91, #478, .T. ) ;
#235 = DIRECTION ( 'NONE',  ( 0.000000000000000000, -0.2588190451025144667, -0.9659258262890700886 ) ) ;
#236 = CARTESIAN_POINT ( 'NONE',  ( 0.000000000000000000, 2.000000000000000000, -0.6064507456823944320 ) ) ;
#237 = ORIENTED_EDGE ( 'NONE', *, *, #249, .F. ) ;
#238 = CIRCLE ( 'NONE', #592, 5.000000000000000888 ) ;
#239 = DIRECTION ( 'NONE',  ( 0.000000000000000000, -0.6087614290087235425, 0.7933533402912330557 ) ) ;
#240 = DIRECTION ( 'NONE',  ( 1.000000000000000000, 0.000000000000000000, 0.000000000000000000 ) ) ;
#241 = VERTEX_POINT ( 'NONE', #77 ) ;
#242 = FACE_OUTER_BOUND ( 'NONE', #493, .T. ) ;
#243 = EDGE_CURVE ( 'NONE', #57, #455, #60, .T. ) ;
#244 = CARTESIAN_POINT ( 'NONE',  ( 0.000000000000000000, 2.000000000000000000, -65.94440119602153061 ) ) ;
#245 = VECTOR ( 'NONE', #709, 1000.000000000000000 ) ;
#246 = ORIENTED_EDGE ( 'NONE', *, *, #499, .T. ) ;
#247 = DIRECTION ( 'NONE',  ( 1.000000000000000000, 0.000000000000000000, 0.000000000000000000 ) ) ;
#248 = SURFACE_SIDE_STYLE ('',( #80 ) ) ;
#249 = EDGE_CURVE ( 'NONE', #306, #694, #525, .T. ) ;
#250 = ORIENTED_EDGE ( 'NONE', *, *, #187, .T. ) ;
#251 = DIRECTION ( 'NONE',  ( 0.000000000000000000, 0.000000000000000000, -1.000000000000000000 ) ) ;
#252 =( LENGTH_UNIT ( ) NAMED_UNIT ( * ) SI_UNIT ( .MILLI., .METRE. ) );
#253 = ORIENTED_EDGE ( 'NONE', *, *, #42, .T. ) ;
#254 = DIRECTION ( 'NONE',  ( 0.000000000000000000, -0.9659258262890699775, 0.2588190451025145777 ) ) ;
#255 = CARTESIAN_POINT ( 'NONE',  ( 120.0000000000000000, 2.000000000000000000, -65.94440119602153061 ) ) ;
#256 = VECTOR ( 'NONE', #106, 1000.000000000000000 ) ;
#257 = ORIENTED_EDGE ( 'NONE', *, *, #202, .T. ) ;
#258 = PRODUCT_RELATED_PRODUCT_CATEGORY ( 'part', '', ( #453 ) ) ;
#259 = CIRCLE ( 'NONE', #700, 5.000000000000000888 ) ;
#260 = LINE ( 'NONE', #315, #725 ) ;
#261 = ORIENTED_EDGE ( 'NONE', *, *, #84, .F. ) ;
#262 = CARTESIAN_POINT ( 'NONE',  ( 120.0000000000000000, 0.000000000000000000, -2.606450745682413306 ) ) ;
#263 = AXIS2_PLACEMENT_3D ( 'NONE', #528, #538, #647 ) ;
#264 = CYLINDRICAL_SURFACE ( 'NONE', #105, 2.000000000000001776 ) ;
#265 = VERTEX_POINT ( 'NONE', #227 ) ;
#266 = CARTESIAN_POINT ( 'NONE',  ( 0.000000000000000000, 0.000000000000000000, 0.000000000000000000 ) ) ;
#267 = PLANE ( 'NONE',  #158 ) ;
#268 = EDGE_CURVE ( 'NONE', #110, #301, #231, .T. ) ;
#269 = CARTESIAN_POINT ( 'NONE',  ( 23.00000000000000000, 39.67953124534699327, -7.526269812005704551 ) ) ;
#270 = ORIENTED_EDGE ( 'NONE', *, *, #483, .T. ) ;
#271 = LINE ( 'NONE', #262, #364 ) ;
#272 = AXIS2_PLACEMENT_3D ( 'NONE', #244, #401, #116 ) ;
#273 = VECTOR ( 'NONE', #132, 1000.000000000000000 ) ;
#274 = CARTESIAN_POINT ( 'NONE',  ( 0.000000000000000000, 63.17976212419999626, -18.99951859998953552 ) ) ;
#275 = ORIENTED_EDGE ( 'NONE', *, *, #724, .T. ) ;
#276 = DIRECTION ( 'NONE',  ( 0.000000000000000000, -0.9659258262890699775, 0.2588190451025145777 ) ) ;
#277 = ORIENTED_EDGE ( 'NONE', *, *, #699, .T. ) ;
#278 = PRODUCT_DEFINITION_SHAPE ( 'NONE', 'NONE',  #394 ) ;
#279 = CARTESIAN_POINT ( 'NONE',  ( 0.000000000000000000, 3.217522858017451082, -67.53110787660401115 ) ) ;
#280 = VERTEX_POINT ( 'NONE', #66 ) ;
#281 = ADVANCED_FACE ( 'NONE', ( #351 ), #289, .F. ) ;
#282 = DIRECTION ( 'NONE',  ( -1.000000000000000000, -0.000000000000000000, -0.000000000000000000 ) ) ;
#283 = CIRCLE ( 'NONE', #354, 5.000000000000004441 ) ;
#284 = VECTOR ( 'NONE', #496, 1000.000000000000114 ) ;
#285 = AXIS2_PLACEMENT_3D ( 'NONE', #653, #26, #251 ) ;
#286 = CARTESIAN_POINT ( 'NONE',  ( 0.000000000000000000, 5.043807145043620821, -69.91116789747769644 ) ) ;
#287 = ORIENTED_EDGE ( 'NONE', *, *, #363, .T. ) ;
#288 = CARTESIAN_POINT ( 'NONE',  ( 47.44999999999998863, 52.62293731762053284, -10.99444501637939986 ) ) ;
#289 = PLANE ( 'NONE',  #182 ) ;
#290 = ORIENTED_EDGE ( 'NONE', *, *, #403, .T. ) ;
#291 = DIRECTION ( 'NONE',  ( 1.000000000000000000, 0.000000000000000000, 0.000000000000000000 ) ) ;
#292 = CARTESIAN_POINT ( 'NONE',  ( 120.0000000000000000, 5.043807145043620821, -69.91116789747769644 ) ) ;
#293 = EDGE_CURVE ( 'NONE', #133, #687, #12, .T. ) ;
#294 = VERTEX_POINT ( 'NONE', #462 ) ;
#295 = LINE ( 'NONE', #180, #163 ) ;
#296 = CARTESIAN_POINT ( 'NONE',  ( 120.0000000000000000, 64.47385734971255999, -14.16988946854418607 ) ) ;
#297 = CIRCLE ( 'NONE', #516, 5.000000000000000888 ) ;
#298 = ORIENTED_EDGE ( 'NONE', *, *, #569, .F. ) ;
#299 = DIRECTION ( 'NONE',  ( 0.000000000000000000, 0.000000000000000000, -1.000000000000000000 ) ) ;
#300 = FACE_OUTER_BOUND ( 'NONE', #446, .T. ) ;
#301 = VERTEX_POINT ( 'NONE', #236 ) ;
#302 = CARTESIAN_POINT ( 'NONE',  ( 120.0000000000000000, 2.000000000000000000, -2.606450745682394654 ) ) ;
#303 = EDGE_CURVE ( 'NONE', #459, #414, #356, .T. ) ;
#304 = PRODUCT_DEFINITION_CONTEXT ( 'detailed design', #114, 'design' ) ;
#305 = LINE ( 'NONE', #296, #683 ) ;
#306 = VERTEX_POINT ( 'NONE', #539 ) ;
#307 = DIRECTION ( 'NONE',  ( -1.000000000000000000, -0.000000000000000000, -0.000000000000000000 ) ) ;
#308 = ADVANCED_FACE ( 'NONE', ( #705 ), #696, .T. ) ;
#309 = DIRECTION ( 'NONE',  ( 0.000000000000000000, 0.000000000000000000, -1.000000000000000000 ) ) ;
#310 = ORIENTED_EDGE ( 'NONE', *, *, #508, .F. ) ;
#311 = FACE_OUTER_BOUND ( 'NONE', #321, .T. ) ;
#312 = FACE_OUTER_BOUND ( 'NONE', #375, .T. ) ;
#313 = ORIENTED_EDGE ( 'NONE', *, *, #59, .F. ) ;
#314 =( NAMED_UNIT ( * ) SI_UNIT ( $, .STERADIAN. ) SOLID_ANGLE_UNIT ( ) );
#315 = CARTESIAN_POINT ( 'NONE',  ( 47.44999999999998863, 52.62293731762053284, -10.99444501637940164 ) ) ;
#316 = ADVANCED_FACE ( 'NONE', ( #300 ), #19, .F. ) ;
#317 = PLANE ( 'NONE',  #103 ) ;
#318 = DIRECTION ( 'NONE',  ( -1.000000000000000000, -0.000000000000000000, -0.000000000000000000 ) ) ;
#319 = DIRECTION ( 'NONE',  ( -0.000000000000000000, 0.2588190451025144667, 0.9659258262890700886 ) ) ;
#320 = CARTESIAN_POINT ( 'NONE',  ( 120.0000000000000000, 63.69740021440502176, -17.06766694741140000 ) ) ;
#321 = EDGE_LOOP ( 'NONE', ( #605, #334, #480, #147 ) ) ;
#322 = CYLINDRICAL_SURFACE ( 'NONE', #649, 2.000000000000000000 ) ;
#323 = VERTEX_POINT ( 'NONE', #474 ) ;
#324 = DIRECTION ( 'NONE',  ( 0.000000000000000000, 0.000000000000000000, -1.000000000000000000 ) ) ;
#325 = EDGE_CURVE ( 'NONE', #687, #301, #477, .T. ) ;
#326 = CARTESIAN_POINT ( 'NONE',  ( 120.0000000000000000, 63.17976212419999626, -18.99951859998953552 ) ) ;
#327 = LINE ( 'NONE', #457, #391 ) ;
#328 = VERTEX_POINT ( 'NONE', #650 ) ;
#329 = LINE ( 'NONE', #684, #599 ) ;
#330 = ORIENTED_EDGE ( 'NONE', *, *, #745, .T. ) ;
#331 = AXIS2_PLACEMENT_3D ( 'NONE', #562, #398, #630 ) ;
#332 = VECTOR ( 'NONE', #424, 1000.000000000000000 ) ;
#333 = LINE ( 'NONE', #209, #256 ) ;
#334 = ORIENTED_EDGE ( 'NONE', *, *, #303, .F. ) ;
#335 = FACE_OUTER_BOUND ( 'NONE', #665, .T. ) ;
#336 = EDGE_CURVE ( 'NONE', #638, #172, #671, .T. ) ;
#337 = ORIENTED_EDGE ( 'NONE', *, *, #347, .T. ) ;
#338 = CARTESIAN_POINT ( 'NONE',  ( 120.0000000000000000, 3.294095225512577052, 2.223178385762957454 ) ) ;
#339 = CARTESIAN_POINT ( 'NONE',  ( 0.000000000000000000, 3.294095225512577052, 2.223178385762957454 ) ) ;
#340 = VERTEX_POINT ( 'NONE', #119 ) ;
#341 = LINE ( 'NONE', #575, #623 ) ;
#342 = VECTOR ( 'NONE', #344, 1000.000000000000000 ) ;
#343 = AXIS2_PLACEMENT_3D ( 'NONE', #485, #589, #189 ) ;
#344 = DIRECTION ( 'NONE',  ( 0.000000000000000000, 0.7933533402912330557, 0.6087614290087233204 ) ) ;
#345 = EDGE_LOOP ( 'NONE', ( #233, #120, #681, #388 ) ) ;
#346 = DIRECTION ( 'NONE',  ( 0.000000000000000000, 0.000000000000000000, 1.000000000000000000 ) ) ;
#347 = EDGE_CURVE ( 'NONE', #142, #694, #21, .T. ) ;
#348 = CARTESIAN_POINT ( 'NONE',  ( 120.0000000000000000, 0.000000000000000000, -2.606450745682413306 ) ) ;
#349 = EDGE_LOOP ( 'NONE', ( #200, #228, #49, #642, #123, #566, #463 ) ) ;
#350 = DIRECTION ( 'NONE',  ( -1.000000000000000000, -0.000000000000000000, -0.000000000000000000 ) ) ;
#351 = FACE_OUTER_BOUND ( 'NONE', #68, .T. ) ;
#352 = ORIENTED_EDGE ( 'NONE', *, *, #363, .F. ) ;
#353 = DIRECTION ( 'NONE',  ( 0.000000000000000000, 0.9659258262890700886, -0.2588190451025144667 ) ) ;
#354 = AXIS2_PLACEMENT_3D ( 'NONE', #155, #512, #559 ) ;
#355 = AXIS2_PLACEMENT_3D ( 'NONE', #274, #53, #450 ) ;
#356 = LINE ( 'NONE', #587, #711 ) ;
#357 = AXIS2_PLACEMENT_3D ( 'NONE', #722, #34, #85 ) ;
#358 = ADVANCED_FACE ( 'NONE', ( #136 ), #727, .T. ) ;
#359 = ORIENTED_EDGE ( 'NONE', *, *, #449, .T. ) ;
#360 = PLANE ( 'NONE',  #673 ) ;
#361 = CARTESIAN_POINT ( 'NONE',  ( 120.0000000000000000, 2.000000000000000000, -0.6064507456823944320 ) ) ;
#362 = EDGE_LOOP ( 'NONE', ( #553, #191, #330, #13 ) ) ;
#363 = EDGE_CURVE ( 'NONE', #280, #323, #170, .T. ) ;
#364 = VECTOR ( 'NONE', #497, 1000.000000000000000 ) ;
#365 = DIRECTION ( 'NONE',  ( 0.000000000000000000, -0.7933533402912329446, -0.6087614290087234314 ) ) ;
#366 = ORIENTED_EDGE ( 'NONE', *, *, #222, .F. ) ;
#367 = LINE ( 'NONE', #704, #732 ) ;
#368 = DIRECTION ( 'NONE',  ( 0.000000000000000000, 0.9659258262890700886, -0.2588190451025144667 ) ) ;
#369 = AXIS2_PLACEMENT_3D ( 'NONE', #550, #606, #596 ) ;
#370 = AXIS2_PLACEMENT_3D ( 'NONE', #672, #558, #628 ) ;
#371 = DIRECTION ( 'NONE',  ( 0.000000000000000000, 0.000000000000000000, -1.000000000000000000 ) ) ;
#372 = FACE_OUTER_BOUND ( 'NONE', #16, .T. ) ;
#373 = EDGE_CURVE ( 'NONE', #556, #719, #260, .T. ) ;
#374 = CARTESIAN_POINT ( 'NONE',  ( 47.44999999999998863, 14.36855812229708285, -3.850043545269050682 ) ) ;
#375 = EDGE_LOOP ( 'NONE', ( #739, #313, #151, #164 ) ) ;
#376 = ORIENTED_EDGE ( 'NONE', *, *, #699, .F. ) ;
#377 = CARTESIAN_POINT ( 'NONE',  ( 47.44999999999998863, 15.14501525760462641, -0.9522660664018408605 ) ) ;
#378 = LINE ( 'NONE', #320, #284 ) ;
#379 = FACE_OUTER_BOUND ( 'NONE', #588, .T. ) ;
#380 = EDGE_LOOP ( 'NONE', ( #359, #10, #45, #552 ) ) ;
#381 = EDGE_CURVE ( 'NONE', #459, #214, #495, .T. ) ;
#382 = AXIS2_PLACEMENT_3D ( 'NONE', #193, #657, #71 ) ;
#383 = DIRECTION ( 'NONE',  ( 1.000000000000000000, 0.000000000000000000, 0.000000000000000000 ) ) ;
#384 = CARTESIAN_POINT ( 'NONE',  ( 120.0000000000000000, 0.000000000000000000, -2.606450745682413306 ) ) ;
#385 = APPLICATION_PROTOCOL_DEFINITION ( 'draft international standard', 'automotive_design', 1998, #114 ) ;
#386 = EDGE_CURVE ( 'NONE', #455, #687, #94, .T. ) ;
#387 = CARTESIAN_POINT ( 'NONE',  ( 23.00000000000000000, 33.10751915230502362, -8.871133020257827795 ) ) ;
#388 = ORIENTED_EDGE ( 'NONE', *, *, #441, .T. ) ;
#389 = DIRECTION ( 'NONE',  ( 0.000000000000000000, 0.000000000000000000, -1.000000000000000000 ) ) ;
#390 = ORIENTED_EDGE ( 'NONE', *, *, #724, .F. ) ;
#391 = VECTOR ( 'NONE', #693, 1000.000000000000000 ) ;
#392 = VECTOR ( 'NONE', #371, 1000.000000000000000 ) ;
#393 = STYLED_ITEM ( 'NONE', ( #718 ), #460 ) ;
#394 = PRODUCT_DEFINITION ( 'UNKNOWN', '', #629, #304 ) ;
#395 = CARTESIAN_POINT ( 'NONE',  ( 23.00000000000000000, 38.90307411003944793, -10.42404729087291493 ) ) ;
#396 = EDGE_LOOP ( 'NONE', ( #549, #154, #352, #20 ) ) ;
#397 = CIRCLE ( 'NONE', #109, 1.999999999999999556 ) ;
#398 = DIRECTION ( 'NONE',  ( 0.000000000000000000, 0.2588190451025144667, 0.9659258262890699775 ) ) ;
#399 = ORIENTED_EDGE ( 'NONE', *, *, #336, .F. ) ;
#400 =( NAMED_UNIT ( * ) PLANE_ANGLE_UNIT ( ) SI_UNIT ( $, .RADIAN. ) );
#401 = DIRECTION ( 'NONE',  ( 1.000000000000000000, 0.000000000000000000, 0.000000000000000000 ) ) ;
#402 = ORIENTED_EDGE ( 'NONE', *, *, #734, .F. ) ;
#403 = EDGE_CURVE ( 'NONE', #81, #471, #436, .T. ) ;
#404 = DIRECTION ( 'NONE',  ( -1.000000000000000000, -0.000000000000000000, -0.000000000000000000 ) ) ;
#405 = AXIS2_PLACEMENT_3D ( 'NONE', #714, #204, #254 ) ;
#406 = DIRECTION ( 'NONE',  ( 0.000000000000000000, 0.000000000000000000, -1.000000000000000000 ) ) ;
#407 = ORIENTED_EDGE ( 'NONE', *, *, #640, .T. ) ;
#408 = DIRECTION ( 'NONE',  ( 0.000000000000000000, 0.000000000000000000, -1.000000000000000000 ) ) ;
#409 = CARTESIAN_POINT ( 'NONE',  ( 120.0000000000000000, 2.517638090205046808, -0.6745990931042588068 ) ) ;
#410 = VERTEX_POINT ( 'NONE', #661 ) ;
#411 = PLANE ( 'NONE',  #56 ) ;
#412 = EDGE_CURVE ( 'NONE', #601, #414, #140, .T. ) ;
#413 = DIRECTION ( 'NONE',  ( -0.000000000000000000, 1.000000000000000000, 0.000000000000000000 ) ) ;
#414 = VERTEX_POINT ( 'NONE', #486 ) ;
#415 = FACE_BOUND ( 'NONE', #345, .T. ) ;
#416 = LINE ( 'NONE', #530, #82 ) ;
#417 = EDGE_CURVE ( 'NONE', #294, #601, #433, .T. ) ;
#418 = VECTOR ( 'NONE', #291, 1000.000000000000000 ) ;
#419 = ORIENTED_EDGE ( 'NONE', *, *, #347, .F. ) ;
#420 = CARTESIAN_POINT ( 'NONE',  ( 120.0000000000000000, 3.217522858017451082, -67.53110787660401115 ) ) ;
#421 = DIRECTION ( 'NONE',  ( -1.000000000000000000, -0.000000000000000000, -0.000000000000000000 ) ) ;
#422 = ORIENTED_EDGE ( 'NONE', *, *, #663, .T. ) ;
#423 = CARTESIAN_POINT ( 'NONE',  ( 47.44999999999998863, 15.14501525760462641, -0.9522660664018408605 ) ) ;
#424 = DIRECTION ( 'NONE',  ( 1.000000000000000000, 0.000000000000000000, 0.000000000000000000 ) ) ;
#425 = EDGE_LOOP ( 'NONE', ( #710, #402, #107, #468 ) ) ;
#426 = DIRECTION ( 'NONE',  ( 0.000000000000000000, 0.000000000000000000, -1.000000000000000000 ) ) ;
#427 = ADVANCED_FACE ( 'NONE', ( #312 ), #730, .F. ) ;
#428 = VECTOR ( 'NONE', #470, 999.9999999999998863 ) ;
#429 = DIRECTION ( 'NONE',  ( 1.000000000000000000, -1.117374219630793651E-16, 2.793435549076984128E-17 ) ) ;
#430 = AXIS2_PLACEMENT_3D ( 'NONE', #255, #544, #95 ) ;
#431 = CARTESIAN_POINT ( 'NONE',  ( 0.000000000000000000, 0.000000000000000000, -2.606450745682413306 ) ) ;
#432 =( NAMED_UNIT ( * ) PLANE_ANGLE_UNIT ( ) SI_UNIT ( $, .RADIAN. ) );
#433 = LINE ( 'NONE', #374, #488 ) ;
#434 = ORIENTED_EDGE ( 'NONE', *, *, #126, .F. ) ;
#435 = ORIENTED_EDGE ( 'NONE', *, *, #508, .T. ) ;
#436 = LINE ( 'NONE', #668, #660 ) ;
#437 = ADVANCED_FACE ( 'NONE', ( #379 ), #322, .F. ) ;
#438 = FACE_OUTER_BOUND ( 'NONE', #192, .T. ) ;
#439 = CARTESIAN_POINT ( 'NONE',  ( 109.5499999999999972, 52.62293731762052573, -10.99444501637939986 ) ) ;
#440 = CARTESIAN_POINT ( 'NONE',  ( 120.0000000000000000, -3.000000000000000000, -2.606450745682437731 ) ) ;
#441 = EDGE_CURVE ( 'NONE', #601, #556, #489, .T. ) ;
#442 = FACE_OUTER_BOUND ( 'NONE', #78, .T. ) ;
#443 = ORIENTED_EDGE ( 'NONE', *, *, #554, .T. ) ;
#444 = CARTESIAN_POINT ( 'NONE',  ( 120.0000000000000000, 2.000000000000000000, -65.94440119602153061 ) ) ;
#445 = DIRECTION ( 'NONE',  ( -0.000000000000000000, 0.2588190451025144667, 0.9659258262890700886 ) ) ;
#446 = EDGE_LOOP ( 'NONE', ( #519, #667, #337, #237 ) ) ;
#447 = CARTESIAN_POINT ( 'NONE',  ( 0.000000000000000000, 2.000000000000000000, -65.94440119602153061 ) ) ;
#448 = ORIENTED_EDGE ( 'NONE', *, *, #656, .T. ) ;
#449 = EDGE_CURVE ( 'NONE', #133, #110, #33, .T. ) ;
#450 = DIRECTION ( 'NONE',  ( 0.000000000000000000, 0.000000000000000000, -1.000000000000000000 ) ) ;
#451 = VERTEX_POINT ( 'NONE', #654 ) ;
#452 = VECTOR ( 'NONE', #101, 999.9999999999998863 ) ;
#453 = PRODUCT ( 'Main Body', 'Main Body', '', ( #506 ) ) ;
#454 = DIRECTION ( 'NONE',  ( 0.000000000000000000, -0.9659258262890700886, 0.2588190451025144667 ) ) ;
#455 = VERTEX_POINT ( 'NONE', #546 ) ;
#456 = DIRECTION ( 'NONE',  ( 0.000000000000000000, 0.000000000000000000, -1.000000000000000000 ) ) ;
#457 = CARTESIAN_POINT ( 'NONE',  ( 47.44999999999998863, 14.36855812229708285, -3.850043545269050682 ) ) ;
#458 = EDGE_CURVE ( 'NONE', #580, #172, #612, .T. ) ;
#459 = VERTEX_POINT ( 'NONE', #38 ) ;
#460 = MANIFOLD_SOLID_BREP ( 'Cut-Extrude1', #197 ) ;
#461 = DIRECTION ( 'NONE',  ( 1.000000000000000000, 0.000000000000000000, 0.000000000000000000 ) ) ;
#462 = CARTESIAN_POINT ( 'NONE',  ( 47.44999999999998863, 14.36855812229708640, -3.850043545269052903 ) ) ;
#463 = ORIENTED_EDGE ( 'NONE', *, *, #7, .F. ) ;
#464 = FACE_OUTER_BOUND ( 'NONE', #216, .T. ) ;
#465 = CIRCLE ( 'NONE', #611, 5.999999999999997335 ) ;
#466 = CIRCLE ( 'NONE', #479, 2.000000000000001776 ) ;
#467 = CARTESIAN_POINT ( 'NONE',  ( 120.0000000000000000, -3.000000000000000000, -2.606450745682437731 ) ) ;
#468 = ORIENTED_EDGE ( 'NONE', *, *, #104, .T. ) ;
#469 = DIRECTION ( 'NONE',  ( -0.000000000000000000, 0.2588190451025144667, 0.9659258262890699775 ) ) ;
#470 = DIRECTION ( 'NONE',  ( -0.000000000000000000, 0.2588190451025144667, 0.9659258262890700886 ) ) ;
#471 = VERTEX_POINT ( 'NONE', #701 ) ;
#472 = CARTESIAN_POINT ( 'NONE',  ( 0.000000000000000000, -3.000000000000000000, -65.94440119602153061 ) ) ;
#473 = ADVANCED_FACE ( 'NONE', ( #570 ), #264, .F. ) ;
#474 = CARTESIAN_POINT ( 'NONE',  ( 120.0000000000000000, 64.47385734971255999, -14.16988946854418607 ) ) ;
#475 = ORIENTED_EDGE ( 'NONE', *, *, #542, .T. ) ;
#476 = CARTESIAN_POINT ( 'NONE',  ( 120.0000000000000000, 2.000000000000000000, -2.606450745682394654 ) ) ;
#477 = CIRCLE ( 'NONE', #573, 1.999999999999999556 ) ;
#478 = LINE ( 'NONE', #637, #67 ) ;
#479 = AXIS2_PLACEMENT_3D ( 'NONE', #733, #461, #408 ) ;
#480 = ORIENTED_EDGE ( 'NONE', *, *, #521, .F. ) ;
#481 = DIRECTION ( 'NONE',  ( 0.000000000000000000, -0.9659258262890699775, 0.2588190451025145777 ) ) ;
#482 = SURFACE_STYLE_USAGE ( .BOTH. , #248 ) ;
#483 = EDGE_CURVE ( 'NONE', #172, #168, #636, .T. ) ;
#484 = ORIENTED_EDGE ( 'NONE', *, *, #708, .T. ) ;
#485 = CARTESIAN_POINT ( 'NONE',  ( 120.0000000000000000, 2.000000000000000000, -2.606450745682394654 ) ) ;
#486 = CARTESIAN_POINT ( 'NONE',  ( 109.5499999999999972, 15.14501525760462641, -0.9522660664018408605 ) ) ;
#487 = FACE_BOUND ( 'NONE', #511, .T. ) ;
#488 = VECTOR ( 'NONE', #319, 999.9999999999998863 ) ;
#489 = LINE ( 'NONE', #377, #726 ) ;
#490 = AXIS2_PLACEMENT_3D ( 'NONE', #195, #144, #88 ) ;
#491 = VECTOR ( 'NONE', #282, 1000.000000000000000 ) ;
#492 = LINE ( 'NONE', #431, #392 ) ;
#493 = EDGE_LOOP ( 'NONE', ( #679, #729, #593, #662 ) ) ;
#494 = EDGE_CURVE ( 'NONE', #608, #523, #165, .T. ) ;
#495 = LINE ( 'NONE', #24, #563 ) ;
#496 = DIRECTION ( 'NONE',  ( 0.000000000000000000, -0.9659258262890699775, 0.2588190451025144112 ) ) ;
#497 = DIRECTION ( 'NONE',  ( 0.000000000000000000, 0.000000000000000000, -1.000000000000000000 ) ) ;
#498 = AXIS2_PLACEMENT_3D ( 'NONE', #11, #89, #324 ) ;
#499 = EDGE_CURVE ( 'NONE', #523, #638, #579, .T. ) ;
#500 = CYLINDRICAL_SURFACE ( 'NONE', #713, 5.000000000000004441 ) ;
#501 = VERTEX_POINT ( 'NONE', #338 ) ;
#502 = FACE_OUTER_BOUND ( 'NONE', #728, .T. ) ;
#503 = CARTESIAN_POINT ( 'NONE',  ( 0.000000000000000000, 0.000000000000000000, -2.606450745682413306 ) ) ;
#504 = VECTOR ( 'NONE', #454, 999.9999999999998863 ) ;
#505 = ORIENTED_EDGE ( 'NONE', *, *, #521, .T. ) ;
#506 = PRODUCT_CONTEXT ( 'NONE', #644, 'mechanical' ) ;
#507 = LINE ( 'NONE', #153, #452 ) ;
#508 = EDGE_CURVE ( 'NONE', #301, #91, #184, .T. ) ;
#509 = ORIENTED_EDGE ( 'NONE', *, *, #59, .T. ) ;
#510 = DIRECTION ( 'NONE',  ( -1.151600048507731604E-16, -0.9659258262890700886, 0.2588190451025144667 ) ) ;
#511 = EDGE_LOOP ( 'NONE', ( #175, #261, #584, #505 ) ) ;
#512 = DIRECTION ( 'NONE',  ( 1.000000000000000000, 0.000000000000000000, 0.000000000000000000 ) ) ;
#513 = ORIENTED_EDGE ( 'NONE', *, *, #715, .T. ) ;
#514 = VECTOR ( 'NONE', #641, 1000.000000000000000 ) ;
#515 = CARTESIAN_POINT ( 'NONE',  ( 120.0000000000000000, 2.000000000000000000, -65.94440119602153061 ) ) ;
#516 = AXIS2_PLACEMENT_3D ( 'NONE', #169, #98, #456 ) ;
#517 = EDGE_CURVE ( 'NONE', #328, #410, #229, .T. ) ;
#518 = PLANE ( 'NONE',  #47 ) ;
#519 = ORIENTED_EDGE ( 'NONE', *, *, #118, .F. ) ;
#520 =( NAMED_UNIT ( * ) SI_UNIT ( $, .STERADIAN. ) SOLID_ANGLE_UNIT ( ) );
#521 = EDGE_CURVE ( 'NONE', #294, #459, #677, .T. ) ;
#522 = DIRECTION ( 'NONE',  ( -0.000000000000000000, 0.2588190451025144667, 0.9659258262890699775 ) ) ;
#523 = VERTEX_POINT ( 'NONE', #43 ) ;
#524 = DIRECTION ( 'NONE',  ( -1.000000000000000000, -0.000000000000000000, -0.000000000000000000 ) ) ;
#525 = LINE ( 'NONE', #9, #428 ) ;
#526 = ORIENTED_EDGE ( 'NONE', *, *, #458, .T. ) ;
#527 = VECTOR ( 'NONE', #577, 1000.000000000000000 ) ;
#528 = CARTESIAN_POINT ( 'NONE',  ( 0.000000000000000000, 63.17976212419999626, -18.99951859998953552 ) ) ;
#529 = VECTOR ( 'NONE', #3, 1000.000000000000000 ) ;
#530 = CARTESIAN_POINT ( 'NONE',  ( 109.5499999999999972, 15.14501525760462641, -0.9522660664018408605 ) ) ;
#531 = ORIENTED_EDGE ( 'NONE', *, *, #663, .F. ) ;
#532 = ADVANCED_FACE ( 'NONE', ( #502 ), #633, .T. ) ;
#533 = CARTESIAN_POINT ( 'NONE',  ( 0.000000000000000000, 2.517638090205044143, -0.6745990931042574745 ) ) ;
#534 = UNCERTAINTY_MEASURE_WITH_UNIT (LENGTH_MEASURE( 1.000000000000000082E-05 ), #46, 'distance_accuracy_value', 'NONE');
#535 = CARTESIAN_POINT ( 'NONE',  ( 0.000000000000000000, 2.000000000000000000, -2.606450745682394654 ) ) ;
#536 =( GEOMETRIC_REPRESENTATION_CONTEXT ( 3 ) GLOBAL_UNCERTAINTY_ASSIGNED_CONTEXT ( ( #534 ) ) GLOBAL_UNIT_ASSIGNED_CONTEXT ( ( #46, #432, #314 ) ) REPRESENTATION_CONTEXT ( 'NONE', 'WORKASPACE' ) );
#537 = ORIENTED_EDGE ( 'NONE', *, *, #249, .T. ) ;
#538 = DIRECTION ( 'NONE',  ( 1.000000000000000000, 0.000000000000000000, 0.000000000000000000 ) ) ;
#539 = CARTESIAN_POINT ( 'NONE',  ( 23.00000000000000000, 27.31196419457060642, -7.318218749642741550 ) ) ;
#540 = ORIENTED_EDGE ( 'NONE', *, *, #417, .F. ) ;
#541 = DIRECTION ( 'NONE',  ( 1.000000000000000000, 0.000000000000000000, 0.000000000000000000 ) ) ;
#542 = EDGE_CURVE ( 'NONE', #501, #127, #341, .T. ) ;
#543 = CARTESIAN_POINT ( 'NONE',  ( 120.0000000000000000, 63.17976212419999626, -18.99951859998953552 ) ) ;
#544 = DIRECTION ( 'NONE',  ( 1.000000000000000000, 0.000000000000000000, 0.000000000000000000 ) ) ;
#545 = DIRECTION ( 'NONE',  ( 0.000000000000000000, -0.9659258262890700886, 0.2588190451025144667 ) ) ;
#546 = CARTESIAN_POINT ( 'NONE',  ( 0.000000000000000000, 63.69740021440502176, -17.06766694741140000 ) ) ;
#547 = ORIENTED_EDGE ( 'NONE', *, *, #386, .T. ) ;
#548 = CARTESIAN_POINT ( 'NONE',  ( 0.000000000000000000, 63.69740021440502176, -17.06766694741140000 ) ) ;
#549 = ORIENTED_EDGE ( 'NONE', *, *, #92, .T. ) ;
#550 = CARTESIAN_POINT ( 'NONE',  ( 120.0000000000000000, 2.000000000000000000, -2.606450745682394654 ) ) ;
#551 = COLOUR_RGB ( '',0.7921568627450980005, 0.8196078431372548767, 0.9333333333333333481 ) ;
#552 = ORIENTED_EDGE ( 'NONE', *, *, #293, .F. ) ;
#553 = ORIENTED_EDGE ( 'NONE', *, *, #27, .F. ) ;
#554 = EDGE_CURVE ( 'NONE', #127, #265, #297, .T. ) ;
#555 = CARTESIAN_POINT ( 'NONE',  ( 120.0000000000000000, 5.043807145043620821, -69.91116789747769644 ) ) ;
#556 = VERTEX_POINT ( 'NONE', #288 ) ;
#557 = CIRCLE ( 'NONE', #263, 1.999999999999994893 ) ;
#558 = DIRECTION ( 'NONE',  ( -1.000000000000000000, -0.000000000000000000, -0.000000000000000000 ) ) ;
#559 = DIRECTION ( 'NONE',  ( 0.000000000000000000, 0.000000000000000000, -1.000000000000000000 ) ) ;
#560 = DIRECTION ( 'NONE',  ( 0.000000000000000000, 0.000000000000000000, 1.000000000000000000 ) ) ;
#561 = ADVANCED_FACE ( 'NONE', ( #464, #737 ), #267, .T. ) ;
#562 = CARTESIAN_POINT ( 'NONE',  ( 23.00000000000000000, 33.10751915230502362, -8.871133020257827795 ) ) ;
#563 = VECTOR ( 'NONE', #368, 999.9999999999998863 ) ;
#564 = ORIENTED_EDGE ( 'NONE', *, *, #115, .T. ) ;
#565 = CARTESIAN_POINT ( 'NONE',  ( 0.000000000000000000, -3.000000000000000888, -2.606450745682437731 ) ) ;
#566 = ORIENTED_EDGE ( 'NONE', *, *, #51, .F. ) ;
#567 = FACE_OUTER_BOUND ( 'NONE', #425, .T. ) ;
#568 = ORIENTED_EDGE ( 'NONE', *, *, #483, .F. ) ;
#569 = EDGE_CURVE ( 'NONE', #410, #81, #466, .T. ) ;
#570 = FACE_OUTER_BOUND ( 'NONE', #658, .T. ) ;
#571 = CARTESIAN_POINT ( 'NONE',  ( 120.0000000000000000, 2.000000000000000000, 2.393549254317606678 ) ) ;
#572 = ORIENTED_EDGE ( 'NONE', *, *, #656, .F. ) ;
#573 = AXIS2_PLACEMENT_3D ( 'NONE', #535, #240, #406 ) ;
#574 = ADVANCED_FACE ( 'NONE', ( #121 ), #208, .T. ) ;
#575 = CARTESIAN_POINT ( 'NONE',  ( 120.0000000000000000, 3.294095225512577052, 2.223178385762957454 ) ) ;
#576 =( GEOMETRIC_REPRESENTATION_CONTEXT ( 3 ) GLOBAL_UNCERTAINTY_ASSIGNED_CONTEXT ( ( #590 ) ) GLOBAL_UNIT_ASSIGNED_CONTEXT ( ( #252, #400, #520 ) ) REPRESENTATION_CONTEXT ( 'NONE', 'WORKASPACE' ) );
#577 = DIRECTION ( 'NONE',  ( -1.000000000000000000, -0.000000000000000000, -0.000000000000000000 ) ) ;
#578 = ORIENTED_EDGE ( 'NONE', *, *, #554, .F. ) ;
#579 = LINE ( 'NONE', #62, #491 ) ;
#580 = VERTEX_POINT ( 'NONE', #206 ) ;
#581 = DIRECTION ( 'NONE',  ( 0.000000000000000000, 0.000000000000000000, 1.000000000000000000 ) ) ;
#582 = DIRECTION ( 'NONE',  ( 0.000000000000000000, 0.2588190451025144667, 0.9659258262890699775 ) ) ;
#583 = ADVANCED_FACE ( 'NONE', ( #65 ), #500, .T. ) ;
#584 = ORIENTED_EDGE ( 'NONE', *, *, #187, .F. ) ;
#585 = FACE_OUTER_BOUND ( 'NONE', #380, .T. ) ;
#586 = MECHANICAL_DESIGN_GEOMETRIC_PRESENTATION_REPRESENTATION (  '', ( #393 ), #576 ) ;
#587 = CARTESIAN_POINT ( 'NONE',  ( 109.5499999999999972, 14.36855812229708285, -3.850043545269050682 ) ) ;
#588 = EDGE_LOOP ( 'NONE', ( #5, #64, #39, #310 ) ) ;
#589 = DIRECTION ( 'NONE',  ( -1.000000000000000000, -0.000000000000000000, -0.000000000000000000 ) ) ;
#590 = UNCERTAINTY_MEASURE_WITH_UNIT (LENGTH_MEASURE( 1.000000000000000082E-05 ), #252, 'distance_accuracy_value', 'NONE');
#591 = DIRECTION ( 'NONE',  ( -1.000000000000000000, -0.000000000000000000, -0.000000000000000000 ) ) ;
#592 = AXIS2_PLACEMENT_3D ( 'NONE', #659, #247, #139 ) ;
#593 = ORIENTED_EDGE ( 'NONE', *, *, #381, .F. ) ;
#594 = PLANE ( 'NONE',  #382 ) ;
#595 = EDGE_CURVE ( 'NONE', #340, #57, #23, .T. ) ;
#596 = DIRECTION ( 'NONE',  ( 0.000000000000000000, 0.000000000000000000, 1.000000000000000000 ) ) ;
#597 = FACE_BOUND ( 'NONE', #676, .T. ) ;
#598 = DIRECTION ( 'NONE',  ( -1.000000000000000000, -0.000000000000000000, -0.000000000000000000 ) ) ;
#599 = VECTOR ( 'NONE', #159, 1000.000000000000000 ) ;
#600 = DIRECTION ( 'NONE',  ( 0.000000000000000000, 0.000000000000000000, 1.000000000000000000 ) ) ;
#601 = VERTEX_POINT ( 'NONE', #423 ) ;
#602 = LINE ( 'NONE', #22, #666 ) ;
#603 = CARTESIAN_POINT ( 'NONE',  ( 120.0000000000000000, 63.17976212419999626, -18.99951859998953552 ) ) ;
#604 = EDGE_LOOP ( 'NONE', ( #399, #376, #572, #578, #434, #736, #568 ) ) ;
#605 = ORIENTED_EDGE ( 'NONE', *, *, #412, .T. ) ;
#606 = DIRECTION ( 'NONE',  ( -1.000000000000000000, -0.000000000000000000, -0.000000000000000000 ) ) ;
#607 = ADVANCED_FACE ( 'NONE', ( #372 ), #411, .T. ) ;
#608 = VERTEX_POINT ( 'NONE', #721 ) ;
#609 = ORIENTED_EDGE ( 'NONE', *, *, #115, .F. ) ;
#610 = DIRECTION ( 'NONE',  ( -0.000000000000000000, 0.2588190451025144667, 0.9659258262890700886 ) ) ;
#611 = AXIS2_PLACEMENT_3D ( 'NONE', #178, #582, #6 ) ;
#612 = LINE ( 'NONE', #555, #273 ) ;
#613 = CIRCLE ( 'NONE', #430, 2.000000000000001776 ) ;
#614 = AXIS2_PLACEMENT_3D ( 'NONE', #326, #350, #581 ) ;
#615 = ORIENTED_EDGE ( 'NONE', *, *, #146, .F. ) ;
#616 = CARTESIAN_POINT ( 'NONE',  ( 47.44999999999998863, 51.84648018231299460, -13.89222249524661201 ) ) ;
#617 = LINE ( 'NONE', #41, #15 ) ;
#618 = ADVANCED_FACE ( 'NONE', ( #131, #124, #415 ), #360, .F. ) ;
#619 = CARTESIAN_POINT ( 'NONE',  ( 120.0000000000000000, 64.47385734971255999, -14.16988946854418963 ) ) ;
#620 = ORIENTED_EDGE ( 'NONE', *, *, #441, .F. ) ;
#621 = AXIS2_PLACEMENT_3D ( 'NONE', #447, #55, #389 ) ;
#622 = LINE ( 'NONE', #395, #746 ) ;
#623 = VECTOR ( 'NONE', #524, 1000.000000000000000 ) ;
#624 = ORIENTED_EDGE ( 'NONE', *, *, #336, .T. ) ;
#625 = DIRECTION ( 'NONE',  ( -0.000000000000000000, 0.2588190451025144667, 0.9659258262890700886 ) ) ;
#626 = ADVANCED_FACE ( 'NONE', ( #242 ), #594, .F. ) ;
#627 = ORIENTED_EDGE ( 'NONE', *, *, #146, .T. ) ;
#628 = DIRECTION ( 'NONE',  ( 0.000000000000000000, 0.000000000000000000, 1.000000000000000000 ) ) ;
#629 = PRODUCT_DEFINITION_FORMATION_WITH_SPECIFIED_SOURCE ( 'ANY', '', #453, .NOT_KNOWN. ) ;
#630 = DIRECTION ( 'NONE',  ( 0.000000000000000000, -0.9659258262890699775, 0.2588190451025145777 ) ) ;
#631 = ADVANCED_FACE ( 'NONE', ( #585 ), #79, .F. ) ;
#632 = ORIENTED_EDGE ( 'NONE', *, *, #135, .F. ) ;
#633 = CYLINDRICAL_SURFACE ( 'NONE', #370, 5.000000000000000888 ) ;
#634 = DIRECTION ( 'NONE',  ( -0.000000000000000000, 1.000000000000000000, 0.000000000000000000 ) ) ;
#635 = ORIENTED_EDGE ( 'NONE', *, *, #569, .T. ) ;
#636 = LINE ( 'NONE', #149, #70 ) ;
#637 = CARTESIAN_POINT ( 'NONE',  ( 120.0000000000000000, 0.000000000000000000, -2.606450745682413306 ) ) ;
#638 = VERTEX_POINT ( 'NONE', #472 ) ;
#639 = DIRECTION ( 'NONE',  ( -1.000000000000000000, -0.000000000000000000, -0.000000000000000000 ) ) ;
#640 = EDGE_CURVE ( 'NONE', #160, #608, #259, .T. ) ;
#641 = DIRECTION ( 'NONE',  ( -1.000000000000000000, -0.000000000000000000, -0.000000000000000000 ) ) ;
#642 = ORIENTED_EDGE ( 'NONE', *, *, #42, .F. ) ;
#643 = DIRECTION ( 'NONE',  ( -1.000000000000000000, -0.000000000000000000, -0.000000000000000000 ) ) ;
#644 = APPLICATION_CONTEXT ( 'automotive_design' ) ;
#645 = CARTESIAN_POINT ( 'NONE',  ( 109.5499999999999972, 51.84648018231298749, -13.89222249524661024 ) ) ;
#646 = ORIENTED_EDGE ( 'NONE', *, *, #386, .F. ) ;
#647 = DIRECTION ( 'NONE',  ( 0.000000000000000000, 0.000000000000000000, -1.000000000000000000 ) ) ;
#648 = VECTOR ( 'NONE', #743, 1000.000000000000000 ) ;
#649 = AXIS2_PLACEMENT_3D ( 'NONE', #143, #194, #600 ) ;
#650 = CARTESIAN_POINT ( 'NONE',  ( 120.0000000000000000, -3.469446951953614189E-15, -65.94440119602153061 ) ) ;
#651 = ADVANCED_FACE ( 'NONE', ( #176 ), #75, .F. ) ;
#652 = ORIENTED_EDGE ( 'NONE', *, *, #7, .T. ) ;
#653 = CARTESIAN_POINT ( 'NONE',  ( 120.0000000000000000, 63.17976212419999626, -18.99951859998953552 ) ) ;
#654 = CARTESIAN_POINT ( 'NONE',  ( 47.44999999999998863, 51.84648018231299460, -13.89222249524661201 ) ) ;
#655 = ORIENTED_EDGE ( 'NONE', *, *, #202, .F. ) ;
#656 = EDGE_CURVE ( 'NONE', #265, #137, #238, .T. ) ;
#657 = DIRECTION ( 'NONE',  ( 1.000000000000000000, 0.000000000000000000, 0.000000000000000000 ) ) ;
#658 = EDGE_LOOP ( 'NONE', ( #298, #697, #652, #275 ) ) ;
#659 = CARTESIAN_POINT ( 'NONE',  ( 0.000000000000000000, 2.000000000000000000, -2.606450745682394654 ) ) ;
#660 = VECTOR ( 'NONE', #145, 1000.000000000000227 ) ;
#661 = CARTESIAN_POINT ( 'NONE',  ( 0.000000000000000000, -3.469446951953614189E-15, -65.94440119602153061 ) ) ;
#662 = ORIENTED_EDGE ( 'NONE', *, *, #303, .T. ) ;
#663 = EDGE_CURVE ( 'NONE', #608, #137, #367, .T. ) ;
#664 = DIRECTION ( 'NONE',  ( 0.000000000000000000, -0.9659258262890699775, 0.2588190451025144112 ) ) ;
#665 = EDGE_LOOP ( 'NONE', ( #270, #632, #655, #526 ) ) ;
#666 = VECTOR ( 'NONE', #598, 1000.000000000000000 ) ;
#667 = ORIENTED_EDGE ( 'NONE', *, *, #167, .T. ) ;
#668 = CARTESIAN_POINT ( 'NONE',  ( 0.000000000000000000, 3.217522858017451082, -67.53110787660401115 ) ) ;
#669 = DIRECTION ( 'NONE',  ( 0.000000000000000000, 0.7933533402912329446, 0.6087614290087234314 ) ) ;
#670 = SHAPE_DEFINITION_REPRESENTATION ( #278, #740 ) ;
#671 = CIRCLE ( 'NONE', #272, 5.000000000000004441 ) ;
#672 = CARTESIAN_POINT ( 'NONE',  ( 120.0000000000000000, 2.000000000000000000, -2.606450745682394654 ) ) ;
#673 = AXIS2_PLACEMENT_3D ( 'NONE', #717, #235, #353 ) ;
#674 = CARTESIAN_POINT ( 'NONE',  ( 47.44999999999998863, 14.36855812229708285, -3.850043545269050682 ) ) ;
#675 = EDGE_CURVE ( 'NONE', #160, #265, #602, .T. ) ;
#676 = EDGE_LOOP ( 'NONE', ( #627, #207 ) ) ;
#677 = LINE ( 'NONE', #58, #418 ) ;
#678 = CARTESIAN_POINT ( 'NONE',  ( 109.5499999999999972, 51.84648018231298749, -13.89222249524661024 ) ) ;
#679 = ORIENTED_EDGE ( 'NONE', *, *, #218, .T. ) ;
#680 = CARTESIAN_POINT ( 'NONE',  ( 120.0000000000000000, 64.39728498221744246, -20.58622528057199474 ) ) ;
#681 = ORIENTED_EDGE ( 'NONE', *, *, #412, .F. ) ;
#682 = EDGE_CURVE ( 'NONE', #110, #61, #397, .T. ) ;
#683 = VECTOR ( 'NONE', #125, 1000.000000000000000 ) ;
#684 = CARTESIAN_POINT ( 'NONE',  ( 120.0000000000000000, 66.22356926924361176, -22.96628530144570846 ) ) ;
#685 = CIRCLE ( 'NONE', #355, 4.999999999999997335 ) ;
#686 = AXIS2_PLACEMENT_3D ( 'NONE', #603, #421, #29 ) ;
#687 = VERTEX_POINT ( 'NONE', #533 ) ;
#688 = ADVANCED_FACE ( 'NONE', ( #311 ), #14, .F. ) ;
#689 = DIRECTION ( 'NONE',  ( 0.000000000000000000, 0.2588190451025144667, 0.9659258262890699775 ) ) ;
#690 = ORIENTED_EDGE ( 'NONE', *, *, #97, .T. ) ;
#691 = DIRECTION ( 'NONE',  ( 0.000000000000000000, 0.000000000000000000, -1.000000000000000000 ) ) ;
#692 = VECTOR ( 'NONE', #318, 1000.000000000000000 ) ;
#693 = DIRECTION ( 'NONE',  ( 0.000000000000000000, 0.9659258262890699775, -0.2588190451025145222 ) ) ;
#694 = VERTEX_POINT ( 'NONE', #707 ) ;
#695 = CARTESIAN_POINT ( 'NONE',  ( 0.000000000000000000, 2.000000000000000000, -2.606450745682394654 ) ) ;
#696 = PLANE ( 'NONE',  #196 ) ;
#697 = ORIENTED_EDGE ( 'NONE', *, *, #517, .F. ) ;
#698 = CIRCLE ( 'NONE', #32, 5.999999999999997335 ) ;
#699 = EDGE_CURVE ( 'NONE', #137, #638, #295, .T. ) ;
#700 = AXIS2_PLACEMENT_3D ( 'NONE', #476, #541, #426 ) ;
#701 = CARTESIAN_POINT ( 'NONE',  ( 0.000000000000000000, 64.39728498221744246, -20.58622528057199474 ) ) ;
#702 = CARTESIAN_POINT ( 'NONE',  ( 120.0000000000000000, 63.69740021440502176, -17.06766694741140000 ) ) ;
#703 = ORIENTED_EDGE ( 'NONE', *, *, #675, .T. ) ;
#704 = CARTESIAN_POINT ( 'NONE',  ( 120.0000000000000000, -3.000000000000000888, -2.606450745682437731 ) ) ;
#705 = FACE_OUTER_BOUND ( 'NONE', #362, .T. ) ;
#706 = ORIENTED_EDGE ( 'NONE', *, *, #325, .T. ) ;
#707 = CARTESIAN_POINT ( 'NONE',  ( 23.00000000000000000, 28.08842132987815177, -4.420441270775531173 ) ) ;
#708 = EDGE_CURVE ( 'NONE', #471, #455, #557, .T. ) ;
#709 = DIRECTION ( 'NONE',  ( -1.000000000000000000, -0.000000000000000000, -0.000000000000000000 ) ) ;
#710 = ORIENTED_EDGE ( 'NONE', *, *, #373, .F. ) ;
#711 = VECTOR ( 'NONE', #166, 999.9999999999998863 ) ;
#712 = DIRECTION ( 'NONE',  ( 0.000000000000000000, -0.2588190451025144667, -0.9659258262890700886 ) ) ;
#713 = AXIS2_PLACEMENT_3D ( 'NONE', #444, #643, #185 ) ;
#714 = CARTESIAN_POINT ( 'NONE',  ( 23.00000000000000000, 33.88397628761256897, -5.973355541390617418 ) ) ;
#715 = EDGE_CURVE ( 'NONE', #501, #160, #40, .T. ) ;
#716 = ORIENTED_EDGE ( 'NONE', *, *, #734, .T. ) ;
#717 = CARTESIAN_POINT ( 'NONE',  ( 120.0000000000000000, 64.47385734971255999, -14.16988946854418963 ) ) ;
#718 = PRESENTATION_STYLE_ASSIGNMENT (( #482 ) ) ;
#719 = VERTEX_POINT ( 'NONE', #439 ) ;
#720 = ORIENTED_EDGE ( 'NONE', *, *, #715, .F. ) ;
#721 = CARTESIAN_POINT ( 'NONE',  ( 120.0000000000000000, -3.000000000000000888, -2.606450745682437731 ) ) ;
#722 = CARTESIAN_POINT ( 'NONE',  ( 120.0000000000000000, 2.000000000000000000, -2.606450745682394654 ) ) ;
#723 = PLANE ( 'NONE',  #490 ) ;
#724 = EDGE_CURVE ( 'NONE', #201, #81, #36, .T. ) ;
#725 = VECTOR ( 'NONE', #429, 1000.000000000000000 ) ;
#726 = VECTOR ( 'NONE', #90, 1000.000000000000000 ) ;
#727 = CYLINDRICAL_SURFACE ( 'NONE', #369, 5.000000000000000888 ) ;
#728 = EDGE_LOOP ( 'NONE', ( #54, #703, #448, #531 ) ) ;
#729 = ORIENTED_EDGE ( 'NONE', *, *, #104, .F. ) ;
#730 = CYLINDRICAL_SURFACE ( 'NONE', #686, 1.999999999999994893 ) ;
#731 = LINE ( 'NONE', #205, #69 ) ;
#732 = VECTOR ( 'NONE', #307, 1000.000000000000000 ) ;
#733 = CARTESIAN_POINT ( 'NONE',  ( 0.000000000000000000, 2.000000000000000000, -65.94440119602153061 ) ) ;
#734 = EDGE_CURVE ( 'NONE', #451, #556, #617, .T. ) ;
#735 = ORIENTED_EDGE ( 'NONE', *, *, #494, .T. ) ;
#736 = ORIENTED_EDGE ( 'NONE', *, *, #92, .F. ) ;
#737 = FACE_BOUND ( 'NONE', #349, .T. ) ;
#738 = CARTESIAN_POINT ( 'NONE',  ( 120.0000000000000000, 63.69740021440500755, -17.06766694741140000 ) ) ;
#739 = ORIENTED_EDGE ( 'NONE', *, *, #708, .F. ) ;
#740 = ADVANCED_BREP_SHAPE_REPRESENTATION ( 'Main Body', ( #460, #203 ), #536 ) ;
#741 = FACE_BOUND ( 'NONE', #113, .T. ) ;
#742 = ORIENTED_EDGE ( 'NONE', *, *, #499, .F. ) ;
#743 = DIRECTION ( 'NONE',  ( -1.000000000000000000, -0.000000000000000000, -0.000000000000000000 ) ) ;
#744 = VERTEX_POINT ( 'NONE', #96 ) ;
#745 = EDGE_CURVE ( 'NONE', #61, #328, #271, .T. ) ;
#746 = VECTOR ( 'NONE', #625, 999.9999999999998863 ) ;
#747 = LINE ( 'NONE', #680, #648 ) ;
ENDSEC;
END-ISO-10303-21;
